<svg width="96" height="18" viewBox="0 0 96 18" fill="none" xmlns="http://www.w3.org/2000/svg">
<path d="M32.8003 13.4495C31.9527 13.4495 31.1802 13.2422 30.4828 12.8277C29.7915 12.4073 29.2415 11.8328 28.8327 11.1044C28.4299 10.3701 28.2285 9.53515 28.2285 8.5995C28.2285 7.68754 28.4239 6.87032 28.8146 6.14785C29.2054 5.41947 29.7434 4.84505 30.4287 4.42459C31.1201 3.99822 31.9106 3.78503 32.8003 3.78503C33.4555 3.78503 34.0657 3.90939 34.6308 4.15811C35.2019 4.40091 35.6678 4.74141 36.0285 5.17963V4.06928H38.7968V13.1652H36.0285V11.9661C35.6077 12.4457 35.1237 12.8129 34.5767 13.0675C34.0296 13.3222 33.4375 13.4495 32.8003 13.4495ZM33.6209 11.1311C34.1018 11.1311 34.5286 11.0245 34.9013 10.8113C35.274 10.5922 35.5656 10.2932 35.776 9.91415C35.9864 9.53515 36.0916 9.10286 36.0916 8.61727C36.0916 8.12575 35.9834 7.69346 35.767 7.32038C35.5566 6.94138 35.265 6.64529 34.8923 6.4321C34.5256 6.21299 34.1018 6.10344 33.6209 6.10344C33.1459 6.10344 32.7221 6.21299 32.3494 6.4321C31.9767 6.64529 31.6821 6.94138 31.4657 7.32038C31.2493 7.69938 31.1411 8.13167 31.1411 8.61727C31.1411 9.10286 31.2463 9.53515 31.4567 9.91415C31.6731 10.2932 31.9677 10.5922 32.3404 10.8113C32.7131 11.0245 33.1399 11.1311 33.6209 11.1311Z" fill="white"/>
<path d="M42.0531 13.1652V4.06928H44.8215V5.37505C45.1641 4.86577 45.5819 4.47493 46.0749 4.20252C46.5738 3.9242 47.1088 3.78503 47.6799 3.78503C48.0046 3.78503 48.3412 3.83241 48.6899 3.92716C49.0385 4.02191 49.3301 4.14331 49.5645 4.29135L48.4103 6.59199C48.2059 6.45579 47.9655 6.3492 47.689 6.27221C47.4184 6.18931 47.1659 6.14785 46.9315 6.14785C46.5708 6.14785 46.2282 6.23964 45.9035 6.42322C45.5789 6.6068 45.3174 6.84663 45.119 7.14272C44.9206 7.4329 44.8215 7.74675 44.8215 8.0843V13.1652H42.0531Z" fill="white"/>
<path d="M55.3193 13.4495C54.6159 13.4495 53.9516 13.3251 53.3264 13.0764C52.7073 12.8277 52.1602 12.4842 51.6853 12.046C51.2104 11.6019 50.8377 11.0896 50.5672 10.5093C50.2966 9.92304 50.1614 9.29532 50.1614 8.62615C50.1614 7.98067 50.2876 7.36776 50.5401 6.78741C50.7986 6.20707 51.1593 5.69187 51.6222 5.24181C52.0911 4.79175 52.6381 4.43644 53.2633 4.17588C53.8945 3.91531 54.5768 3.78503 55.3103 3.78503C55.9054 3.78503 56.4765 3.86794 57.0235 4.03375C57.5766 4.19956 58.0215 4.41275 58.3581 4.67331L57.4113 6.51205C56.9604 6.18635 56.4013 6.02349 55.7341 6.02349C55.163 6.02349 54.679 6.14785 54.2823 6.39657C53.8855 6.64529 53.5819 6.96803 53.3715 7.36479C53.1671 7.76156 53.0649 8.17905 53.0649 8.61727C53.0649 9.09694 53.1762 9.53515 53.3986 9.93192C53.621 10.3228 53.9336 10.6337 54.3364 10.8646C54.7452 11.0956 55.2171 11.211 55.7521 11.211C56.0827 11.211 56.3923 11.1666 56.6809 11.0778C56.9694 10.989 57.2129 10.8705 57.4113 10.7225L58.3581 12.5612C58.0154 12.8159 57.5736 13.0261 57.0326 13.1919C56.4915 13.3636 55.9204 13.4495 55.3193 13.4495Z" fill="white"/>
<path d="M64.3608 13.4495C63.5132 13.4495 62.7407 13.2422 62.0433 12.8277C61.352 12.4073 60.802 11.8328 60.3932 11.1044C59.9904 10.3701 59.789 9.53515 59.789 8.5995C59.789 7.68754 59.9844 6.87032 60.3751 6.14785C60.7659 5.41947 61.3039 4.84505 61.9892 4.42459C62.6806 3.99822 63.4711 3.78503 64.3608 3.78503C65.016 3.78503 65.6262 3.90939 66.1913 4.15811C66.7624 4.40091 67.2283 4.74141 67.589 5.17963V4.06928H70.3573V13.1652H67.589V11.9661C67.1682 12.4457 66.6842 12.8129 66.1372 13.0675C65.5901 13.3222 64.998 13.4495 64.3608 13.4495ZM65.1814 11.1311C65.6623 11.1311 66.0891 11.0245 66.4618 10.8113C66.8345 10.5922 67.1261 10.2932 67.3365 9.91415C67.5469 9.53515 67.6521 9.10286 67.6521 8.61727C67.6521 8.12575 67.5439 7.69346 67.3275 7.32038C67.1171 6.94138 66.8255 6.64529 66.4528 6.4321C66.0861 6.21299 65.6623 6.10344 65.1814 6.10344C64.7065 6.10344 64.2826 6.21299 63.9099 6.4321C63.5372 6.64529 63.2426 6.94138 63.0262 7.32038C62.8098 7.69938 62.7016 8.13167 62.7016 8.61727C62.7016 9.10286 62.8068 9.53515 63.0172 9.91415C63.2336 10.2932 63.5282 10.5922 63.9009 10.8113C64.2736 11.0245 64.7004 11.1311 65.1814 11.1311Z" fill="white"/>
<path d="M73.6137 13.1652V4.06928H76.382V5.08192C76.7366 4.69108 77.1785 4.37722 77.7075 4.14035C78.2425 3.90347 78.8317 3.78503 79.4749 3.78503C80.1842 3.78503 80.8064 3.939 81.3415 4.24694C81.8825 4.54895 82.3063 4.97237 82.6129 5.51718C82.9195 6.05606 83.0728 6.68674 83.0728 7.40921V13.1652H80.3045V7.98659C80.3045 7.33519 80.1301 6.82887 79.7815 6.46763C79.4388 6.10048 78.9669 5.9169 78.3658 5.9169C77.957 5.9169 77.6023 5.99981 77.3017 6.16562C77.0072 6.32551 76.7787 6.54758 76.6164 6.83183C76.4601 7.11015 76.382 7.42697 76.382 7.78229V13.1652H73.6137Z" fill="white"/>
<path d="M90.0037 13.4495C89.1561 13.4495 88.3836 13.2422 87.6863 12.8277C86.9949 12.4073 86.4449 11.8328 86.0361 11.1044C85.6333 10.3701 85.4319 9.53515 85.4319 8.5995C85.4319 7.68754 85.6273 6.87032 86.0181 6.14785C86.4088 5.41947 86.9468 4.84505 87.6322 4.42459C88.3235 3.99822 89.114 3.78503 90.0037 3.78503C90.659 3.78503 91.2691 3.90939 91.8342 4.15811C92.4053 4.40091 92.8712 4.74141 93.2319 5.17963V4.06928H96.0002V13.1652H93.2319V11.9661C92.8111 12.4457 92.3272 12.8129 91.7801 13.0675C91.2331 13.3222 90.6409 13.4495 90.0037 13.4495ZM90.8243 11.1311C91.3052 11.1311 91.732 11.0245 92.1047 10.8113C92.4774 10.5922 92.769 10.2932 92.9794 9.91415C93.1898 9.53515 93.295 9.10286 93.295 8.61727C93.295 8.12575 93.1868 7.69346 92.9704 7.32038C92.76 6.94138 92.4684 6.64529 92.0957 6.4321C91.729 6.21299 91.3052 6.10344 90.8243 6.10344C90.3494 6.10344 89.9256 6.21299 89.5528 6.4321C89.1801 6.64529 88.8856 6.94138 88.6691 7.32038C88.4527 7.69938 88.3445 8.13167 88.3445 8.61727C88.3445 9.10286 88.4497 9.53515 88.6601 9.91415C88.8765 10.2932 89.1711 10.5922 89.5438 10.8113C89.9165 11.0245 90.3434 11.1311 90.8243 11.1311Z" fill="white"/>
<path fill-rule="evenodd" clip-rule="evenodd" d="M8.16372 15.5569C7.38621 16.5191 6.25787 17.1337 5.02672 17.2656C3.79557 17.3974 2.56236 17.0357 1.59818 16.26C0.665539 15.4466 0.0945456 14.2967 0.0107225 13.063C-0.0731006 11.8294 0.337108 10.613 1.15117 9.68122L7.82514 1.7389C8.60265 0.776764 9.7309 0.162245 10.962 0.030398C12.193 -0.101449 13.4261 0.260163 14.3903 1.03576C15.3228 1.8491 15.8938 2.99891 15.9777 4.23246C16.0616 5.46601 15.6516 6.68235 14.8377 7.61413L8.16372 15.5569ZM3.26698 14.2738C3.70519 14.6264 4.26567 14.7908 4.82524 14.7309C5.3848 14.671 5.89765 14.3917 6.25106 13.9544L12.9242 6.01372C13.2941 5.59019 13.4805 5.03735 13.4424 4.47669C13.4043 3.91602 13.1448 3.39338 12.7211 3.02362C12.2828 2.67114 11.7223 2.50679 11.1628 2.56668C10.6033 2.62658 10.0905 2.90581 9.73698 3.34304L3.06342 11.2821C2.87998 11.4918 2.73974 11.7356 2.65069 11.9995C2.56164 12.2634 2.52554 12.5422 2.54444 12.82C2.56335 13.0979 2.63689 13.3693 2.76086 13.6187C2.88484 13.8681 3.05682 14.0907 3.26698 14.2738Z" fill="#EDEDED"/>
<g filter="url(#filter0_f_1430_14306)">
<path d="M9.33335 10.8828L11.9595 7.75988L12.8865 8.55558L10.2616 11.6783L9.33335 10.8828Z" fill="#B6B6B6"/>
</g>
<g filter="url(#filter1_f_1430_14306)">
<path d="M4.64066 6.62621L7.19826 3.76728L8.18641 4.22378L5.63009 7.08233L4.64066 6.62621Z" fill="#B6B6B6"/>
</g>
<path fill-rule="evenodd" clip-rule="evenodd" d="M14.696 15.5235C15.0727 16.0091 15.5437 16.4137 16.0808 16.7132C16.6178 17.0127 17.2099 17.2008 17.8215 17.2662C18.4331 17.3317 19.0516 17.2731 19.64 17.0941C20.2284 16.9151 20.7746 16.6193 21.2457 16.2244C21.7169 15.8295 22.1035 15.3437 22.3821 14.796C22.6608 14.2484 22.826 13.6502 22.8676 13.0373C22.9093 12.4244 22.8266 11.8093 22.6246 11.2291C22.4226 10.6488 22.1054 10.1153 21.692 9.66044L15.0337 1.73517C14.2581 0.775104 13.1325 0.161905 11.9043 0.0303409C10.6762 -0.101223 9.44597 0.259612 8.48408 1.03354C7.55371 1.84513 6.98407 2.99247 6.90037 4.22338C6.81667 5.45428 7.22576 6.66801 8.03772 7.59778L14.696 15.5235ZM19.5811 14.2431C19.144 14.595 18.5848 14.759 18.0266 14.6993C17.4683 14.6395 16.9567 14.3608 16.6041 13.9244L9.94587 6.00081C9.57685 5.57819 9.39091 5.02654 9.42892 4.46708C9.46692 3.90762 9.72575 3.3861 10.1485 3.01714C10.5858 2.66528 11.145 2.50121 11.7033 2.56097C12.2616 2.62074 12.7733 2.89946 13.126 3.33587L19.7842 11.2578C19.9672 11.4671 20.1072 11.7103 20.1961 11.9737C20.2849 12.237 20.321 12.5152 20.3022 12.7924C20.2834 13.0697 20.21 13.3405 20.0864 13.5894C19.9627 13.8383 19.7908 14.0605 19.5811 14.2431Z" fill="#EDEDED"/>
<g filter="url(#filter2_f_1430_14306)">
<path d="M15.5244 2.99761L17.5742 5.81957L16.4531 5.97916L14.4031 3.15799L15.5244 2.99761Z" fill="#B6B6B6"/>
</g>
<path d="M13.2534 5.50156L15.0376 7.36455C17.4916 3.94203 14.705 0.111257 11.7945 0.0115967L11.0439 2.58499C12.81 2.3019 13.9353 4.03757 13.2534 5.50156Z" fill="url(#paint0_linear_1430_14306)"/>
<defs>
<filter id="filter0_f_1430_14306" x="6.99451" y="5.4209" width="8.2312" height="8.59637" filterUnits="userSpaceOnUse" color-interpolation-filters="sRGB">
<feFlood flood-opacity="0" result="BackgroundImageFix"/>
<feBlend mode="normal" in="SourceGraphic" in2="BackgroundImageFix" result="shape"/>
<feGaussianBlur stdDeviation="1.16949" result="effect1_foregroundBlur_1430_14306"/>
</filter>
<filter id="filter1_f_1430_14306" x="2.30164" y="1.42828" width="8.22388" height="7.99304" filterUnits="userSpaceOnUse" color-interpolation-filters="sRGB">
<feFlood flood-opacity="0" result="BackgroundImageFix"/>
<feBlend mode="normal" in="SourceGraphic" in2="BackgroundImageFix" result="shape"/>
<feGaussianBlur stdDeviation="1.16949" result="effect1_foregroundBlur_1430_14306"/>
</filter>
<filter id="filter2_f_1430_14306" x="12.0638" y="0.65863" width="7.84937" height="7.65955" filterUnits="userSpaceOnUse" color-interpolation-filters="sRGB">
<feFlood flood-opacity="0" result="BackgroundImageFix"/>
<feBlend mode="normal" in="SourceGraphic" in2="BackgroundImageFix" result="shape"/>
<feGaussianBlur stdDeviation="1.16949" result="effect1_foregroundBlur_1430_14306"/>
</filter>
<linearGradient id="paint0_linear_1430_14306" x1="12.8815" y1="1.35586" x2="14.4516" y2="7.15863" gradientUnits="userSpaceOnUse">
<stop stop-color="#EDEDED"/>
<stop offset="1" stop-color="#ECECEC"/>
</linearGradient>
</defs>
</svg>
