<svg width="16" height="16" viewBox="0 0 16 16" fill="none" xmlns="http://www.w3.org/2000/svg">
<path d="M9.99991 10H11.8665C12.6133 10 12.9865 9.99998 13.2717 9.85465C13.5226 9.72682 13.7268 9.5229 13.8547 9.27202C14 8.9868 14 8.61344 14 7.8667V4.13335C14 3.38662 14 3.01324 13.8547 2.72803C13.7268 2.47714 13.5226 2.27316 13.2717 2.14532C12.9865 2 12.6134 2 11.8667 2H8.13339C7.38666 2 7.01302 2 6.72781 2.14532C6.47693 2.27316 6.27311 2.47714 6.14528 2.72803C5.99995 3.01324 5.99995 3.38665 5.99995 4.13338V6.00005M2 11.8667V8.13338C2 7.38665 2 7.01324 2.14532 6.72803C2.27315 6.47714 2.47698 6.27316 2.72786 6.14532C3.01307 6 3.38671 6 4.13344 6H7.86673C8.61346 6 8.98656 6 9.27177 6.14532C9.52265 6.27316 9.72689 6.47714 9.85472 6.72803C10 7.01324 10 7.38661 10 8.13335V11.8667C10 12.6134 10 12.9868 9.85472 13.272C9.72689 13.5229 9.52265 13.7268 9.27177 13.8547C8.98656 14 8.61346 14 7.86673 14H4.13344C3.38671 14 3.01307 14 2.72786 13.8547C2.47698 13.7268 2.27315 13.5229 2.14532 13.272C2 12.9868 2 12.6135 2 11.8667Z" stroke="white" stroke-linecap="round" stroke-linejoin="round"/>
</svg>
