<svg width="444" height="273" viewBox="0 0 444 273" fill="none" xmlns="http://www.w3.org/2000/svg">
<path d="M72.7944 59.6679C89.459 59.6679 102.968 46.7585 102.968 30.834C102.968 14.9094 89.459 2 72.7944 2C56.1299 2 42.6206 14.9094 42.6206 30.834C42.6206 46.7585 56.1299 59.6679 72.7944 59.6679Z" stroke="#C4C4C4" stroke-width="2.5" stroke-linecap="round" stroke-linejoin="round"/>
<path d="M223.997 59.402L224.861 58.4983L224.861 58.4982L223.997 59.402ZM223.407 59.402L224.27 60.3057L224.27 60.3057L223.407 59.402ZM324.576 155.515L325.44 154.612L325.44 154.612L324.576 155.515ZM323.986 156.133L324.85 155.229L324.85 155.229L323.986 156.133ZM223.702 60.3017L224.566 59.398C224.082 58.9363 223.321 58.9363 222.838 59.398L223.702 60.3017ZM2.72232 271.469L3.5859 272.373H3.58591L2.72232 271.469ZM2.11834 271.455L3.02208 270.592L3.02204 270.592L2.11834 271.455ZM2.13206 270.851L2.99564 271.755H2.99565L2.13206 270.851ZM341.06 30.004L340.197 30.9077L340.197 30.9077L341.06 30.004ZM340.468 30.0061L339.598 29.1087V29.1087L340.468 30.0061ZM441.64 126.117L440.776 127.021L440.776 127.021L441.64 126.117ZM441.05 126.735L440.186 127.639L440.186 127.639L441.05 126.735ZM340.767 30.9057L341.631 30.002C341.145 29.5379 340.38 29.5407 339.897 30.0083L340.767 30.9057ZM268.751 100.732L269.622 101.629V101.629L268.751 100.732ZM268.147 100.722L267.25 101.593L267.25 101.593L268.147 100.722ZM268.157 100.118L269.027 101.016V101.016L268.157 100.118ZM224.861 58.4982C224.212 57.8788 223.191 57.8788 222.543 58.4983L224.27 60.3057C223.952 60.6097 223.451 60.6096 223.133 60.3057L224.861 58.4982ZM325.44 154.612L224.861 58.4983L223.133 60.3057L323.713 156.419L325.44 154.612ZM325.494 156.983C326.134 156.313 326.11 155.252 325.44 154.612L323.713 156.419C323.384 156.105 323.373 155.584 323.686 155.256L325.494 156.983ZM323.123 157.037C323.792 157.677 324.854 157.652 325.494 156.983L323.686 155.256C324 154.927 324.521 154.915 324.85 155.229L323.123 157.037ZM222.838 61.2054L323.123 157.037L324.85 155.229L224.566 59.398L222.838 61.2054ZM3.58591 272.373L224.566 61.2054L222.838 59.398L1.85873 270.565L3.58591 272.373ZM1.2146 272.319C1.85457 272.988 2.91624 273.013 3.5859 272.373L1.85873 270.565C2.18725 270.251 2.70811 270.263 3.02208 270.592L1.2146 272.319ZM1.26847 269.947C0.598789 270.587 0.574661 271.649 1.21464 272.319L3.02204 270.592C3.33603 270.92 3.32418 271.441 2.99564 271.755L1.26847 269.947ZM222.543 58.4983L1.26846 269.947L2.99565 271.755L224.27 60.3057L222.543 58.4983ZM341.924 29.1003C341.272 28.4775 340.245 28.4812 339.598 29.1087L341.338 30.9035C341.021 31.2114 340.517 31.2132 340.197 30.9077L341.924 29.1003ZM442.503 125.214L341.924 29.1002L340.197 30.9077L440.776 127.021L442.503 125.214ZM442.557 127.585C443.197 126.915 443.173 125.854 442.503 125.214L440.776 127.021C440.448 126.707 440.436 126.186 440.75 125.858L442.557 127.585ZM440.186 127.639C440.856 128.279 441.917 128.255 442.557 127.585L440.75 125.858C441.064 125.529 441.585 125.517 441.913 125.831L440.186 127.639ZM339.904 31.8095L440.186 127.639L441.913 125.831L341.631 30.002L339.904 31.8095ZM269.622 101.629L341.638 31.8032L339.897 30.0083L267.881 99.8343L269.622 101.629ZM267.25 101.593C267.895 102.258 268.957 102.274 269.622 101.629L267.881 99.8343C268.207 99.518 268.728 99.526 269.045 99.8523L267.25 101.593ZM267.286 99.2209C266.621 99.8657 266.605 100.928 267.25 101.593L269.045 99.8523C269.361 100.179 269.353 100.699 269.027 101.016L267.286 99.2209ZM339.598 29.1087L267.286 99.2209L269.027 101.016L341.338 30.9035L339.598 29.1087Z" fill="#C4C4C4"/>
</svg>
