<svg width="116" height="25" viewBox="0 0 116 25" fill="none" xmlns="http://www.w3.org/2000/svg">
<path d="M4.06369 19.56C3.77569 19.48 3.54369 19.408 3.36769 19.344C3.19169 19.296 3.10369 19.272 3.10369 19.272C3.13569 19.192 3.11969 19.12 3.05569 19.056C3.00769 18.992 2.89569 18.952 2.71969 18.936C2.47969 18.776 2.23169 18.552 1.97569 18.264C1.71969 17.976 1.49569 17.68 1.30369 17.376C1.11169 17.072 0.983688 16.848 0.919688 16.704C0.807688 16.464 0.815688 16.32 0.943688 16.272C1.07169 16.208 1.22369 16.136 1.39969 16.056C1.57569 15.928 1.75969 15.832 1.95169 15.768C2.15969 15.704 2.32769 15.808 2.45569 16.08C2.66369 16.448 2.98369 16.76 3.41569 17.016C3.86369 17.272 4.36769 17.424 4.92769 17.472C5.50369 17.52 6.07969 17.424 6.65569 17.184C7.03969 17.008 7.24769 16.768 7.27969 16.464C7.31169 16.144 7.19169 15.776 6.91969 15.36C6.87169 15.232 6.79969 15.128 6.70369 15.048C6.62369 14.968 6.49569 14.864 6.31969 14.736C6.15969 14.608 5.92769 14.4 5.62369 14.112C5.38369 14 5.15969 13.896 4.95169 13.8C4.75969 13.704 4.55169 13.6 4.32769 13.488C4.07169 13.36 3.78369 13.184 3.46369 12.96C3.14369 12.72 2.84769 12.464 2.57569 12.192C2.30369 11.904 2.09569 11.632 1.95169 11.376C1.69569 11.136 1.53569 10.808 1.47169 10.392C1.40769 9.96 1.41569 9.504 1.49569 9.024C1.59169 8.544 1.74369 8.112 1.95169 7.728C2.04769 7.504 2.22369 7.216 2.47969 6.864C2.73569 6.496 3.02369 6.12 3.34369 5.736C3.66369 5.352 3.96769 5.008 4.25569 4.704C4.55969 4.384 4.79969 4.168 4.97569 4.056C5.10369 3.928 5.23969 3.8 5.38369 3.672C5.52769 3.528 5.59969 3.456 5.59969 3.456C5.61569 3.376 5.63969 3.336 5.67169 3.336C5.71969 3.336 5.74369 3.336 5.74369 3.336C5.82369 3.288 5.99969 3.208 6.27169 3.096C6.54369 2.984 6.83969 2.776 7.15969 2.472C8.23169 1.96 9.14369 1.616 9.89569 1.44C10.6477 1.248 11.2397 1.152 11.6717 1.152C12.0717 1.168 12.4637 1.28 12.8477 1.488C13.2317 1.68 13.5597 1.928 13.8317 2.232C14.1197 2.536 14.2877 2.88 14.3357 3.264C14.4477 3.648 14.3917 4.112 14.1677 4.656C13.9597 5.184 13.6637 5.688 13.2797 6.168C12.9117 6.632 12.5277 6.976 12.1277 7.2C11.6797 7.392 11.2957 7.416 10.9757 7.272C10.6717 7.128 10.5277 6.904 10.5437 6.6C10.5437 6.472 10.5837 6.32 10.6637 6.144C10.7597 5.968 11.0077 5.656 11.4077 5.208C11.9197 4.456 12.1917 3.92 12.2237 3.6C12.2557 3.28 12.1117 3.096 11.7917 3.048C11.6957 3.016 11.5117 3.024 11.2397 3.072C10.9677 3.12 10.6717 3.184 10.3517 3.264C10.0477 3.328 9.77569 3.4 9.53569 3.48C9.31169 3.56 9.19969 3.616 9.19969 3.648C9.19969 3.648 9.19969 3.672 9.19969 3.72C9.19969 3.768 9.16769 3.784 9.10369 3.768C9.07169 3.768 8.95969 3.824 8.76769 3.936C8.59169 4.032 8.37569 4.16 8.11969 4.32C7.86369 4.48 7.60769 4.648 7.35169 4.824C7.11169 4.984 6.90369 5.128 6.72769 5.256C6.55169 5.384 6.45569 5.464 6.43969 5.496C6.40769 5.672 6.22369 5.832 5.88769 5.976C5.56769 6.168 5.28769 6.44 5.04769 6.792C4.80769 7.144 4.52769 7.592 4.20769 8.136C3.93569 8.504 3.74369 8.904 3.63169 9.336C3.51969 9.752 3.51969 10.088 3.63169 10.344C3.71169 10.6 3.92769 10.856 4.27969 11.112C4.64769 11.352 5.14369 11.656 5.76769 12.024C6.31169 12.328 6.82369 12.648 7.30369 12.984C7.78369 13.32 8.19169 13.648 8.52769 13.968C8.86369 14.272 9.07969 14.528 9.17569 14.736C9.36769 15.008 9.47969 15.32 9.51169 15.672C9.55969 16.024 9.55969 16.368 9.51169 16.704C9.47969 17.024 9.43169 17.288 9.36769 17.496C9.25569 17.752 9.07969 18.024 8.83969 18.312C8.61569 18.6 8.40769 18.736 8.21569 18.72C8.03969 18.768 7.90369 18.824 7.80769 18.888C7.72769 18.952 7.63169 19.008 7.51969 19.056C7.40769 19.12 7.14369 19.192 6.72769 19.272C6.31169 19.368 5.85569 19.44 5.35969 19.488C4.86369 19.552 4.43169 19.576 4.06369 19.56ZM14.1353 18.024C13.9593 17.992 13.7673 17.888 13.5592 17.712C13.3513 17.52 13.1593 17.312 12.9833 17.088C12.8233 16.848 12.7193 16.648 12.6713 16.488C12.6713 16.456 12.6473 16.416 12.5993 16.368C12.5673 16.32 12.5513 16.296 12.5513 16.296C12.4873 16.248 12.4473 16.04 12.4313 15.672C12.4313 15.288 12.4553 14.864 12.5033 14.4C12.5513 13.936 12.6073 13.568 12.6713 13.296C12.7513 13.04 12.8713 12.696 13.0312 12.264C13.1913 11.816 13.3273 11.416 13.4393 11.064L14.0873 9.672L13.1273 9.408C13.0153 9.376 12.9193 9.312 12.8393 9.216C12.7753 9.12 12.7433 9.04 12.7433 8.976C12.7433 8.848 12.8153 8.664 12.9593 8.424C13.1033 8.184 13.2073 8.064 13.2713 8.064C13.3513 8.08 13.4953 8.088 13.7033 8.088C13.9273 8.088 14.1433 8.08 14.3513 8.064C14.5593 8.048 14.6873 8.032 14.7353 8.016C14.7993 7.984 14.8633 7.944 14.9273 7.896C14.9913 7.832 15.0393 7.744 15.0713 7.632C15.1513 7.456 15.2233 7.32 15.2873 7.224C15.3513 7.128 15.4393 6.984 15.5513 6.792C15.6633 6.584 15.7513 6.408 15.8153 6.264C15.8953 6.12 16.0153 5.92 16.1753 5.664C16.2553 5.552 16.3433 5.416 16.4393 5.256C16.5353 5.096 16.6553 4.96 16.7993 4.848C16.9433 4.72 17.1753 4.632 17.4953 4.584C17.8313 4.52 18.1193 4.592 18.3593 4.8C18.4873 4.96 18.5593 5.112 18.5753 5.256C18.5913 5.4 18.5273 5.584 18.3833 5.808C18.2553 6.08 18.1033 6.328 17.9273 6.552C17.7673 6.76 17.6153 7 17.4713 7.272C17.2153 7.624 17.1673 7.824 17.3273 7.872C17.4873 7.92 17.9353 7.888 18.6713 7.776C19.1353 7.696 19.4713 7.744 19.6793 7.92C19.8873 8.096 20.0073 8.32 20.0393 8.592C20.0873 8.976 20.0473 9.208 19.9193 9.288C19.7913 9.368 19.4233 9.408 18.8153 9.408C18.4313 9.472 18.1033 9.512 17.8313 9.528C17.5593 9.528 17.3593 9.528 17.2313 9.528C17.0233 9.544 16.8873 9.552 16.8233 9.552C16.7593 9.552 16.6633 9.568 16.5353 9.6C16.4073 9.632 16.3113 9.688 16.2473 9.768C16.1993 9.832 16.1433 9.928 16.0793 10.056C16.0153 10.12 15.9193 10.288 15.7913 10.56C15.6633 10.832 15.5033 11.128 15.3113 11.448C15.0873 12.12 14.8953 12.768 14.7353 13.392C14.5913 14 14.4633 14.608 14.3513 15.216C14.3033 15.52 14.3113 15.744 14.3753 15.888C14.4553 16.016 14.6633 16.096 14.9993 16.128C15.1753 16.144 15.4313 16.144 15.7673 16.128C16.1033 16.096 16.3833 16.048 16.6073 15.984C16.7833 15.904 16.9673 15.824 17.1593 15.744C17.3513 15.648 17.5273 15.552 17.6873 15.456C17.8313 15.376 17.9753 15.296 18.1193 15.216C18.2633 15.12 18.3353 15.072 18.3353 15.072C18.4153 14.944 18.5273 14.968 18.6713 15.144C18.8313 15.304 18.9433 15.48 19.0073 15.672C19.0073 15.864 18.9673 16.096 18.8873 16.368C18.8073 16.624 18.5113 16.896 17.9993 17.184C17.2793 17.632 16.5593 17.904 15.8393 18C15.1193 18.096 14.5513 18.104 14.1353 18.024ZM20.9526 17.496C20.8886 17.368 20.7446 17.24 20.5206 17.112C20.3126 16.984 20.2086 16.888 20.2086 16.824C20.2086 16.76 20.1686 16.664 20.0886 16.536C20.0246 16.392 19.9606 16.288 19.8966 16.224C19.8166 16.128 19.8406 15.896 19.9686 15.528C20.0966 15.144 20.2886 14.68 20.5446 14.136C20.8006 13.592 21.0806 13.04 21.3846 12.48C21.5126 12.352 21.6406 12.184 21.7686 11.976C21.8966 11.768 21.9926 11.632 22.0566 11.568C22.0566 11.504 22.0806 11.448 22.1286 11.4C22.1766 11.336 22.2326 11.304 22.2966 11.304L22.4886 10.92C22.5206 10.856 22.6166 10.728 22.7766 10.536C22.9526 10.344 23.1606 10.136 23.4006 9.912C23.6406 9.672 23.8806 9.448 24.1206 9.24C24.3766 9.032 24.5846 8.88 24.7446 8.784C25.0806 8.56 25.4246 8.456 25.7766 8.472C26.1446 8.488 26.4566 8.6 26.7126 8.808C26.7606 8.856 26.8646 8.952 27.0246 9.096C27.2006 9.24 27.3926 9.4 27.6006 9.576C27.8246 9.752 28.0166 9.912 28.1766 10.056L29.0646 10.848L28.6566 12.048C28.4486 12.688 28.3926 13.248 28.4886 13.728C28.5846 14.208 28.7366 14.624 28.9446 14.976C29.0246 15.152 29.1286 15.288 29.2566 15.384C29.4006 15.48 29.5846 15.544 29.8086 15.576C29.9366 15.592 30.0566 15.64 30.1686 15.72C30.2806 15.8 30.3366 15.928 30.3366 16.104C30.3366 16.488 30.2646 16.768 30.1206 16.944C29.9926 17.104 29.8486 17.2 29.6886 17.232C29.1606 17.296 28.6566 17.24 28.1766 17.064C27.6966 16.888 27.2646 16.432 26.8806 15.696C26.8166 15.6 26.7286 15.424 26.6166 15.168C26.5206 14.896 26.4646 14.72 26.4486 14.64C26.3846 14.72 26.2966 14.824 26.1846 14.952C26.0886 15.064 25.9926 15.168 25.8966 15.264C24.7606 16.416 23.7846 17.168 22.9686 17.52C22.1686 17.856 21.4966 17.848 20.9526 17.496ZM22.2726 15.504C22.3846 15.52 22.5606 15.464 22.8006 15.336C23.0406 15.192 23.3606 14.96 23.7606 14.64C24.3046 14.176 24.7526 13.792 25.1046 13.488C25.4566 13.184 25.8006 12.792 26.1366 12.312L26.6646 11.448C26.5046 11.08 26.3606 10.84 26.2326 10.728C26.1046 10.616 25.9766 10.56 25.8486 10.56C25.6406 10.56 25.3926 10.696 25.1046 10.968C24.8166 11.224 24.4886 11.608 24.1206 12.12C23.7686 12.616 23.3686 13.24 22.9206 13.992C22.7126 14.344 22.5526 14.688 22.4406 15.024C22.3286 15.344 22.2726 15.504 22.2726 15.504ZM30.3195 24.168C29.9675 24.232 29.7275 24.24 29.5995 24.192C29.4715 24.144 29.2955 24.064 29.0715 23.952C28.8955 23.824 28.7675 23.728 28.6875 23.664C28.6075 23.6 28.5515 23.536 28.5195 23.472C28.3595 23.136 28.3355 22.888 28.4475 22.728C28.5595 22.568 28.7195 22.464 28.9275 22.416C29.1515 22.384 29.3435 22.368 29.5035 22.368C29.6155 22.432 29.7995 22.464 30.0555 22.464C30.3275 22.464 30.4955 22.432 30.5595 22.368C30.5595 22.368 30.6315 22.32 30.7755 22.224C30.9355 22.144 31.1435 22.08 31.3995 22.032C31.8955 21.792 32.2875 21.544 32.5755 21.288C32.8635 21.048 33.1835 20.632 33.5355 20.04C33.6795 19.816 33.8315 19.552 33.9915 19.248C34.1515 18.96 34.2635 18.672 34.3275 18.384C34.4555 18.064 34.5995 17.632 34.7595 17.088C34.9355 16.544 35.0875 16.008 35.2155 15.48C35.3435 14.936 35.4155 14.528 35.4315 14.256C35.5275 13.36 35.7115 12.496 35.9835 11.664C36.2555 10.816 36.4715 9.92 36.6315 8.976C36.7275 8.752 36.7995 8.624 36.8475 8.592C36.8955 8.544 36.9995 8.52 37.1595 8.52C37.3355 8.52 37.5435 8.576 37.7835 8.688C38.0235 8.784 38.1995 8.92 38.3115 9.096C38.4715 9.4 38.5435 9.76 38.5275 10.176C38.5275 10.576 38.4235 10.928 38.2155 11.232C38.0555 11.456 37.9115 11.808 37.7835 12.288C37.6715 12.752 37.5595 13.336 37.4475 14.04C37.3675 14.392 37.2795 14.808 37.1835 15.288C37.1035 15.752 37.0155 16.272 36.9195 16.848C36.8555 17.008 36.7675 17.256 36.6555 17.592C36.5435 17.912 36.4715 18.168 36.4395 18.36C36.4235 18.424 36.3755 18.552 36.2955 18.744C36.2155 18.936 36.1355 19.12 36.0555 19.296C35.9755 19.488 35.9195 19.616 35.8875 19.68C35.1195 21.232 34.2315 22.352 33.2235 23.04C32.2315 23.728 31.2635 24.104 30.3195 24.168ZM32.3355 17.376C32.1595 17.376 31.9755 17.28 31.7835 17.088C31.6075 16.896 31.4875 16.744 31.4235 16.632C31.3595 16.472 31.2395 16.32 31.0635 16.176C30.8875 16.032 30.7355 15.856 30.6075 15.648C30.4795 15.44 30.4475 15.184 30.5115 14.88C30.5755 14.672 30.6715 14.36 30.7995 13.944C30.9275 13.512 31.0795 13.04 31.2555 12.528C31.4315 12 31.6075 11.48 31.7835 10.968C31.9755 10.456 32.1515 10 32.3115 9.6C32.4715 9.2 32.6075 8.92 32.7195 8.76C32.8155 8.632 32.9675 8.536 33.1755 8.472C33.3835 8.408 33.5915 8.392 33.7995 8.424C34.0075 8.456 34.1595 8.552 34.2555 8.712C34.4315 8.936 34.5275 9.16 34.5435 9.384C34.5755 9.592 34.4635 9.928 34.2075 10.392C34.1435 10.568 34.0635 10.76 33.9675 10.968C33.8715 11.16 33.8235 11.288 33.8235 11.352C33.8075 11.384 33.7755 11.496 33.7275 11.688C33.6955 11.864 33.6555 12.032 33.6075 12.192C33.5595 12.352 33.5115 12.432 33.4635 12.432C33.3995 12.496 33.3275 12.664 33.2475 12.936C33.1835 13.208 33.1195 13.512 33.0555 13.848C33.0075 14.168 32.9755 14.456 32.9595 14.712C32.9435 14.952 32.9675 15.072 33.0315 15.072C33.5275 15.072 34.0075 14.92 34.4715 14.616C34.9355 14.296 35.4395 13.768 35.9835 13.032L36.1995 15.288C35.9755 15.4 35.7675 15.52 35.5755 15.648C35.3835 15.76 35.2075 15.896 35.0475 16.056C34.9995 16.12 34.8875 16.208 34.7115 16.32C34.5355 16.432 34.3595 16.536 34.1835 16.632C34.0235 16.712 33.9195 16.752 33.8715 16.752C33.8715 16.752 33.8475 16.76 33.7995 16.776C33.7675 16.776 33.7515 16.808 33.7515 16.872C33.7515 16.904 33.6475 16.968 33.4395 17.064C33.2315 17.144 33.0155 17.216 32.7915 17.28C32.5675 17.344 32.4155 17.376 32.3355 17.376ZM50.9117 18.144C50.7997 18.208 50.6477 18.184 50.4557 18.072C50.2797 17.96 50.1037 17.792 49.9277 17.568C49.8157 17.376 49.7277 17.184 49.6637 16.992C49.6157 16.784 49.5917 16.48 49.5917 16.08C49.6077 15.76 49.6077 15.544 49.5917 15.432C49.5917 15.304 49.5197 15.296 49.3757 15.408C49.2477 15.504 48.9837 15.744 48.5837 16.128C48.1837 16.528 47.7997 16.872 47.4317 17.16C47.0797 17.432 46.7917 17.56 46.5677 17.544C46.4557 17.544 46.3037 17.472 46.1117 17.328C45.9197 17.184 45.7357 17.008 45.5597 16.8C45.3837 16.576 45.2557 16.368 45.1757 16.176C45.0797 15.792 45.0717 15.296 45.1517 14.688C45.2477 14.08 45.3997 13.448 45.6077 12.792C45.8157 12.12 46.0477 11.496 46.3037 10.92C46.5757 10.328 46.8397 9.856 47.0957 9.504C47.3677 9.136 47.5997 8.96 47.7917 8.976C48.0637 9.008 48.2957 9.144 48.4877 9.384C48.6957 9.608 48.8557 9.856 48.9677 10.128C49.0317 10.24 49.0557 10.336 49.0397 10.416C49.0397 10.496 48.9757 10.592 48.8477 10.704C48.7037 10.896 48.5277 11.176 48.3197 11.544C48.1277 11.896 47.9277 12.28 47.7197 12.696C47.5277 13.112 47.3517 13.512 47.1917 13.896C47.0477 14.264 46.9437 14.568 46.8797 14.808C46.8157 15.048 46.8157 15.168 46.8797 15.168C47.1037 15.168 47.3117 15.112 47.5037 15C47.6957 14.872 47.9357 14.672 48.2237 14.4C48.5597 14.064 48.8557 13.728 49.1117 13.392C49.3677 13.04 49.6317 12.64 49.9037 12.192C50.1117 11.872 50.3277 11.52 50.5517 11.136C50.7917 10.752 50.9437 10.48 51.0077 10.32C51.2317 9.904 51.3997 9.592 51.5117 9.384C51.6237 9.176 51.7597 9.048 51.9197 9C51.9997 9 52.1117 9 52.2557 9C52.3997 9 52.4717 9 52.4717 9C52.5677 9.016 52.6797 9.088 52.8077 9.216C52.9357 9.28 53.0637 9.368 53.1917 9.48C53.3357 9.592 53.4077 9.688 53.4077 9.768C53.3437 9.928 53.2397 10.168 53.0957 10.488C52.9677 10.792 52.8717 11.016 52.8077 11.16C52.5037 11.848 52.2077 12.528 51.9197 13.2C51.6477 13.856 51.4477 14.528 51.3197 15.216C51.2877 15.44 51.2797 15.704 51.2957 16.008C51.3277 16.296 51.3757 16.504 51.4397 16.632C51.4877 16.728 51.5437 16.84 51.6077 16.968C51.6877 17.08 51.7757 17.176 51.8717 17.256C52.0157 17.352 52.0077 17.472 51.8477 17.616C51.7037 17.76 51.5197 17.888 51.2957 18C51.0877 18.096 50.9597 18.144 50.9117 18.144ZM52.9305 23.832C52.8185 23.784 52.6425 23.664 52.4025 23.472C52.1785 23.28 51.9705 23.072 51.7785 22.848C51.6025 22.64 51.5145 22.488 51.5145 22.392C51.5145 22.296 51.5545 22.04 51.6345 21.624C51.7145 21.224 51.8185 20.728 51.9465 20.136C52.0905 19.56 52.2425 18.968 52.4025 18.36C52.5785 17.768 52.7545 17.24 52.9305 16.776C52.9625 16.696 53.0665 16.432 53.2425 15.984C53.4345 15.52 53.6185 14.96 53.7945 14.304C53.9225 13.888 54.0905 13.416 54.2985 12.888C54.5065 12.36 54.7225 11.832 54.9465 11.304C55.1705 10.76 55.3545 10.28 55.4985 9.864C55.6425 9.448 55.8025 9.032 55.9785 8.616C56.1545 8.184 56.2505 7.936 56.2665 7.872C56.2985 7.776 56.3865 7.696 56.5305 7.632C56.6905 7.552 56.8505 7.488 57.0105 7.44C57.1705 7.376 57.2745 7.336 57.3225 7.32C57.6105 7.24 57.8585 7.36 58.0665 7.68C58.1465 7.824 58.1625 8.024 58.1145 8.28C58.0825 8.52 58.0025 8.784 57.8745 9.072L57.7065 9.552L58.5705 9.36C58.7145 9.36 58.9145 9.368 59.1705 9.384C59.4265 9.4 59.6745 9.416 59.9145 9.432C60.1705 9.448 60.3465 9.472 60.4425 9.504C60.8265 9.52 61.0905 9.592 61.2345 9.72C61.3945 9.848 61.5305 10.016 61.6425 10.224C61.7225 10.304 61.8185 10.416 61.9305 10.56C62.0425 10.688 62.1065 10.816 62.1225 10.944C62.1865 11.216 62.1625 11.536 62.0505 11.904C61.9545 12.272 61.8025 12.648 61.5945 13.032C61.4025 13.4 61.1705 13.744 60.8985 14.064C60.6425 14.368 60.3945 14.6 60.1545 14.76C59.9945 14.824 59.8505 14.896 59.7225 14.976C59.5945 15.04 59.5305 15.072 59.5305 15.072C59.5145 15.152 59.3465 15.288 59.0265 15.48C58.7225 15.672 58.3625 15.856 57.9465 16.032C57.5465 16.192 57.1865 16.296 56.8665 16.344C56.7545 16.36 56.5945 16.376 56.3865 16.392C56.1785 16.408 56.0185 16.384 55.9065 16.32C55.7305 16.288 55.6105 16.272 55.5465 16.272C55.4825 16.272 55.4505 16.304 55.4505 16.368C55.4345 16.4 55.3225 16.656 55.1145 17.136C54.9065 17.616 54.6905 18.28 54.4665 19.128C54.1625 20.056 53.9145 20.816 53.7225 21.408C53.5305 22.016 53.3785 22.488 53.2665 22.824C53.1705 23.16 53.0985 23.4 53.0505 23.544C53.0025 23.704 52.9625 23.8 52.9305 23.832ZM56.0265 14.256C56.0745 14.352 56.2425 14.384 56.5305 14.352C56.8185 14.304 57.1465 14.208 57.5145 14.064C57.8825 13.92 58.2105 13.752 58.4985 13.56C58.8025 13.352 58.9785 13.136 59.0265 12.912C59.3785 12.512 59.6265 12.224 59.7705 12.048C59.9145 11.856 59.9065 11.704 59.7465 11.592C59.5705 11.336 59.3145 11.216 58.9785 11.232C58.6585 11.248 58.1465 11.448 57.4425 11.832C57.1705 11.928 56.9865 12.016 56.8905 12.096C56.7945 12.16 56.7145 12.264 56.6505 12.408C56.6025 12.552 56.5065 12.784 56.3625 13.104C56.2185 13.456 56.1225 13.72 56.0745 13.896C56.0265 14.072 56.0105 14.192 56.0265 14.256ZM69.6088 18.456C69.4008 18.504 69.1928 18.448 68.9848 18.288C68.7928 18.144 68.6568 17.984 68.5768 17.808C68.4808 17.552 68.4168 17.312 68.3848 17.088C68.3688 16.848 68.3528 16.576 68.3368 16.272L68.3128 15.456L67.3288 16.344C66.7848 16.856 66.2728 17.224 65.7928 17.448C65.3288 17.656 64.9048 17.76 64.5208 17.76C64.3448 17.728 64.1288 17.616 63.8728 17.424C63.6328 17.216 63.4088 16.992 63.2008 16.752C63.0088 16.496 62.8728 16.288 62.7928 16.128C62.6968 15.904 62.6648 15.592 62.6968 15.192C62.7448 14.792 62.8408 14.352 62.9848 13.872C63.1448 13.392 63.3368 12.92 63.5608 12.456C63.8008 11.992 64.0728 11.592 64.3768 11.256C64.9048 10.456 65.5608 9.96 66.3448 9.768C67.1288 9.56 67.8248 9.624 68.4328 9.96C68.7208 10.104 68.9288 10.16 69.0568 10.128C69.1848 10.096 69.2648 9.992 69.2968 9.816C69.3608 9.56 69.4328 9.32 69.5128 9.096C69.5928 8.872 69.7048 8.536 69.8488 8.088C70.2488 6.872 70.5928 5.92 70.8808 5.232C71.1848 4.544 71.4568 3.944 71.6968 3.432C71.8728 3.064 72.0488 2.808 72.2248 2.664C72.4008 2.52 72.5528 2.456 72.6808 2.472C72.8568 2.472 73.0728 2.536 73.3288 2.664C73.6008 2.792 73.7768 2.968 73.8568 3.192C73.9208 3.336 73.9448 3.488 73.9288 3.648C73.9288 3.808 73.8808 3.976 73.7848 4.152C73.5768 4.536 73.3288 5.048 73.0408 5.688C72.7688 6.312 72.4888 7 72.2008 7.752C71.9288 8.504 71.6728 9.248 71.4328 9.984C71.1928 10.72 70.9928 11.368 70.8328 11.928C70.7368 12.28 70.6568 12.728 70.5928 13.272C70.5448 13.816 70.5048 14.376 70.4728 14.952C70.4568 15.512 70.4568 16.016 70.4728 16.464C70.4888 16.896 70.5128 17.176 70.5448 17.304C70.6408 17.624 70.6408 17.864 70.5448 18.024C70.4488 18.184 70.3128 18.288 70.1368 18.336C69.9608 18.4 69.7848 18.44 69.6088 18.456ZM65.6488 15.552C65.8728 15.472 66.0728 15.376 66.2488 15.264C66.4248 15.152 66.6328 15.008 66.8728 14.832C67.3528 14.464 67.6968 14.144 67.9048 13.872C68.1288 13.6 68.3048 13.264 68.4328 12.864C68.5128 12.624 68.5128 12.416 68.4328 12.24C68.3688 12.064 68.2488 11.896 68.0728 11.736C67.8968 11.592 67.6728 11.536 67.4008 11.568C67.1288 11.584 66.8168 11.752 66.4648 12.072C66.0808 12.424 65.7528 12.832 65.4808 13.296C65.2088 13.76 64.9848 14.424 64.8088 15.288C64.7768 15.448 64.8328 15.56 64.9768 15.624C65.1208 15.688 65.3448 15.664 65.6488 15.552ZM74.1051 17.568C73.9131 17.616 73.6971 17.56 73.4571 17.4C73.2171 17.24 73.0011 17.04 72.8091 16.8C72.6171 16.56 72.4971 16.344 72.4491 16.152C72.3851 15.816 72.4011 15.408 72.4971 14.928C72.6091 14.432 72.7931 13.912 73.0491 13.368C73.3051 12.808 73.6251 12.264 74.0091 11.736C74.3931 11.192 74.8251 10.704 75.3051 10.272C75.7851 9.84 76.3051 9.504 76.8651 9.264C77.1051 9.136 77.2731 9.056 77.3691 9.024C77.4651 8.976 77.5611 8.976 77.6571 9.024C77.7531 9.056 77.9211 9.136 78.1611 9.264C78.3851 9.328 78.6091 9.408 78.8331 9.504C79.0731 9.584 79.2811 9.744 79.4571 9.984C79.5851 10.224 79.6811 10.464 79.7451 10.704C79.8091 10.944 79.8651 11.216 79.9131 11.52C80.0411 11.92 80.0891 12.184 80.0571 12.312C80.0251 12.424 79.9771 12.512 79.9131 12.576C79.7851 12.736 79.7531 12.816 79.8171 12.816C79.8171 12.816 79.8091 12.848 79.7931 12.912C79.7931 12.96 79.7611 13.04 79.6971 13.152C79.5851 13.504 79.4971 13.84 79.4331 14.16C79.3851 14.464 79.3931 14.736 79.4571 14.976C79.5851 15.328 79.7531 15.536 79.9611 15.6C80.1851 15.664 80.4731 15.52 80.8251 15.168C81.0011 15.04 81.2011 14.96 81.4251 14.928C81.6491 14.88 81.7611 14.92 81.7611 15.048C81.7611 15.048 81.7851 15.072 81.8331 15.12C81.8811 15.152 81.9371 15.168 82.0011 15.168C82.0811 15.168 82.1131 15.248 82.0971 15.408C82.0811 15.552 82.0491 15.72 82.0011 15.912C81.9531 16.104 81.8891 16.264 81.8091 16.392C81.5691 16.632 81.4491 16.792 81.4491 16.872C81.4491 16.872 81.4171 16.904 81.3531 16.968C81.3051 17.016 81.2171 17.096 81.0891 17.208C80.8011 17.384 80.4331 17.472 79.9851 17.472C79.5531 17.472 79.2171 17.384 78.9771 17.208C78.7371 17.032 78.4971 16.816 78.2571 16.56C78.0331 16.304 77.8891 16.064 77.8251 15.84L77.7051 15.6L77.0091 16.056C76.8331 16.232 76.7051 16.368 76.6251 16.464C76.5451 16.544 76.4731 16.616 76.4091 16.68C76.3611 16.744 76.3051 16.8 76.2411 16.848C76.1931 16.896 76.1371 16.92 76.0731 16.92C76.0091 16.92 75.9531 16.92 75.9051 16.92C75.8571 16.92 75.8331 16.92 75.8331 16.92C75.8331 16.984 75.7211 17.072 75.4971 17.184C75.2731 17.28 75.0251 17.368 74.7531 17.448C74.4811 17.528 74.2651 17.568 74.1051 17.568ZM74.6091 15.552C74.7051 15.552 74.8491 15.496 75.0411 15.384C75.2491 15.256 75.4731 15.104 75.7131 14.928C75.9531 14.752 76.1691 14.576 76.3611 14.4C76.5691 14.224 76.7211 14.08 76.8171 13.968C76.8811 13.904 76.9531 13.8 77.0331 13.656C77.1291 13.512 77.2331 13.384 77.3451 13.272C77.7131 12.856 77.9451 12.528 78.0411 12.288C78.1371 12.032 78.0971 11.76 77.9211 11.472C77.8571 11.296 77.7771 11.2 77.6811 11.184C77.5851 11.168 77.3851 11.224 77.0811 11.352C76.8891 11.464 76.6811 11.648 76.4571 11.904C76.2331 12.16 76.0011 12.448 75.7611 12.768C75.5371 13.088 75.3291 13.416 75.1371 13.752C74.9451 14.088 74.7851 14.392 74.6571 14.664C74.5451 14.936 74.4891 15.152 74.4891 15.312C74.4891 15.376 74.5051 15.432 74.5371 15.48C74.5851 15.528 74.6091 15.552 74.6091 15.552ZM85.8638 18.144C85.6398 18.08 85.4158 17.968 85.1918 17.808C84.9678 17.648 84.7358 17.464 84.4958 17.256C84.3038 17 84.1678 16.768 84.0878 16.56C84.0078 16.336 83.9598 16.08 83.9438 15.792C83.9438 15.488 83.9438 15.104 83.9438 14.64C83.9438 14.448 83.9758 14.176 84.0398 13.824C84.1198 13.472 84.1998 13.104 84.2798 12.72C84.3758 12.336 84.4638 12 84.5438 11.712C84.6238 11.408 84.6718 11.208 84.6878 11.112C84.7358 10.904 84.6558 10.784 84.4478 10.752C84.2398 10.72 84.0078 10.712 83.7518 10.728C83.5118 10.728 83.3518 10.704 83.2718 10.656C83.2078 10.64 83.1758 10.56 83.1758 10.416C83.1758 10.256 83.1758 10.176 83.1758 10.176C83.1758 10.112 83.1438 10.072 83.0798 10.056C83.0158 10.024 82.9598 9.968 82.9118 9.888C82.8798 9.824 82.9198 9.704 83.0318 9.528C83.1438 9.352 83.2878 9.248 83.4638 9.216C83.6078 9.184 83.8238 9.16 84.1118 9.144C84.3998 9.112 84.6878 9.056 84.9758 8.976C85.2798 8.88 85.5118 8.736 85.6718 8.544C85.8158 8.192 85.9758 7.816 86.1518 7.416C86.3278 7 86.4958 6.64 86.6558 6.336C86.8158 6.016 86.9278 5.816 86.9918 5.736C87.2638 5.592 87.5438 5.536 87.8318 5.568C88.1198 5.584 88.3438 5.72 88.5038 5.976C88.5838 6.088 88.6478 6.168 88.6958 6.216C88.7598 6.264 88.7838 6.336 88.7678 6.432C88.7678 6.528 88.7038 6.704 88.5758 6.96C88.4638 7.2 88.2718 7.576 87.9998 8.088C87.9198 8.248 87.8478 8.392 87.7838 8.52C87.7198 8.632 87.6878 8.688 87.6878 8.688C87.7518 8.704 87.8478 8.712 87.9758 8.712C88.1038 8.712 88.2638 8.704 88.4558 8.688C88.6318 8.656 88.8238 8.632 89.0318 8.616C89.2398 8.584 89.4238 8.584 89.5838 8.616C89.9518 8.616 90.2238 8.72 90.3998 8.928C90.5758 9.136 90.6718 9.4 90.6878 9.72C90.7198 9.896 90.6558 10.048 90.4958 10.176C90.3358 10.304 90.0398 10.368 89.6078 10.368C89.4638 10.368 89.2558 10.376 88.9838 10.392C88.7118 10.408 88.4318 10.424 88.1438 10.44C87.8558 10.456 87.6078 10.48 87.3997 10.512C87.2078 10.528 87.1118 10.552 87.1118 10.584C87.0638 10.616 86.9838 10.744 86.8718 10.968C86.7758 11.176 86.6718 11.432 86.5598 11.736C86.4638 12.04 86.3758 12.328 86.2958 12.6C86.1838 13.144 86.1038 13.672 86.0558 14.184C86.0078 14.696 85.9998 15.144 86.0318 15.528C86.0798 15.896 86.1758 16.16 86.3198 16.32C86.4638 16.464 86.6798 16.464 86.9678 16.32C87.2718 16.16 87.5518 15.976 87.8078 15.768C88.0958 15.528 88.3438 15.456 88.5518 15.552C88.7598 15.632 88.8878 15.808 88.9358 16.08C88.9998 16.336 88.9278 16.616 88.7198 16.92C88.5278 17.224 88.2558 17.48 87.9038 17.688C87.5518 17.896 87.1918 18.04 86.8238 18.12C86.4558 18.216 86.1358 18.224 85.8638 18.144ZM95.3211 17.52C94.8411 17.792 94.3291 17.952 93.7851 18C93.2571 18.032 92.7611 17.96 92.2971 17.784C91.8331 17.592 91.4571 17.312 91.1691 16.944C91.0091 16.736 90.8571 16.408 90.7131 15.96C90.5691 15.496 90.5451 14.872 90.6411 14.088C90.7371 13.352 90.9611 12.608 91.3131 11.856C91.6811 11.104 92.1291 10.44 92.6571 9.864C93.1851 9.288 93.7611 8.896 94.3851 8.688C94.6091 8.608 94.8331 8.552 95.0571 8.52C95.2971 8.472 95.6091 8.464 95.9931 8.496C96.3611 8.544 96.6891 8.64 96.9771 8.784C97.2651 8.912 97.4731 9.056 97.6011 9.216C97.8571 9.472 98.0251 9.72 98.1051 9.96C98.1851 10.2 98.2171 10.432 98.2011 10.656C98.1211 11.168 97.8891 11.72 97.5051 12.312C97.1371 12.904 96.6171 13.344 95.9451 13.632C95.6731 13.744 95.3531 13.816 94.9851 13.848C94.6171 13.88 94.1131 13.832 93.4731 13.704C93.0891 13.624 92.8331 13.664 92.7051 13.824C92.5931 13.984 92.5451 14.296 92.5611 14.76C92.5931 15.048 92.6571 15.304 92.7531 15.528C92.8651 15.736 93.0651 15.88 93.3531 15.96C93.7211 16.024 93.9851 16.032 94.1451 15.984C94.3051 15.92 94.5051 15.832 94.7451 15.72C94.8731 15.64 94.9931 15.552 95.1051 15.456C95.2331 15.36 95.3531 15.264 95.4651 15.168C95.5931 15.072 95.6971 15 95.7771 14.952C95.8571 14.888 95.9371 14.848 96.0171 14.832C96.0971 14.816 96.1771 14.808 96.2571 14.808C96.4331 14.824 96.6011 14.92 96.7611 15.096C96.9211 15.272 97.0251 15.44 97.0731 15.6C97.0731 15.728 96.9931 15.912 96.8331 16.152C96.6731 16.376 96.4571 16.616 96.1851 16.872C95.9291 17.112 95.6411 17.328 95.3211 17.52ZM95.0091 12.168C95.1211 12.12 95.2811 12.008 95.4891 11.832C95.7131 11.656 95.9131 11.472 96.0891 11.28C96.2651 11.072 96.3531 10.912 96.3531 10.8C96.3531 10.624 96.2331 10.472 95.9931 10.344C95.7691 10.216 95.4731 10.192 95.1051 10.272C94.9771 10.304 94.8251 10.392 94.6491 10.536C94.4731 10.68 94.2971 10.848 94.1211 11.04C93.9451 11.216 93.7931 11.392 93.6651 11.568C93.5371 11.728 93.4491 11.856 93.4011 11.952C93.4651 12.032 93.5931 12.096 93.7851 12.144C93.9771 12.192 94.1851 12.216 94.4091 12.216C94.6491 12.216 94.8491 12.2 95.0091 12.168ZM104.873 18.288C104.697 18.352 104.497 18.384 104.273 18.384C104.065 18.4 103.825 18.304 103.553 18.096C103.393 17.92 103.281 17.736 103.217 17.544C103.169 17.352 103.145 17.056 103.145 16.656C103.177 16.416 103.241 16.072 103.337 15.624C103.433 15.16 103.537 14.68 103.649 14.184C103.777 13.672 103.889 13.216 103.985 12.816C104.097 12.4 104.185 12.12 104.249 11.976C104.361 11.592 104.385 11.352 104.321 11.256C104.257 11.16 104.065 11.104 103.745 11.088C103.377 11.072 102.993 11.248 102.593 11.616C102.193 11.984 101.737 12.568 101.225 13.368C100.841 13.96 100.609 14.448 100.529 14.832C100.449 15.2 100.441 15.456 100.505 15.6C100.537 15.664 100.593 15.704 100.673 15.72C100.769 15.72 100.881 15.696 101.009 15.648C101.153 15.6 101.305 15.536 101.465 15.456C101.577 15.392 101.713 15.328 101.873 15.264C102.049 15.184 102.217 15.112 102.377 15.048C102.473 15.048 102.537 15.104 102.569 15.216C102.617 15.328 102.641 15.464 102.641 15.624C102.641 15.688 102.657 15.808 102.689 15.984C102.737 16.16 102.817 16.28 102.929 16.344C102.993 16.408 102.857 16.544 102.521 16.752C102.201 16.944 101.785 17.184 101.273 17.472C100.793 17.584 100.433 17.64 100.193 17.64C99.9687 17.64 99.7207 17.536 99.4487 17.328C99.0007 17.056 98.7127 16.552 98.5847 15.816C98.4727 15.08 98.5687 14.264 98.8727 13.368C99.1767 12.648 99.5127 12.032 99.8807 11.52C100.265 10.992 100.665 10.512 101.081 10.08C101.145 10.016 101.345 9.888 101.681 9.696C102.017 9.504 102.361 9.352 102.713 9.24C103.113 9.112 103.449 9.064 103.721 9.096C104.009 9.112 104.281 9.208 104.537 9.384C104.825 9.448 105.017 9.44 105.113 9.36C105.225 9.28 105.353 9.056 105.497 8.688C105.785 7.888 106.089 7.08 106.409 6.264C106.729 5.432 107.065 4.592 107.417 3.744C107.577 3.44 107.673 3.208 107.705 3.048C107.753 2.872 107.809 2.752 107.873 2.688L108.545 2.472C108.721 2.424 108.921 2.504 109.145 2.712C109.385 2.92 109.537 3.12 109.601 3.312C109.601 3.456 109.537 3.776 109.409 4.272C109.281 4.752 109.073 5.328 108.785 6C108.529 6.592 108.273 7.192 108.017 7.8C107.777 8.392 107.545 9.024 107.321 9.696C107.145 10.192 106.985 10.592 106.841 10.896C106.697 11.2 106.601 11.464 106.553 11.688C106.457 12.104 106.337 12.48 106.193 12.816C106.065 13.136 105.977 13.36 105.929 13.488C105.721 14.096 105.561 14.6 105.449 15C105.337 15.384 105.265 15.72 105.233 16.008C105.201 16.28 105.193 16.552 105.209 16.824C105.225 17.08 105.257 17.376 105.305 17.712C105.305 17.776 105.257 17.872 105.161 18C105.081 18.112 104.985 18.208 104.873 18.288ZM110.737 14.136C110.289 14.216 109.937 14.032 109.681 13.584C109.425 13.12 109.441 12.312 109.729 11.16C109.825 10.968 109.905 10.784 109.969 10.608C110.033 10.416 110.065 10.264 110.065 10.152C110.129 9.944 110.209 9.704 110.305 9.432C110.417 9.144 110.529 8.88 110.641 8.64C110.753 8.384 110.833 8.216 110.881 8.136C110.945 8.136 111.009 8.08 111.073 7.968C111.153 7.856 111.193 7.744 111.193 7.632C111.193 7.504 111.217 7.36 111.265 7.2C111.329 7.04 111.393 6.928 111.457 6.864C111.457 6.784 111.489 6.696 111.553 6.6C111.617 6.504 111.649 6.424 111.649 6.36C111.649 6.296 111.665 6.24 111.697 6.192C111.745 6.144 111.769 6.088 111.769 6.024C111.913 5.768 112.097 5.392 112.321 4.896C112.561 4.384 112.793 3.848 113.017 3.288C113.257 2.728 113.457 2.232 113.617 1.8C113.777 1.368 113.857 1.104 113.857 1.008C113.889 0.88 113.937 0.759999 114.001 0.647999C114.065 0.535999 114.161 0.495999 114.289 0.527999C114.353 0.48 114.449 0.456 114.577 0.456C114.705 0.439999 114.801 0.431999 114.865 0.431999C114.865 0.431999 114.937 0.463999 115.081 0.527999C115.225 0.591999 115.353 0.687999 115.465 0.816C115.593 0.927999 115.665 1.08 115.681 1.272C115.697 1.464 115.705 1.656 115.705 1.848C115.689 2.152 115.577 2.496 115.369 2.88C115.161 3.264 114.929 3.688 114.673 4.152C114.513 4.456 114.353 4.744 114.193 5.016C114.049 5.288 113.977 5.456 113.977 5.52C113.977 5.584 113.945 5.68 113.881 5.808C113.817 5.936 113.745 6.096 113.665 6.288C113.569 6.448 113.473 6.64 113.377 6.864C113.297 7.088 113.225 7.296 113.161 7.488C113.097 7.664 113.065 7.776 113.065 7.824C113.049 7.888 113.025 7.952 112.993 8.016C112.977 8.08 112.937 8.144 112.873 8.208C112.809 8.208 112.769 8.256 112.753 8.352C112.753 8.432 112.753 8.472 112.753 8.472C112.753 8.536 112.713 8.688 112.633 8.928C112.569 9.152 112.457 9.424 112.297 9.744C111.993 10.592 111.777 11.272 111.649 11.784C111.521 12.28 111.441 12.704 111.409 13.056C111.377 13.44 111.289 13.704 111.145 13.848C111.001 13.976 110.865 14.072 110.737 14.136ZM109.465 17.856C109.129 17.984 108.849 18.04 108.625 18.024C108.401 18.024 108.153 17.92 107.881 17.712C107.561 17.392 107.449 17.072 107.545 16.752C107.657 16.416 107.945 16.096 108.409 15.792C108.729 15.584 108.961 15.48 109.105 15.48C109.265 15.464 109.497 15.52 109.801 15.648C110.345 15.984 110.585 16.36 110.521 16.776C110.457 17.176 110.105 17.536 109.465 17.856Z" fill="#FD7132"/>
</svg>
