<svg width="146" height="34" viewBox="0 0 146 34" fill="none" xmlns="http://www.w3.org/2000/svg">
<path d="M0.832962 22.4423C0.312515 21.7978 0.413116 20.8534 1.05765 20.333L11.561 11.8519C12.2056 11.3314 13.15 11.432 13.6704 12.0765C14.1909 12.7211 14.0903 13.6655 13.4457 14.1859L4.10939 21.7247L11.6481 31.061C12.1686 31.7056 12.068 32.65 11.4234 33.1704C10.7789 33.6909 9.8345 33.5903 9.31407 32.9457L0.832962 22.4423ZM145.5 3.23547e-05C145.5 8.46293 143.084 15.0515 137.559 19.8295C132.113 24.5394 123.849 27.3065 112.554 28.667C89.9748 31.387 54.2873 28.5782 1.84111 22.9916L2.15889 20.0084C54.7134 25.6066 90.0255 28.3592 112.196 25.6886C123.276 24.3538 130.824 21.6877 135.597 17.5603C140.291 13.501 142.5 7.84836 142.5 -3.23547e-05L145.5 3.23547e-05Z" fill="#D38560"/>
</svg>
