<svg width="38" height="58" viewBox="0 0 38 58" fill="none" xmlns="http://www.w3.org/2000/svg">
<path d="M12.9125 0.64675C13.614 0.206014 14.5399 0.417375 14.9806 1.11884L22.1628 12.5498C22.6035 13.2512 22.3922 14.1772 21.6907 14.6179C20.9893 15.0586 20.0633 14.8473 19.6226 14.1458L13.2384 3.98497L3.0776 10.3691C2.37614 10.8099 1.45021 10.5985 1.00948 9.89704C0.56874 9.19559 0.780101 8.26965 1.48156 7.82892L12.9125 0.64675ZM37.6123 57.7311C29.3915 58.0819 22.9848 57.4524 18.1904 55.5355C13.305 53.5823 10.1391 50.3074 8.45748 45.5946C6.81127 40.9809 6.61994 35.082 7.38115 27.8728C8.14479 20.6404 9.88848 11.9203 12.2481 1.58304L15.1729 2.25067C12.8168 12.5725 11.1082 21.1451 10.3646 28.1878C9.6185 35.2536 9.86493 40.6121 11.283 44.5864C12.6657 48.4615 15.1906 51.1053 19.3041 52.7499C23.5085 54.4309 29.4087 55.0784 37.4844 54.7338L37.6123 57.7311Z" fill="#D38560"/>
</svg>
