<svg width="50" height="50" viewBox="0 0 50 50" fill="none" xmlns="http://www.w3.org/2000/svg">
<circle opacity="0.13" cx="25" cy="25" r="25" fill="#3E9AFF"/>
<path fill-rule="evenodd" clip-rule="evenodd" d="M36.1121 29.5302C37.1424 27.0027 37.2804 24.1995 36.5032 21.583C35.726 18.9666 34.0801 16.6933 31.837 15.1382C29.5939 13.5831 26.8876 12.8391 24.1648 13.0291C21.442 13.2191 18.8653 14.3316 16.8599 16.1831C14.8544 18.0346 13.5401 20.5144 13.1337 23.2135C12.7274 25.9125 13.2533 28.6694 14.6246 31.0293C15.996 33.3892 18.1309 35.2111 20.6771 36.1943C21.1923 36.3933 21.7713 36.1369 21.9702 35.6217C22.1692 35.1065 21.9128 34.5276 21.3976 34.3286C19.2758 33.5092 17.4967 31.991 16.3539 30.0244C15.2111 28.0578 14.7728 25.7604 15.1114 23.5112C15.4501 21.262 16.5453 19.1955 18.2165 17.6526C19.8877 16.1097 22.035 15.1826 24.304 15.0243C26.573 14.866 28.8282 15.4859 30.6975 16.7818C32.5667 18.0777 33.9383 19.9722 34.586 22.1525C35.2337 24.3329 35.1187 26.6689 34.26 28.7751C33.4306 30.8096 31.9552 32.5123 30.0644 33.6227L30.9659 30.2584C31.1089 29.7249 30.7923 29.1766 30.2588 29.0336C29.7254 28.8907 29.177 29.2073 29.0341 29.7407L27.57 35.2048C27.427 35.7383 27.7436 36.2866 28.2771 36.4296L33.7412 37.8937C34.2746 38.0366 34.823 37.72 34.9659 37.1866C35.1089 36.6531 34.7923 36.1048 34.2588 35.9618L31.3498 35.1824C33.488 33.849 35.157 31.8729 36.1121 29.5302Z" fill="#3E9AFF"/>
</svg>
