<svg width="24" height="24" viewBox="0 0 24 24" fill="none" xmlns="http://www.w3.org/2000/svg">
<path d="M9 9.5C9 11.1569 10.3431 12.5 12 12.5C13.6569 12.5 15 11.1569 15 9.5M21 7.19995V16.8C21 17.9201 21.0002 18.4802 20.7822 18.908C20.5905 19.2844 20.2841 19.5902 19.9078 19.782C19.48 20 18.9203 20 17.8002 20H6.2002C5.08009 20 4.51962 20 4.0918 19.782C3.71547 19.5902 3.40973 19.2844 3.21799 18.908C3 18.4802 3 17.9201 3 16.8V7.19995C3 6.07985 3 5.51986 3.21799 5.09204C3.40973 4.71572 3.71547 4.40973 4.0918 4.21799C4.51962 4 5.08009 4 6.2002 4H17.8002C18.9203 4 19.48 4 19.9078 4.21799C20.2841 4.40973 20.5905 4.71572 20.7822 5.09204C21.0002 5.51986 21 6.07985 21 7.19995Z" stroke="white" stroke-width="2" stroke-linecap="round" stroke-linejoin="round"/>
</svg>
