<svg width="24" height="24" viewBox="0 0 24 24" fill="none" xmlns="http://www.w3.org/2000/svg">
<path d="M15 12L12 9M12 9L9 12M12 9L12 20M17 20C17.9319 20 18.3978 20 18.7654 19.8478C19.2554 19.6448 19.6448 19.2552 19.8478 18.7651C20 18.3976 20 17.9319 20 17L20 7.2C20 6.07989 20 5.52004 19.782 5.09221C19.5902 4.71589 19.2844 4.40952 18.908 4.21777C18.4802 3.99979 17.9201 4 16.8 4L7.19995 4C6.07985 4 5.51986 3.99979 5.09204 4.21777C4.71572 4.40952 4.40973 4.71589 4.21799 5.09221C4 5.52004 4 6.07989 4 7.2L4 17C4 17.9319 4 18.3976 4.15224 18.7651C4.35523 19.2552 4.74456 19.6448 5.23462 19.8478C5.60216 20 6.0681 20 6.99999 20" stroke="white" stroke-width="2" stroke-linecap="round" stroke-linejoin="round"/>
</svg>
