<svg width="27" height="26" viewBox="0 0 27 26" fill="none" xmlns="http://www.w3.org/2000/svg">
<g id="Frame 9665">
<g id="Group 4">
<path id="Vector" fill-rule="evenodd" clip-rule="evenodd" d="M13.3607 3.31262C7.9896 3.31262 3.63477 7.65095 3.63477 13.0029C3.63477 17.2841 6.42155 20.9158 10.2867 22.1977C10.7734 22.2863 10.9507 21.9871 10.9507 21.7301C10.9507 21.5005 10.9424 20.8908 10.9376 20.0824C8.23203 20.6677 7.66118 18.7832 7.66118 18.7832C7.21871 17.6643 6.58098 17.3662 6.58098 17.3662C5.69783 16.7648 6.64786 16.7767 6.64786 16.7767C7.62416 16.8457 8.13768 17.7755 8.13768 17.7755C9.00531 19.2561 10.4145 18.8284 10.9687 18.5809C11.057 17.9545 11.3078 17.5274 11.5861 17.2853C9.42628 17.0408 7.15541 16.2092 7.15541 12.4961C7.15541 11.4384 7.53459 10.5735 8.15679 9.89595C8.05648 9.65087 7.72268 8.66578 8.25174 7.33151C8.25174 7.33151 9.0686 7.07096 10.9269 8.32492C11.7025 8.11018 12.5349 8.00251 13.3619 7.99894C14.1878 8.00251 15.0201 8.11018 15.797 8.32492C17.6541 7.07096 18.4691 7.33151 18.4691 7.33151C19 8.66578 18.6662 9.65087 18.5659 9.89595C19.1893 10.5735 19.5661 11.4384 19.5661 12.4961C19.5661 16.2187 17.2916 17.0379 15.1246 17.2776C15.474 17.5768 15.7851 18.1681 15.7851 19.0723C15.7851 20.3673 15.7731 21.4125 15.7731 21.7301C15.7731 21.9895 15.9481 22.2911 16.4419 22.1965C20.3041 20.9122 23.0885 17.2829 23.0885 13.0029C23.0885 7.65095 18.7331 3.31262 13.3607 3.31262Z" fill="#F7F7F7"/>
</g>
</g>
</svg>
