<svg width="22" height="22" viewBox="0 0 22 22" fill="none" xmlns="http://www.w3.org/2000/svg">
<g id="Frame 9663">
<g id="Group 6705">
<path id="Vector" d="M6.45357 9.46364C6.78274 8.49042 7.41803 7.64364 8.26879 7.04412C9.11956 6.44459 10.1423 6.12293 11.1912 6.12504C12.3802 6.12504 13.4552 6.53755 14.2995 7.2127L16.7563 4.81256C15.2591 3.53721 13.3406 2.75 11.1912 2.75C7.86347 2.75 4.99863 4.60493 3.62109 7.32201L6.45357 9.46364Z" fill="#EA4335"/>
<path id="Vector_2" d="M14.0337 15.1334C13.2669 15.6167 12.2931 15.8745 11.1914 15.8745C10.1467 15.8766 9.12776 15.5575 8.27889 14.9624C7.43001 14.3673 6.7942 13.5264 6.46146 12.5586L3.61914 14.6672C4.31653 16.0466 5.39578 17.2072 6.73431 18.0172C8.07285 18.8272 9.61701 19.2542 11.1914 19.2495C13.2549 19.2495 15.2262 18.5325 16.703 17.187L14.0344 15.1334H14.0337Z" fill="#34A853"/>
<path id="Vector_3" d="M16.704 17.1888C18.2482 15.7808 19.2508 13.6852 19.2508 11.0011C19.2508 10.513 19.1741 9.98843 19.0594 9.50098H11.1924V12.689H15.7204C15.4974 13.7609 14.8972 14.5907 14.0354 15.1352L16.704 17.1888Z" fill="#4A90E2"/>
<path id="Vector_4" d="M6.46269 12.5598C6.29057 12.0572 6.20313 11.5305 6.20378 11.0005C6.20378 10.4629 6.29173 9.94653 6.45495 9.46389L3.62248 7.32227C3.04302 8.4654 2.74432 9.72482 2.75008 11.0005C2.75008 12.3205 3.06316 13.565 3.62037 14.6684L6.46269 12.5598Z" fill="#FBBC05"/>
</g>
</g>
</svg>
