<svg width="28" height="26" viewBox="0 0 28 26" fill="none" xmlns="http://www.w3.org/2000/svg">
<path d="M4.66667 6.49935L14.2667 12.9993L23.3333 6.49935M24.5 8.88263V17.116C24.5 18.3294 24.5003 18.9362 24.2459 19.3997C24.0222 19.8074 23.6648 20.1388 23.2258 20.3465C22.7266 20.5826 22.0737 20.5827 20.7669 20.5827H7.23356C5.92677 20.5827 5.27289 20.5826 4.77376 20.3465C4.33472 20.1388 3.97802 19.8074 3.75432 19.3997C3.5 18.9362 3.5 18.3294 3.5 17.116V8.88263C3.5 7.66918 3.5 7.06254 3.75432 6.59906C3.97802 6.19138 4.33472 5.85989 4.77376 5.65217C5.27289 5.41602 5.92677 5.41602 7.23356 5.41602H20.7669C22.0737 5.41602 22.7266 5.41602 23.2258 5.65217C23.6648 5.85989 24.0222 6.19138 24.2459 6.59906C24.5003 7.06254 24.5 7.66918 24.5 8.88263Z" stroke="white" stroke-width="2" stroke-linecap="round" stroke-linejoin="round"/>
</svg>
