<svg width="26" height="26" viewBox="0 0 26 26" fill="none" xmlns="http://www.w3.org/2000/svg">
<g id="Communication / Mail">
<path id="Vector" d="M4.33382 6.49959L13.2481 12.9996L21.6671 6.49959M22.7505 8.88287V17.1162C22.7505 18.3297 22.7507 18.9365 22.5146 19.4C22.3068 19.8076 21.9749 20.139 21.5673 20.3467C21.1038 20.5829 20.4975 20.5829 19.284 20.5829H6.71737C5.50392 20.5829 4.89674 20.5829 4.43327 20.3467C4.02558 20.139 3.69437 19.8076 3.48664 19.4C3.25049 18.9365 3.25049 18.3297 3.25049 17.1162V8.88287C3.25049 7.66943 3.25049 7.06278 3.48664 6.5993C3.69437 6.19162 4.02558 5.86014 4.43327 5.65241C4.89674 5.41626 5.50392 5.41626 6.71737 5.41626H19.284C20.4975 5.41626 21.1038 5.41626 21.5673 5.65241C21.9749 5.86014 22.3068 6.19162 22.5146 6.5993C22.7507 7.06278 22.7505 7.66943 22.7505 8.88287Z" stroke="white" stroke-width="2" stroke-linecap="round" stroke-linejoin="round"/>
</g>
</svg>
