<svg width="38" height="43" viewBox="0 0 38 43" fill="none" xmlns="http://www.w3.org/2000/svg">
<path d="M10.2499 26.2502C10.2499 22.1081 13.6078 18.7502 17.7499 18.7502M10.2499 26.2502C10.2499 28.3107 11.0808 30.1771 12.4258 31.5327C12.5556 31.6634 12.6204 31.7288 12.6587 31.7916C12.6952 31.8516 12.7165 31.9032 12.7328 31.9715C12.7499 32.0431 12.7499 32.1246 12.7499 32.2875V35.2502C12.7499 35.6002 12.7499 35.7753 12.818 35.909C12.878 36.0266 12.9736 36.1222 13.0912 36.1821C13.2249 36.2502 13.3999 36.2502 13.7499 36.2502H16.1249C16.4749 36.2502 16.65 36.2502 16.7837 36.1821C16.9013 36.1222 16.9969 36.0266 17.0568 35.909C17.1249 35.7753 17.1249 35.6002 17.1249 35.2502V34.7502C17.1249 34.4002 17.1249 34.2252 17.193 34.0915C17.253 33.9739 17.3486 33.8783 17.4662 33.8183C17.5999 33.7502 17.7749 33.7502 18.1249 33.7502H19.8749C20.2249 33.7502 20.4 33.7502 20.5337 33.8183C20.6513 33.8783 20.7469 33.9739 20.8068 34.0915C20.8749 34.2252 20.8749 34.4002 20.8749 34.7502V35.2502C20.8749 35.6002 20.8749 35.7753 20.943 35.909C21.003 36.0266 21.0986 36.1222 21.2162 36.1821C21.3499 36.2502 21.5249 36.2502 21.8749 36.2502H24.25C24.6 36.2502 24.775 36.2502 24.9087 36.1821C25.0263 36.1222 25.122 36.0266 25.1819 35.909C25.25 35.7753 25.25 35.6002 25.25 35.2502V34.0306C25.25 33.778 25.25 33.6518 25.286 33.5504C25.3204 33.4532 25.3638 33.3852 25.4375 33.313C25.5143 33.2377 25.6444 33.1773 25.9046 33.0565C27.1324 32.4865 28.1801 31.594 28.9389 30.4879C29.0723 30.2934 29.1391 30.1962 29.2103 30.1387C29.2784 30.0838 29.3396 30.0516 29.4234 30.0265C29.5111 30.0002 29.6152 30.0002 29.8234 30.0002H30.5C30.85 30.0002 31.0251 30.0002 31.1587 29.9321C31.2763 29.8722 31.372 29.7766 31.4319 29.659C31.5 29.5253 31.5 29.3502 31.5 29.0002V24.7324C31.5 24.3992 31.5 24.2325 31.4381 24.104C31.3767 23.9765 31.2738 23.8736 31.1462 23.8121C31.0177 23.7502 30.8511 23.7502 30.5178 23.7502C30.2766 23.7502 30.156 23.7502 30.0589 23.7175C29.9541 23.6822 29.8807 23.6352 29.8047 23.5549C29.7342 23.4805 29.6767 23.356 29.5616 23.1071C29.1922 22.308 28.6864 21.5849 28.0741 20.9678C27.9444 20.837 27.8795 20.7717 27.8412 20.7088C27.8047 20.6488 27.7834 20.5972 27.7671 20.5289C27.75 20.4573 27.75 20.3758 27.75 20.2129V18.8259C27.75 18.3759 27.75 18.1509 27.6563 17.9996C27.5742 17.8671 27.4455 17.7701 27.2956 17.7275C27.1244 17.679 26.908 17.7408 26.4753 17.8644L23.5096 18.7117C23.4592 18.7261 23.434 18.7333 23.4084 18.7384C23.3856 18.7429 23.3626 18.7461 23.3395 18.748C23.3135 18.7502 23.2871 18.7502 23.2342 18.7502H17.7499M10.2499 26.2502H9C7.61929 26.2502 6.5 25.1309 6.5 23.7502C6.5 22.8249 7.00275 22.0169 7.75 21.5847M17.7499 18.7502H22.7057M17.7499 18.7502C16.4893 18.7502 15.3014 19.0612 14.2586 19.6107" stroke="white" stroke-width="2" stroke-linecap="round" stroke-linejoin="round"/>
<circle cx="17.5" cy="9.5" r="3.5" stroke="white" stroke-width="2"/>
<circle cx="21.5" cy="10.5" r="3.5" fill="#151515" stroke="white" stroke-width="2"/>
</svg>
