<svg width="30" height="30" viewBox="0 0 30 30" fill="none" xmlns="http://www.w3.org/2000/svg">
<g clip-path="url(#clip0_4687_4646)">
<path d="M0 10.0625C0 6.50318 0 4.72352 0.703666 3.36891C1.29664 2.22739 2.22739 1.29664 3.36891 0.703666C4.72352 0 6.50318 0 10.0625 0H19.9375C23.4968 0 25.2765 0 26.6311 0.703666C27.7726 1.29664 28.7034 2.22739 29.2963 3.36891C30 4.72352 30 6.50318 30 10.0625V19.9375C30 23.4968 30 25.2765 29.2963 26.6311C28.7034 27.7726 27.7726 28.7034 26.6311 29.2963C25.2765 30 23.4968 30 19.9375 30H10.0625C6.50318 30 4.72352 30 3.36891 29.2963C2.22739 28.7034 1.29664 27.7726 0.703666 26.6311C0 25.2765 0 23.4968 0 19.9375V10.0625Z" fill="#363636"/>
<path d="M21.9198 8.08873L7.74694 13.5552C6.77962 13.9433 6.78535 14.4829 7.57062 14.7234L11.1054 15.8267L12.4578 19.9733C12.6223 20.4271 12.5412 20.6071 13.0178 20.6071C13.3856 20.6071 13.5487 20.4395 13.7536 20.2393C13.8838 20.1119 14.6573 19.3599 15.5209 18.5203L19.1977 21.2369C19.8742 21.6101 20.3628 21.4168 20.5312 20.6085L22.9448 9.235C23.1919 8.24431 22.5671 7.79494 21.9198 8.08873ZM11.6601 15.5732L19.6274 10.5466C20.0252 10.3054 20.3899 10.4351 20.0904 10.7008L13.2683 16.8561L13.0027 19.6893L11.6601 15.5732Z" fill="white"/>
</g>
<defs>
<clipPath id="clip0_4687_4646">
<rect width="30" height="30" fill="white"/>
</clipPath>
</defs>
</svg>
