<svg width="27" height="26" viewBox="0 0 27 26" fill="none" xmlns="http://www.w3.org/2000/svg">
<g id="Frame 9664">
<path id="Vector" d="M22.943 6.42866C22.2272 6.77452 21.458 7.00827 20.6506 7.11343C21.4748 6.57522 22.1075 5.72293 22.4055 4.70745C21.6221 5.21402 20.7649 5.57093 19.8711 5.76276C19.1431 4.9176 18.1059 4.3894 16.9579 4.3894C14.7537 4.3894 12.9666 6.33658 12.9666 8.73818C12.9666 9.07907 13.0019 9.41094 13.0699 9.72932C9.7529 9.5479 6.81205 7.81659 4.8435 5.18546C4.50002 5.82776 4.3032 6.57489 4.3032 7.37177C4.3032 8.8806 5.00787 10.2116 6.07873 10.9916C5.44493 10.9699 4.82507 10.7834 4.2709 10.4475C4.27067 10.4658 4.27067 10.484 4.27067 10.5023C4.27067 12.6093 5.64642 14.3671 7.47218 14.7666C6.88446 14.9408 6.26797 14.9662 5.66982 14.8411C6.17767 16.5689 7.65167 17.8261 9.3981 17.8613C8.03216 19.0277 6.31119 19.723 4.44135 19.723C4.11915 19.723 3.80151 19.7023 3.48926 19.6622C5.25552 20.8961 7.35341 21.6161 9.60731 21.6161C16.9486 21.6161 20.963 14.9893 20.963 9.24252C20.963 9.0539 20.9592 8.86635 20.9514 8.67988C21.7328 8.0644 22.4072 7.30207 22.943 6.42866Z" fill="#55ACEE"/>
</g>
</svg>
