<svg width="30" height="30" viewBox="0 0 30 30" fill="none" xmlns="http://www.w3.org/2000/svg">
<g clip-path="url(#clip0_4687_4631)">
<path d="M0 10.0625C0 6.50318 0 4.72352 0.703666 3.36891C1.29664 2.22739 2.22739 1.29664 3.36891 0.703666C4.72352 0 6.50318 0 10.0625 0H19.9375C23.4968 0 25.2765 0 26.6311 0.703666C27.7726 1.29664 28.7034 2.22739 29.2963 3.36891C30 4.72352 30 6.50318 30 10.0625V19.9375C30 23.4968 30 25.2765 29.2963 26.6311C28.7034 27.7726 27.7726 28.7034 26.6311 29.2963C25.2765 30 23.4968 30 19.9375 30H10.0625C6.50318 30 4.72352 30 3.36891 29.2963C2.22739 28.7034 1.29664 27.7726 0.703666 26.6311C0 25.2765 0 23.4968 0 19.9375V10.0625Z" fill="#363636"/>
<path d="M23 9.67721C22.4113 9.96167 21.7786 10.1539 21.1146 10.2404C21.7924 9.79775 22.3129 9.09678 22.5579 8.26158C21.9136 8.67822 21.2086 8.97176 20.4735 9.12954C19.8747 8.43442 19.0216 8 18.0774 8C16.2646 8 14.7948 9.60148 14.7948 11.5767C14.7948 11.8571 14.8238 12.13 14.8797 12.3919C12.1516 12.2427 9.73287 10.8187 8.11381 8.65473C7.83131 9.183 7.66944 9.79748 7.66944 10.4529C7.66944 11.6938 8.249 12.7886 9.12975 13.43C8.60847 13.4122 8.09866 13.2588 7.64288 12.9826C7.64269 12.9976 7.64269 13.0126 7.64269 13.0276C7.64269 14.7606 8.77419 16.2063 10.2758 16.5349C9.79243 16.6781 9.28539 16.6991 8.79344 16.5962C9.21112 18.0172 10.4234 19.0512 11.8598 19.0802C10.7364 20.0395 9.32094 20.6113 7.78306 20.6113C7.51806 20.6113 7.25681 20.5943 7 20.5613C8.45269 21.5762 10.1781 22.1683 12.0319 22.1683C18.0698 22.1683 21.3715 16.7181 21.3715 11.9915C21.3715 11.8364 21.3684 11.6821 21.362 11.5288C22.0046 11.0226 22.5593 10.3956 23 9.67721Z" fill="white"/>
</g>
<defs>
<clipPath id="clip0_4687_4631">
<rect width="30" height="30" fill="white"/>
</clipPath>
</defs>
</svg>
