<svg width="32" height="32" viewBox="0 0 32 32" fill="none" xmlns="http://www.w3.org/2000/svg">
<g id="Frame 9664">
<path id="Vector" d="M28.0007 7.85889C27.1176 8.2872 26.1686 8.57668 25.1726 8.7069C26.1894 8.04039 26.97 6.98493 27.3376 5.72736C26.3711 6.35469 25.3136 6.79669 24.211 7.03425C23.3127 5.98761 22.0331 5.3335 20.6169 5.3335C17.8975 5.3335 15.6928 7.74486 15.6928 10.719C15.6928 11.1411 15.7364 11.5521 15.8203 11.9464C11.7281 11.7217 8.10001 9.57769 5.67142 6.31933C5.24767 7.11474 5.00486 8.03997 5.00486 9.02683C5.00486 10.8953 5.8742 12.5437 7.19533 13.5095C6.4134 13.4827 5.64869 13.2518 4.96501 12.8358C4.96473 12.8584 4.96473 12.881 4.96473 12.9036C4.96473 15.513 6.66198 17.6897 8.91442 18.1845C8.18935 18.4002 7.42879 18.4318 6.69086 18.2768C7.31739 20.4164 9.13586 21.9734 11.2904 22.017C9.60526 23.4614 7.48211 24.3224 5.1753 24.3224C4.7778 24.3224 4.38592 24.2969 4.0007 24.2472C6.17973 25.7752 8.76789 26.6668 11.5485 26.6668C20.6054 26.6668 25.558 18.4603 25.558 11.3436C25.558 11.11 25.5533 10.8777 25.5437 10.6468C26.5077 9.88458 27.3397 8.94051 28.0007 7.85889Z" fill="#55ACEE"/>
</g>
</svg>
