<svg width="32" height="32" viewBox="0 0 32 32" fill="none" xmlns="http://www.w3.org/2000/svg">
<path d="M28.001 7.85937C27.1178 8.28769 26.1689 8.57717 25.1729 8.70739C26.1896 8.04087 26.9703 6.98541 27.3379 5.72785C26.3714 6.35518 25.3139 6.79718 24.2112 7.03474C23.313 5.9881 22.0334 5.33398 20.6171 5.33398C17.8978 5.33398 15.6931 7.74535 15.6931 10.7195C15.6931 11.1416 15.7367 11.5526 15.8206 11.9469C11.7284 11.7222 8.10029 9.57817 5.6717 6.31982C5.24795 7.11523 5.00513 8.04046 5.00513 9.02732C5.00513 10.8958 5.87448 12.5442 7.1956 13.51C6.41368 13.4832 5.64896 13.2522 4.96529 12.8363C4.96501 12.8589 4.96501 12.8814 4.96501 12.9041C4.96501 15.5135 6.66226 17.6902 8.91469 18.185C8.18962 18.4007 7.42907 18.4322 6.69113 18.2773C7.31766 20.4169 9.13613 21.9739 11.2907 22.0175C9.60554 23.4619 7.48238 24.3229 5.17557 24.3229C4.77807 24.3229 4.3862 24.2974 4.00098 24.2476C6.18001 25.7757 8.76816 26.6673 11.5488 26.6673C20.6057 26.6673 25.5582 18.4608 25.5582 11.344C25.5582 11.1105 25.5535 10.8782 25.544 10.6473C26.5079 9.88507 27.34 8.941 28.001 7.85937Z" fill="#55ACEE"/>
</svg>
