<svg width="30" height="30" viewBox="0 0 30 30" fill="none" xmlns="http://www.w3.org/2000/svg">
<path d="M18.75 23.75C18.75 20.9886 15.3921 18.75 11.25 18.75C7.10786 18.75 3.75 20.9886 3.75 23.75M21.0352 6.46454C21.4994 6.92883 21.8677 7.48003 22.119 8.08666C22.3703 8.69328 22.4997 9.34336 22.4997 9.99997C22.4997 10.6566 22.3704 11.3068 22.1191 11.9134C21.8679 12.52 21.4994 13.0713 21.0352 13.5356M23.75 3.75C24.5708 4.57076 25.2218 5.54515 25.666 6.61752C26.1102 7.6899 26.3387 8.83917 26.3387 9.99991C26.3387 11.1606 26.1101 12.3101 25.6659 13.3825C25.2217 14.4548 24.5708 15.4293 23.75 16.2501M11.25 15C8.48858 15 6.25 12.7614 6.25 10C6.25 7.23858 8.48858 5 11.25 5C14.0114 5 16.25 7.23858 16.25 10C16.25 12.7614 14.0114 15 11.25 15Z" stroke="#D8D8D8" stroke-width="2" stroke-linecap="round" stroke-linejoin="round"/>
</svg>
