<svg width="30" height="30" viewBox="0 0 30 30" fill="none" xmlns="http://www.w3.org/2000/svg">
<path d="M27.5 10.625H2.5M2.5 15.625H6.93335C7.60858 15.625 7.9462 15.625 8.27267 15.6832C8.56244 15.7348 8.84513 15.8204 9.11488 15.9382C9.4188 16.0709 9.69972 16.2581 10.2615 16.6327L10.9885 17.1173C11.5503 17.4919 11.8312 17.6791 12.1351 17.8118C12.4049 17.9296 12.6876 18.0152 12.9773 18.0668C13.3038 18.125 13.6414 18.125 14.3167 18.125H15.6833C16.3586 18.125 16.6962 18.125 17.0227 18.0668C17.3124 18.0152 17.5951 17.9296 17.8649 17.8118C18.1688 17.6791 18.4497 17.4919 19.0115 17.1173L19.7385 16.6327C20.3003 16.2581 20.5812 16.0709 20.8851 15.9382C21.1549 15.8204 21.4376 15.7348 21.7273 15.6832C22.0538 15.625 22.3914 15.625 23.0667 15.625H27.5M2.5 9L2.5 21C2.5 22.4001 2.5 23.1002 2.77248 23.635C3.01217 24.1054 3.39462 24.4878 3.86502 24.7275C4.3998 25 5.09987 25 6.5 25L23.5 25C24.9001 25 25.6002 25 26.135 24.7275C26.6054 24.4878 26.9878 24.1054 27.2275 23.635C27.5 23.1002 27.5 22.4001 27.5 21V9C27.5 7.59987 27.5 6.89981 27.2275 6.36503C26.9878 5.89462 26.6054 5.51217 26.135 5.27249C25.6002 5 24.9001 5 23.5 5L6.5 5C5.09987 5 4.3998 5 3.86502 5.27248C3.39462 5.51217 3.01217 5.89462 2.77248 6.36502C2.5 6.8998 2.5 7.59987 2.5 9Z" stroke="white" stroke-width="2" stroke-linecap="round" stroke-linejoin="round"/>
</svg>
