<svg width="24" height="24" viewBox="0 0 24 24" fill="none" xmlns="http://www.w3.org/2000/svg">
<path d="M17 13C17.9319 13 18.3978 13 18.7654 12.9144C19.2554 12.8002 19.6448 12.581 19.8478 12.3054C20 12.0986 20 11.8367 20 11.3125L20 5.8C20 5.16994 20 4.85502 19.782 4.61437C19.5902 4.40269 19.2844 4.23035 18.908 4.1225C18.4802 3.99988 17.9201 4 16.8 4L7.19995 4C6.07985 4 5.51986 3.99988 5.09204 4.1225C4.71572 4.23035 4.40973 4.40269 4.21799 4.61437C4 4.85502 4 5.16994 4 5.8L4 11.3125C4 11.8367 4 12.0986 4.15224 12.3054C4.35523 12.581 4.74456 12.8002 5.23462 12.9144C5.60216 13 6.0681 13 6.99999 13" stroke="white" stroke-width="2" stroke-linecap="round" stroke-linejoin="round"/>
<path d="M12 9L12 20M12 20L15.5 16.5M12 20L8.5 16.5" stroke="white" stroke-width="2" stroke-linecap="round" stroke-linejoin="round"/>
</svg>
