<svg width="104" height="49" viewBox="0 0 104 49" fill="none" xmlns="http://www.w3.org/2000/svg">
<path d="M3 7C11.7979 22.0734 11.5049 20.1478 21.5009 33.9262C22.0654 34.7043 28.1086 42.6701 28.1086 41.9546C28.1086 35.891 22.8742 30.5811 22.3766 25.0057C21.8458 19.0583 25.6319 36.59 28.8251 41.0625C29.9794 42.6793 25.0678 39.6199 24.3669 39.2785C20.1815 37.2395 16.0546 37.4944 11.6291 37.4944" stroke="#FD7132" stroke-width="5" stroke-linecap="round"/>
<path d="M101 7C92.2021 22.0734 92.4951 20.1478 82.4991 33.9262C81.9346 34.7043 75.8914 42.6701 75.8914 41.9546C75.8914 35.891 81.1258 30.5811 81.6234 25.0057C82.1542 19.0583 78.3681 36.59 75.1749 41.0625C74.0206 42.6793 78.9322 39.6199 79.6331 39.2785C83.8185 37.2395 87.9454 37.4944 92.3709 37.4944" stroke="#FD7132" stroke-width="5" stroke-linecap="round"/>
<path d="M52 3C50.2442 20.3646 51.1404 18.6351 51.1154 35.6576C51.114 36.619 51.3131 46.6157 51.7342 46.0371C55.302 41.1344 56.8356 37.5348 59.7139 32.734C62.7842 27.6128 52.8882 40.2422 52.8384 45.7375C52.8204 47.7239 50.6492 42.3602 50.2834 41.6716C48.0991 37.5603 44.6122 35.338 41.0339 32.734" stroke="#FD7132" stroke-width="5" stroke-linecap="round"/>
</svg>
