<svg width="250" height="326" viewBox="0 0 250 326" fill="none" xmlns="http://www.w3.org/2000/svg">
<rect x="-0.5" y="0.5" width="249" height="325" rx="8.73513" transform="matrix(-1 0 0 1 249 0)" fill="#131313"/>
<path d="M35.5666 248.102H36.7846V256.894H42.2166V258H35.5666V248.102ZM46.7104 250.538C47.2984 250.538 47.8071 250.631 48.2364 250.818C48.6657 251.005 49.0251 251.266 49.3144 251.602C49.6131 251.938 49.8324 252.339 49.9724 252.806C50.1217 253.263 50.1964 253.767 50.1964 254.318C50.1964 254.869 50.1217 255.377 49.9724 255.844C49.8324 256.301 49.6131 256.698 49.3144 257.034C49.0251 257.361 48.6611 257.617 48.2224 257.804C47.7837 257.991 47.2704 258.084 46.6824 258.084C46.0944 258.084 45.5811 257.991 45.1424 257.804C44.7131 257.617 44.3491 257.361 44.0504 257.034C43.7611 256.698 43.5417 256.301 43.3924 255.844C43.2524 255.377 43.1824 254.869 43.1824 254.318C43.1824 253.767 43.2524 253.263 43.3924 252.806C43.5417 252.339 43.7611 251.938 44.0504 251.602C44.3491 251.266 44.7224 251.005 45.1704 250.818C45.6184 250.631 46.1317 250.538 46.7104 250.538ZM46.6824 257.034C47.0837 257.034 47.4291 256.964 47.7184 256.824C48.0171 256.684 48.2597 256.493 48.4464 256.25C48.6424 255.998 48.7824 255.709 48.8664 255.382C48.9597 255.055 49.0064 254.701 49.0064 254.318C49.0064 253.945 48.9597 253.595 48.8664 253.268C48.7824 252.932 48.6424 252.643 48.4464 252.4C48.2597 252.148 48.0171 251.952 47.7184 251.812C47.4291 251.672 47.0837 251.602 46.6824 251.602C46.2811 251.602 45.9357 251.672 45.6464 251.812C45.3571 251.952 45.1144 252.148 44.9184 252.4C44.7317 252.643 44.5917 252.932 44.4984 253.268C44.4144 253.595 44.3724 253.945 44.3724 254.318C44.3724 254.701 44.4144 255.055 44.4984 255.382C44.5917 255.709 44.7317 255.998 44.9184 256.25C45.1144 256.493 45.3571 256.684 45.6464 256.824C45.9357 256.964 46.2811 257.034 46.6824 257.034ZM58.3686 257.944C58.3686 258.989 58.0886 259.811 57.5286 260.408C56.9686 261.005 56.1239 261.304 54.9946 261.304C54.6213 261.304 54.2619 261.262 53.9166 261.178C53.5806 261.094 53.2726 260.959 52.9926 260.772C52.7219 260.595 52.4886 260.366 52.2926 260.086C52.1059 259.815 51.9753 259.489 51.9006 259.106H53.1326C53.1886 259.321 53.2819 259.498 53.4126 259.638C53.5526 259.787 53.7113 259.904 53.8886 259.988C54.0659 260.081 54.2573 260.147 54.4626 260.184C54.6679 260.221 54.8686 260.24 55.0646 260.24C55.4379 260.24 55.7599 260.179 56.0306 260.058C56.3013 259.946 56.5206 259.787 56.6886 259.582C56.8566 259.377 56.9779 259.129 57.0526 258.84C57.1366 258.56 57.1786 258.252 57.1786 257.916V256.894C56.9359 257.323 56.5906 257.631 56.1426 257.818C55.6946 257.995 55.2279 258.084 54.7426 258.084C54.1826 258.075 53.6973 257.977 53.2866 257.79C52.8759 257.594 52.5399 257.328 52.2786 256.992C52.0173 256.656 51.8213 256.264 51.6906 255.816C51.5693 255.359 51.5086 254.864 51.5086 254.332C51.5086 253.8 51.5739 253.305 51.7046 252.848C51.8353 252.381 52.0359 251.98 52.3066 251.644C52.5773 251.299 52.9179 251.028 53.3286 250.832C53.7393 250.636 54.2293 250.538 54.7986 250.538C55.2279 250.538 55.6619 250.617 56.1006 250.776C56.5393 250.935 56.8986 251.191 57.1786 251.546L57.2346 250.622H58.3686V257.944ZM54.8966 251.602C54.4953 251.602 54.1546 251.677 53.8746 251.826C53.5946 251.966 53.3659 252.157 53.1886 252.4C53.0206 252.643 52.8946 252.932 52.8106 253.268C52.7359 253.595 52.6986 253.945 52.6986 254.318C52.6986 254.729 52.7359 255.093 52.8106 255.41C52.8853 255.718 53.0113 255.993 53.1886 256.236C53.3659 256.479 53.5946 256.675 53.8746 256.824C54.1546 256.964 54.4999 257.034 54.9106 257.034C55.3866 257.034 55.7786 256.922 56.0866 256.698C56.3946 256.474 56.6419 256.194 56.8286 255.858C56.9593 255.625 57.0526 255.373 57.1086 255.102C57.1646 254.822 57.1926 254.547 57.1926 254.276C57.1926 253.94 57.1599 253.632 57.0946 253.352C57.0386 253.072 56.9313 252.811 56.7726 252.568C56.5859 252.297 56.3386 252.069 56.0306 251.882C55.7226 251.695 55.3446 251.602 54.8966 251.602ZM60.9238 247.92C61.1478 247.92 61.3391 247.995 61.4978 248.144C61.6565 248.284 61.7358 248.471 61.7358 248.704C61.7358 248.937 61.6565 249.129 61.4978 249.278C61.3391 249.427 61.1478 249.502 60.9238 249.502C60.6905 249.502 60.4991 249.427 60.3498 249.278C60.2005 249.129 60.1258 248.937 60.1258 248.704C60.1258 248.471 60.2005 248.284 60.3498 248.144C60.4991 247.995 60.6905 247.92 60.9238 247.92ZM60.3358 258V250.622H61.5258V258H60.3358ZM63.5054 258V250.622H64.6534L64.7094 251.742C64.8307 251.537 64.98 251.359 65.1574 251.21C65.344 251.061 65.5447 250.935 65.7594 250.832C65.974 250.729 66.198 250.655 66.4314 250.608C66.674 250.561 66.9074 250.538 67.1314 250.538C67.6634 250.538 68.1114 250.627 68.4754 250.804C68.8394 250.972 69.1287 251.21 69.3434 251.518C69.558 251.817 69.712 252.176 69.8054 252.596C69.8987 253.007 69.9454 253.45 69.9454 253.926V258H68.7554V254.248C68.7554 253.903 68.732 253.571 68.6854 253.254C68.648 252.937 68.564 252.657 68.4334 252.414C68.312 252.162 68.1347 251.961 67.9014 251.812C67.668 251.663 67.3554 251.588 66.9634 251.588C66.5807 251.597 66.24 251.691 65.9414 251.868C65.652 252.045 65.4187 252.255 65.2414 252.498C65.0267 252.806 64.882 253.147 64.8074 253.52C64.7327 253.884 64.6954 254.253 64.6954 254.626V258H63.5054ZM74.7803 250.622H76.1243L77.8883 256.852L79.7083 250.622H81.3183L83.1523 256.852L84.8883 250.622H86.2463L83.9503 258H82.3263L80.5063 252.022L78.6863 258H77.0763L74.7803 250.622ZM88.0351 247.92C88.2591 247.92 88.4505 247.995 88.6091 248.144C88.7678 248.284 88.8471 248.471 88.8471 248.704C88.8471 248.937 88.7678 249.129 88.6091 249.278C88.4505 249.427 88.2591 249.502 88.0351 249.502C87.8018 249.502 87.6105 249.427 87.4611 249.278C87.3118 249.129 87.2371 248.937 87.2371 248.704C87.2371 248.471 87.3118 248.284 87.4611 248.144C87.6105 247.995 87.8018 247.92 88.0351 247.92ZM87.4471 258V250.622H88.6371V258H87.4471ZM92.4787 250.622H94.4527V251.672H92.4787V255.494C92.4787 255.998 92.5767 256.371 92.7727 256.614C92.9687 256.847 93.3327 256.964 93.8647 256.964H94.4107V258H93.6127C92.7727 258 92.1754 257.809 91.8207 257.426C91.466 257.043 91.2887 256.441 91.2887 255.62V251.672H90.0847V250.622H91.2887V248.424H92.4787V250.622ZM95.7984 258V248.102H96.9884V251.756C97.1097 251.569 97.2637 251.397 97.4504 251.238C97.637 251.079 97.833 250.949 98.0384 250.846C98.2437 250.743 98.4677 250.669 98.7104 250.622C98.9624 250.566 99.205 250.538 99.4384 250.538C99.9704 250.538 100.414 250.627 100.768 250.804C101.132 250.972 101.422 251.21 101.636 251.518C101.86 251.817 102.014 252.176 102.098 252.596C102.192 253.007 102.238 253.455 102.238 253.94V258H101.048V254.304C101.048 253.968 101.03 253.641 100.992 253.324C100.955 252.997 100.871 252.708 100.74 252.456C100.61 252.204 100.423 251.999 100.18 251.84C99.9377 251.672 99.6064 251.588 99.1864 251.588C98.841 251.588 98.519 251.677 98.2204 251.854C97.931 252.022 97.6977 252.237 97.5204 252.498C97.3057 252.787 97.161 253.109 97.0864 253.464C97.021 253.819 96.9884 254.183 96.9884 254.556V258H95.7984ZM108.767 254.752C108.795 255.079 108.861 255.382 108.963 255.662C109.075 255.933 109.225 256.171 109.411 256.376C109.598 256.581 109.827 256.745 110.097 256.866C110.377 256.978 110.699 257.034 111.063 257.034C111.241 257.034 111.423 257.02 111.609 256.992C111.805 256.955 111.987 256.899 112.155 256.824C112.323 256.74 112.473 256.633 112.603 256.502C112.734 256.371 112.832 256.213 112.897 256.026H114.115C114.031 256.381 113.887 256.689 113.681 256.95C113.485 257.211 113.247 257.426 112.967 257.594C112.697 257.762 112.393 257.888 112.057 257.972C111.721 258.047 111.381 258.084 111.035 258.084C110.447 258.084 109.934 257.991 109.495 257.804C109.066 257.617 108.707 257.361 108.417 257.034C108.128 256.698 107.913 256.301 107.773 255.844C107.633 255.377 107.563 254.869 107.563 254.318C107.563 253.767 107.638 253.263 107.787 252.806C107.946 252.339 108.17 251.938 108.459 251.602C108.749 251.266 109.103 251.005 109.523 250.818C109.943 250.631 110.443 250.538 111.021 250.538C111.609 250.538 112.118 250.655 112.547 250.888C112.977 251.121 113.322 251.429 113.583 251.812C113.845 252.185 114.027 252.591 114.129 253.03C114.241 253.469 114.288 253.875 114.269 254.248C114.269 254.332 114.265 254.416 114.255 254.5C114.255 254.584 114.251 254.668 114.241 254.752H108.767ZM113.065 253.716C113.047 253.091 112.851 252.582 112.477 252.19C112.104 251.798 111.605 251.602 110.979 251.602C110.634 251.602 110.331 251.658 110.069 251.77C109.808 251.882 109.589 252.036 109.411 252.232C109.234 252.428 109.094 252.657 108.991 252.918C108.889 253.17 108.823 253.436 108.795 253.716H113.065ZM117.073 251.504C117.306 251.177 117.591 250.935 117.927 250.776C118.272 250.617 118.655 250.538 119.075 250.538C119.588 250.547 120.003 250.659 120.321 250.874C120.638 251.089 120.876 251.373 121.035 251.728C121.287 251.355 121.595 251.065 121.959 250.86C122.332 250.645 122.771 250.538 123.275 250.538C123.676 250.538 124.021 250.608 124.311 250.748C124.6 250.879 124.833 251.065 125.011 251.308C125.188 251.541 125.319 251.817 125.403 252.134C125.487 252.451 125.529 252.797 125.529 253.17V258H124.339V253.772C124.339 253.529 124.325 253.282 124.297 253.03C124.278 252.769 124.222 252.535 124.129 252.33C124.035 252.115 123.895 251.943 123.709 251.812C123.522 251.672 123.27 251.602 122.953 251.602C122.645 251.602 122.383 251.677 122.169 251.826C121.954 251.966 121.781 252.153 121.651 252.386C121.529 252.619 121.441 252.876 121.385 253.156C121.329 253.436 121.301 253.711 121.301 253.982V258H120.111V253.758C120.111 253.525 120.101 253.282 120.083 253.03C120.064 252.769 120.008 252.535 119.915 252.33C119.831 252.115 119.7 251.943 119.523 251.812C119.345 251.672 119.098 251.602 118.781 251.602C118.445 251.602 118.165 251.677 117.941 251.826C117.726 251.975 117.549 252.167 117.409 252.4C117.278 252.633 117.185 252.895 117.129 253.184C117.082 253.464 117.059 253.735 117.059 253.996V258H115.869V250.622H117.017L117.073 251.504ZM132.197 257.062C132.039 257.277 131.857 257.449 131.651 257.58C131.446 257.711 131.231 257.813 131.007 257.888C130.793 257.963 130.573 258.014 130.349 258.042C130.135 258.07 129.92 258.084 129.705 258.084C129.36 258.084 129.033 258.042 128.725 257.958C128.417 257.874 128.137 257.739 127.885 257.552C127.643 257.365 127.447 257.132 127.297 256.852C127.157 256.572 127.087 256.255 127.087 255.9C127.087 255.48 127.162 255.13 127.311 254.85C127.47 254.561 127.68 254.327 127.941 254.15C128.203 253.973 128.501 253.851 128.837 253.786C129.183 253.711 129.547 253.674 129.929 253.674H132.099C132.099 253.049 131.964 252.554 131.693 252.19C131.423 251.817 130.965 251.621 130.321 251.602C129.929 251.602 129.584 251.667 129.285 251.798C128.987 251.929 128.781 252.143 128.669 252.442H127.395C127.461 252.106 127.591 251.821 127.787 251.588C127.983 251.345 128.217 251.149 128.487 251C128.758 250.841 129.052 250.725 129.369 250.65C129.687 250.575 130.004 250.538 130.321 250.538C130.872 250.538 131.334 250.631 131.707 250.818C132.09 250.995 132.398 251.233 132.631 251.532C132.865 251.821 133.028 252.176 133.121 252.596C133.215 253.016 133.261 253.487 133.261 254.01V258H132.267L132.197 257.062ZM130.797 254.668C130.573 254.668 130.312 254.673 130.013 254.682C129.724 254.682 129.444 254.71 129.173 254.766C128.903 254.822 128.683 254.939 128.515 255.116C128.357 255.293 128.277 255.527 128.277 255.816C128.277 256.031 128.319 256.213 128.403 256.362C128.487 256.511 128.599 256.637 128.739 256.74C128.889 256.843 129.057 256.917 129.243 256.964C129.43 257.011 129.621 257.034 129.817 257.034C130.517 257.034 131.068 256.866 131.469 256.53C131.88 256.185 132.09 255.685 132.099 255.032V254.668H130.797ZM135.791 247.92C136.015 247.92 136.206 247.995 136.365 248.144C136.524 248.284 136.603 248.471 136.603 248.704C136.603 248.937 136.524 249.129 136.365 249.278C136.206 249.427 136.015 249.502 135.791 249.502C135.558 249.502 135.366 249.427 135.217 249.278C135.068 249.129 134.993 248.937 134.993 248.704C134.993 248.471 135.068 248.284 135.217 248.144C135.366 247.995 135.558 247.92 135.791 247.92ZM135.203 258V250.622H136.393V258H135.203ZM138.373 258V248.102H139.563V258H138.373ZM148.457 250.538C149.045 250.538 149.553 250.631 149.983 250.818C150.412 251.005 150.771 251.266 151.061 251.602C151.359 251.938 151.579 252.339 151.719 252.806C151.868 253.263 151.943 253.767 151.943 254.318C151.943 254.869 151.868 255.377 151.719 255.844C151.579 256.301 151.359 256.698 151.061 257.034C150.771 257.361 150.407 257.617 149.969 257.804C149.53 257.991 149.017 258.084 148.429 258.084C147.841 258.084 147.327 257.991 146.889 257.804C146.459 257.617 146.095 257.361 145.797 257.034C145.507 256.698 145.288 256.301 145.139 255.844C144.999 255.377 144.929 254.869 144.929 254.318C144.929 253.767 144.999 253.263 145.139 252.806C145.288 252.339 145.507 251.938 145.797 251.602C146.095 251.266 146.469 251.005 146.917 250.818C147.365 250.631 147.878 250.538 148.457 250.538ZM148.429 257.034C148.83 257.034 149.175 256.964 149.465 256.824C149.763 256.684 150.006 256.493 150.193 256.25C150.389 255.998 150.529 255.709 150.613 255.382C150.706 255.055 150.753 254.701 150.753 254.318C150.753 253.945 150.706 253.595 150.613 253.268C150.529 252.932 150.389 252.643 150.193 252.4C150.006 252.148 149.763 251.952 149.465 251.812C149.175 251.672 148.83 251.602 148.429 251.602C148.027 251.602 147.682 251.672 147.393 251.812C147.103 251.952 146.861 252.148 146.665 252.4C146.478 252.643 146.338 252.932 146.245 253.268C146.161 253.595 146.119 253.945 146.119 254.318C146.119 254.701 146.161 255.055 146.245 255.382C146.338 255.709 146.478 255.998 146.665 256.25C146.861 256.493 147.103 256.684 147.393 256.824C147.682 256.964 148.027 257.034 148.429 257.034ZM153.535 258V250.622H154.683L154.739 251.77C155.009 251.341 155.355 251.028 155.775 250.832C156.195 250.636 156.671 250.538 157.203 250.538H157.581V251.658H157.147C156.708 251.658 156.335 251.733 156.027 251.882C155.719 252.022 155.467 252.218 155.271 252.47C155.084 252.713 154.944 253.002 154.851 253.338C154.767 253.674 154.725 254.029 154.725 254.402V258H153.535ZM165.681 258.084C165.093 258.084 164.584 257.991 164.155 257.804C163.725 257.617 163.371 257.356 163.091 257.02C162.811 256.684 162.601 256.287 162.461 255.83C162.321 255.373 162.251 254.873 162.251 254.332C162.251 253.809 162.325 253.319 162.475 252.862C162.624 252.395 162.843 251.994 163.133 251.658C163.422 251.313 163.786 251.042 164.225 250.846C164.663 250.641 165.195 250.538 165.821 250.538C166.194 250.538 166.525 250.58 166.815 250.664C167.104 250.739 167.375 250.865 167.627 251.042C167.888 251.21 168.112 251.434 168.299 251.714C168.485 251.994 168.621 252.335 168.705 252.736H167.487C167.347 252.325 167.123 252.031 166.815 251.854C166.516 251.677 166.161 251.593 165.751 251.602C165.349 251.602 164.995 251.681 164.687 251.84C164.388 251.989 164.145 252.19 163.959 252.442C163.781 252.694 163.651 252.988 163.567 253.324C163.483 253.651 163.441 253.987 163.441 254.332C163.441 254.696 163.483 255.041 163.567 255.368C163.66 255.695 163.795 255.984 163.973 256.236C164.159 256.479 164.397 256.675 164.687 256.824C164.976 256.964 165.321 257.034 165.723 257.034C165.919 257.034 166.11 257.015 166.297 256.978C166.493 256.941 166.67 256.88 166.829 256.796C166.997 256.703 167.141 256.581 167.263 256.432C167.384 256.283 167.473 256.101 167.529 255.886H168.761C168.686 256.269 168.551 256.6 168.355 256.88C168.168 257.151 167.935 257.379 167.655 257.566C167.375 257.743 167.067 257.874 166.731 257.958C166.395 258.042 166.045 258.084 165.681 258.084ZM173.517 250.538C174.105 250.538 174.614 250.631 175.043 250.818C175.472 251.005 175.832 251.266 176.121 251.602C176.42 251.938 176.639 252.339 176.779 252.806C176.928 253.263 177.003 253.767 177.003 254.318C177.003 254.869 176.928 255.377 176.779 255.844C176.639 256.301 176.42 256.698 176.121 257.034C175.832 257.361 175.468 257.617 175.029 257.804C174.59 257.991 174.077 258.084 173.489 258.084C172.901 258.084 172.388 257.991 171.949 257.804C171.52 257.617 171.156 257.361 170.857 257.034C170.568 256.698 170.348 256.301 170.199 255.844C170.059 255.377 169.989 254.869 169.989 254.318C169.989 253.767 170.059 253.263 170.199 252.806C170.348 252.339 170.568 251.938 170.857 251.602C171.156 251.266 171.529 251.005 171.977 250.818C172.425 250.631 172.938 250.538 173.517 250.538ZM173.489 257.034C173.89 257.034 174.236 256.964 174.525 256.824C174.824 256.684 175.066 256.493 175.253 256.25C175.449 255.998 175.589 255.709 175.673 255.382C175.766 255.055 175.813 254.701 175.813 254.318C175.813 253.945 175.766 253.595 175.673 253.268C175.589 252.932 175.449 252.643 175.253 252.4C175.066 252.148 174.824 251.952 174.525 251.812C174.236 251.672 173.89 251.602 173.489 251.602C173.088 251.602 172.742 251.672 172.453 251.812C172.164 251.952 171.921 252.148 171.725 252.4C171.538 252.643 171.398 252.932 171.305 253.268C171.221 253.595 171.179 253.945 171.179 254.318C171.179 254.701 171.221 255.055 171.305 255.382C171.398 255.709 171.538 255.998 171.725 256.25C171.921 256.493 172.164 256.684 172.453 256.824C172.742 256.964 173.088 257.034 173.489 257.034ZM178.595 258V250.622H179.743L179.799 251.742C179.921 251.537 180.07 251.359 180.247 251.21C180.434 251.061 180.635 250.935 180.849 250.832C181.064 250.729 181.288 250.655 181.521 250.608C181.764 250.561 181.997 250.538 182.221 250.538C182.753 250.538 183.201 250.627 183.565 250.804C183.929 250.972 184.219 251.21 184.433 251.518C184.648 251.817 184.802 252.176 184.895 252.596C184.989 253.007 185.035 253.45 185.035 253.926V258H183.845V254.248C183.845 253.903 183.822 253.571 183.775 253.254C183.738 252.937 183.654 252.657 183.523 252.414C183.402 252.162 183.225 251.961 182.991 251.812C182.758 251.663 182.445 251.588 182.053 251.588C181.671 251.597 181.33 251.691 181.031 251.868C180.742 252.045 180.509 252.255 180.331 252.498C180.117 252.806 179.972 253.147 179.897 253.52C179.823 253.884 179.785 254.253 179.785 254.626V258H178.595ZM186.867 258V250.622H188.015L188.071 251.742C188.192 251.537 188.341 251.359 188.519 251.21C188.705 251.061 188.906 250.935 189.121 250.832C189.335 250.729 189.559 250.655 189.793 250.608C190.035 250.561 190.269 250.538 190.493 250.538C191.025 250.538 191.473 250.627 191.837 250.804C192.201 250.972 192.49 251.21 192.705 251.518C192.919 251.817 193.073 252.176 193.167 252.596C193.26 253.007 193.307 253.45 193.307 253.926V258H192.117V254.248C192.117 253.903 192.093 253.571 192.047 253.254C192.009 252.937 191.925 252.657 191.795 252.414C191.673 252.162 191.496 251.961 191.263 251.812C191.029 251.663 190.717 251.588 190.325 251.588C189.942 251.597 189.601 251.691 189.303 251.868C189.013 252.045 188.78 252.255 188.603 252.498C188.388 252.806 188.243 253.147 188.169 253.52C188.094 253.884 188.057 254.253 188.057 254.626V258H186.867ZM196.062 254.752C196.09 255.079 196.156 255.382 196.258 255.662C196.37 255.933 196.52 256.171 196.706 256.376C196.893 256.581 197.122 256.745 197.392 256.866C197.672 256.978 197.994 257.034 198.358 257.034C198.536 257.034 198.718 257.02 198.904 256.992C199.1 256.955 199.282 256.899 199.45 256.824C199.618 256.74 199.768 256.633 199.898 256.502C200.029 256.371 200.127 256.213 200.192 256.026H201.41C201.326 256.381 201.182 256.689 200.976 256.95C200.78 257.211 200.542 257.426 200.262 257.594C199.992 257.762 199.688 257.888 199.352 257.972C199.016 258.047 198.676 258.084 198.33 258.084C197.742 258.084 197.229 257.991 196.79 257.804C196.361 257.617 196.002 257.361 195.712 257.034C195.423 256.698 195.208 256.301 195.068 255.844C194.928 255.377 194.858 254.869 194.858 254.318C194.858 253.767 194.933 253.263 195.082 252.806C195.241 252.339 195.465 251.938 195.754 251.602C196.044 251.266 196.398 251.005 196.818 250.818C197.238 250.631 197.738 250.538 198.316 250.538C198.904 250.538 199.413 250.655 199.842 250.888C200.272 251.121 200.617 251.429 200.878 251.812C201.14 252.185 201.322 252.591 201.424 253.03C201.536 253.469 201.583 253.875 201.564 254.248C201.564 254.332 201.56 254.416 201.55 254.5C201.55 254.584 201.546 254.668 201.536 254.752H196.062ZM200.36 253.716C200.342 253.091 200.146 252.582 199.772 252.19C199.399 251.798 198.9 251.602 198.274 251.602C197.929 251.602 197.626 251.658 197.364 251.77C197.103 251.882 196.884 252.036 196.706 252.232C196.529 252.428 196.389 252.657 196.286 252.918C196.184 253.17 196.118 253.436 196.09 253.716H200.36ZM206.45 258.084C205.862 258.084 205.354 257.991 204.924 257.804C204.495 257.617 204.14 257.356 203.86 257.02C203.58 256.684 203.37 256.287 203.23 255.83C203.09 255.373 203.02 254.873 203.02 254.332C203.02 253.809 203.095 253.319 203.244 252.862C203.394 252.395 203.613 251.994 203.902 251.658C204.192 251.313 204.556 251.042 204.994 250.846C205.433 250.641 205.965 250.538 206.59 250.538C206.964 250.538 207.295 250.58 207.584 250.664C207.874 250.739 208.144 250.865 208.396 251.042C208.658 251.21 208.882 251.434 209.068 251.714C209.255 251.994 209.39 252.335 209.474 252.736H208.256C208.116 252.325 207.892 252.031 207.584 251.854C207.286 251.677 206.931 251.593 206.52 251.602C206.119 251.602 205.764 251.681 205.456 251.84C205.158 251.989 204.915 252.19 204.728 252.442C204.551 252.694 204.42 252.988 204.336 253.324C204.252 253.651 204.21 253.987 204.21 254.332C204.21 254.696 204.252 255.041 204.336 255.368C204.43 255.695 204.565 255.984 204.742 256.236C204.929 256.479 205.167 256.675 205.456 256.824C205.746 256.964 206.091 257.034 206.492 257.034C206.688 257.034 206.88 257.015 207.066 256.978C207.262 256.941 207.44 256.88 207.598 256.796C207.766 256.703 207.911 256.581 208.032 256.432C208.154 256.283 208.242 256.101 208.298 255.886H209.53C209.456 256.269 209.32 256.6 209.124 256.88C208.938 257.151 208.704 257.379 208.424 257.566C208.144 257.743 207.836 257.874 207.5 257.958C207.164 258.042 206.814 258.084 206.45 258.084ZM212.901 250.622H215.169V251.672H212.901V255.508C212.901 255.723 212.91 255.923 212.929 256.11C212.957 256.287 213.003 256.446 213.069 256.586C213.143 256.717 213.246 256.824 213.377 256.908C213.517 256.983 213.703 257.025 213.937 257.034C214.151 257.034 214.338 256.997 214.497 256.922C214.665 256.847 214.805 256.759 214.917 256.656L215.435 257.524C215.192 257.729 214.94 257.874 214.679 257.958C214.417 258.042 214.128 258.084 213.811 258.084C213.409 258.084 213.073 258.028 212.803 257.916C212.532 257.795 212.303 257.622 212.117 257.398C211.958 257.183 211.851 256.931 211.795 256.642C211.739 256.353 211.711 256.026 211.711 255.662V251.672H210.507V250.622H211.711V248.41H212.901V250.622ZM94.3233 271.622V279C94.3233 280.073 94.0433 280.89 93.4833 281.45C92.9233 282.019 92.1253 282.304 91.0893 282.304C90.464 282.295 89.8993 282.211 89.3953 282.052C88.9007 281.903 88.4433 281.632 88.0233 281.24L88.5413 280.302C88.9053 280.591 89.2927 280.82 89.7033 280.988C90.1233 281.156 90.562 281.24 91.0193 281.24C91.402 281.24 91.7287 281.179 91.9993 281.058C92.27 280.946 92.4893 280.783 92.6573 280.568C92.8347 280.363 92.9607 280.115 93.0353 279.826C93.1193 279.537 93.1613 279.224 93.1613 278.888V278.006C93.04 278.193 92.886 278.361 92.6993 278.51C92.522 278.65 92.326 278.767 92.1113 278.86C91.906 278.944 91.682 279.005 91.4393 279.042C91.206 279.089 90.968 279.112 90.7253 279.112C90.1653 279.103 89.6987 279.014 89.3253 278.846C88.9613 278.678 88.6673 278.445 88.4433 278.146C88.2287 277.847 88.0747 277.493 87.9813 277.082C87.888 276.662 87.8413 276.2 87.8413 275.696V271.622H89.0313V275.36C89.0313 275.696 89.05 276.027 89.0873 276.354C89.134 276.681 89.2227 276.97 89.3533 277.222C89.484 277.474 89.6753 277.679 89.9273 277.838C90.1793 277.987 90.5153 278.062 90.9353 278.062C91.3553 278.062 91.71 277.973 91.9993 277.796C92.298 277.619 92.5267 277.395 92.6853 277.124C92.8627 276.844 92.9793 276.536 93.0353 276.2C93.1007 275.864 93.1333 275.519 93.1333 275.164V271.622H94.3233ZM99.4428 271.538C100.031 271.538 100.54 271.631 100.969 271.818C101.398 272.005 101.758 272.266 102.047 272.602C102.346 272.938 102.565 273.339 102.705 273.806C102.854 274.263 102.929 274.767 102.929 275.318C102.929 275.869 102.854 276.377 102.705 276.844C102.565 277.301 102.346 277.698 102.047 278.034C101.758 278.361 101.394 278.617 100.955 278.804C100.516 278.991 100.003 279.084 99.4148 279.084C98.8268 279.084 98.3135 278.991 97.8748 278.804C97.4455 278.617 97.0815 278.361 96.7828 278.034C96.4935 277.698 96.2742 277.301 96.1248 276.844C95.9848 276.377 95.9148 275.869 95.9148 275.318C95.9148 274.767 95.9848 274.263 96.1248 273.806C96.2742 273.339 96.4935 272.938 96.7828 272.602C97.0815 272.266 97.4548 272.005 97.9028 271.818C98.3508 271.631 98.8642 271.538 99.4428 271.538ZM99.4148 278.034C99.8162 278.034 100.162 277.964 100.451 277.824C100.75 277.684 100.992 277.493 101.179 277.25C101.375 276.998 101.515 276.709 101.599 276.382C101.692 276.055 101.739 275.701 101.739 275.318C101.739 274.945 101.692 274.595 101.599 274.268C101.515 273.932 101.375 273.643 101.179 273.4C100.992 273.148 100.75 272.952 100.451 272.812C100.162 272.672 99.8162 272.602 99.4148 272.602C99.0135 272.602 98.6682 272.672 98.3788 272.812C98.0895 272.952 97.8468 273.148 97.6508 273.4C97.4642 273.643 97.3242 273.932 97.2308 274.268C97.1468 274.595 97.1048 274.945 97.1048 275.318C97.1048 275.701 97.1468 276.055 97.2308 276.382C97.3242 276.709 97.4642 276.998 97.6508 277.25C97.8468 277.493 98.0895 277.684 98.3788 277.824C98.6682 277.964 99.0135 278.034 99.4148 278.034ZM107.601 278.034C108.273 278.034 108.763 277.833 109.071 277.432C109.388 277.021 109.547 276.452 109.547 275.724V271.622H110.737V275.78C110.737 276.9 110.466 277.731 109.925 278.272C109.393 278.813 108.618 279.084 107.601 279.084C106.584 279.084 105.809 278.813 105.277 278.272C104.754 277.731 104.493 276.9 104.493 275.78V271.622H105.683V275.724C105.683 276.452 105.842 277.021 106.159 277.432C106.476 277.833 106.957 278.034 107.601 278.034ZM112.587 279V271.622H113.735L113.791 272.77C114.062 272.341 114.407 272.028 114.827 271.832C115.247 271.636 115.723 271.538 116.255 271.538H116.633V272.658H116.199C115.761 272.658 115.387 272.733 115.079 272.882C114.771 273.022 114.519 273.218 114.323 273.47C114.137 273.713 113.997 274.002 113.903 274.338C113.819 274.674 113.777 275.029 113.777 275.402V279H112.587ZM120.814 271.622H122.158L123.922 277.852L125.742 271.622H127.352L129.186 277.852L130.922 271.622H132.28L129.984 279H128.36L126.54 273.022L124.72 279H123.11L120.814 271.622ZM138.24 278.062C138.082 278.277 137.9 278.449 137.694 278.58C137.489 278.711 137.274 278.813 137.05 278.888C136.836 278.963 136.616 279.014 136.392 279.042C136.178 279.07 135.963 279.084 135.748 279.084C135.403 279.084 135.076 279.042 134.768 278.958C134.46 278.874 134.18 278.739 133.928 278.552C133.686 278.365 133.49 278.132 133.34 277.852C133.2 277.572 133.13 277.255 133.13 276.9C133.13 276.48 133.205 276.13 133.354 275.85C133.513 275.561 133.723 275.327 133.984 275.15C134.246 274.973 134.544 274.851 134.88 274.786C135.226 274.711 135.59 274.674 135.972 274.674H138.142C138.142 274.049 138.007 273.554 137.736 273.19C137.466 272.817 137.008 272.621 136.364 272.602C135.972 272.602 135.627 272.667 135.328 272.798C135.03 272.929 134.824 273.143 134.712 273.442H133.438C133.504 273.106 133.634 272.821 133.83 272.588C134.026 272.345 134.26 272.149 134.53 272C134.801 271.841 135.095 271.725 135.412 271.65C135.73 271.575 136.047 271.538 136.364 271.538C136.915 271.538 137.377 271.631 137.75 271.818C138.133 271.995 138.441 272.233 138.674 272.532C138.908 272.821 139.071 273.176 139.164 273.596C139.258 274.016 139.304 274.487 139.304 275.01V279H138.31L138.24 278.062ZM136.84 275.668C136.616 275.668 136.355 275.673 136.056 275.682C135.767 275.682 135.487 275.71 135.216 275.766C134.946 275.822 134.726 275.939 134.558 276.116C134.4 276.293 134.32 276.527 134.32 276.816C134.32 277.031 134.362 277.213 134.446 277.362C134.53 277.511 134.642 277.637 134.782 277.74C134.932 277.843 135.1 277.917 135.286 277.964C135.473 278.011 135.664 278.034 135.86 278.034C136.56 278.034 137.111 277.866 137.512 277.53C137.923 277.185 138.133 276.685 138.142 276.032V275.668H136.84ZM141.148 279V269.102H142.338V279H141.148ZM144.21 279V269.102H145.4V279H144.21ZM148.197 275.752C148.225 276.079 148.29 276.382 148.393 276.662C148.505 276.933 148.654 277.171 148.841 277.376C149.028 277.581 149.256 277.745 149.527 277.866C149.807 277.978 150.129 278.034 150.493 278.034C150.67 278.034 150.852 278.02 151.039 277.992C151.235 277.955 151.417 277.899 151.585 277.824C151.753 277.74 151.902 277.633 152.033 277.502C152.164 277.371 152.262 277.213 152.327 277.026H153.545C153.461 277.381 153.316 277.689 153.111 277.95C152.915 278.211 152.677 278.426 152.397 278.594C152.126 278.762 151.823 278.888 151.487 278.972C151.151 279.047 150.81 279.084 150.465 279.084C149.877 279.084 149.364 278.991 148.925 278.804C148.496 278.617 148.136 278.361 147.847 278.034C147.558 277.698 147.343 277.301 147.203 276.844C147.063 276.377 146.993 275.869 146.993 275.318C146.993 274.767 147.068 274.263 147.217 273.806C147.376 273.339 147.6 272.938 147.889 272.602C148.178 272.266 148.533 272.005 148.953 271.818C149.373 271.631 149.872 271.538 150.451 271.538C151.039 271.538 151.548 271.655 151.977 271.888C152.406 272.121 152.752 272.429 153.013 272.812C153.274 273.185 153.456 273.591 153.559 274.03C153.671 274.469 153.718 274.875 153.699 275.248C153.699 275.332 153.694 275.416 153.685 275.5C153.685 275.584 153.68 275.668 153.671 275.752H148.197ZM152.495 274.716C152.476 274.091 152.28 273.582 151.907 273.19C151.534 272.798 151.034 272.602 150.409 272.602C150.064 272.602 149.76 272.658 149.499 272.77C149.238 272.882 149.018 273.036 148.841 273.232C148.664 273.428 148.524 273.657 148.421 273.918C148.318 274.17 148.253 274.436 148.225 274.716H152.495ZM157.16 271.622H159.134V272.672H157.16V276.494C157.16 276.998 157.258 277.371 157.454 277.614C157.65 277.847 158.014 277.964 158.546 277.964H159.092V279H158.294C157.454 279 156.857 278.809 156.502 278.426C156.148 278.043 155.97 277.441 155.97 276.62V272.672H154.766V271.622H155.97V269.424H157.16V271.622ZM161.32 277.432C161.563 277.432 161.763 277.511 161.922 277.67C162.081 277.829 162.16 278.029 162.16 278.272C162.16 278.515 162.081 278.715 161.922 278.874C161.763 279.033 161.563 279.112 161.32 279.112C161.077 279.112 160.877 279.033 160.718 278.874C160.559 278.715 160.48 278.515 160.48 278.272C160.48 278.029 160.559 277.829 160.718 277.67C160.877 277.511 161.077 277.432 161.32 277.432Z" fill="#C4C4C4"/>
<path d="M107.12 217.936C107.056 217.456 106.843 217.115 106.48 216.912C106.117 216.699 105.664 216.581 105.12 216.56C104.928 216.56 104.725 216.576 104.512 216.608C104.309 216.64 104.117 216.704 103.936 216.8C103.755 216.896 103.605 217.024 103.488 217.184C103.371 217.344 103.312 217.541 103.312 217.776C103.301 218.021 103.36 218.229 103.488 218.4C103.627 218.571 103.808 218.709 104.032 218.816C104.192 218.891 104.363 218.96 104.544 219.024C104.736 219.077 104.923 219.131 105.104 219.184C105.285 219.227 105.461 219.264 105.632 219.296C105.803 219.328 105.952 219.36 106.08 219.392C106.539 219.488 106.981 219.6 107.408 219.728C107.835 219.856 108.213 220.032 108.544 220.256C108.875 220.48 109.141 220.779 109.344 221.152C109.547 221.525 109.653 222.011 109.664 222.608C109.664 223.259 109.541 223.813 109.296 224.272C109.051 224.731 108.72 225.099 108.304 225.376C107.909 225.653 107.451 225.856 106.928 225.984C106.405 226.101 105.829 226.149 105.2 226.128C104.592 226.117 104.021 226.037 103.488 225.888C102.955 225.728 102.48 225.499 102.064 225.2C101.659 224.901 101.333 224.528 101.088 224.08C100.843 223.632 100.704 223.104 100.672 222.496H103.04C103.104 222.773 103.211 223.003 103.36 223.184C103.509 223.365 103.685 223.515 103.888 223.632C104.091 223.749 104.315 223.835 104.56 223.888C104.816 223.941 105.072 223.973 105.328 223.984C105.595 223.995 105.851 223.984 106.096 223.952C106.341 223.92 106.555 223.861 106.736 223.776C106.928 223.68 107.077 223.552 107.184 223.392C107.291 223.232 107.344 223.029 107.344 222.784C107.344 222.443 107.237 222.192 107.024 222.032C106.821 221.872 106.597 221.76 106.352 221.696C106.181 221.653 106.027 221.616 105.888 221.584C105.76 221.541 105.632 221.509 105.504 221.488C105.376 221.456 105.243 221.424 105.104 221.392C104.965 221.36 104.805 221.323 104.624 221.28C104.219 221.173 103.797 221.056 103.36 220.928C102.933 220.789 102.549 220.597 102.208 220.352C101.792 220.064 101.477 219.696 101.264 219.248C101.061 218.8 100.971 218.304 100.992 217.76C101.024 217.12 101.173 216.592 101.44 216.176C101.707 215.749 102.048 215.413 102.464 215.168C102.88 214.923 103.339 214.752 103.84 214.656C104.341 214.56 104.843 214.517 105.344 214.528C105.899 214.539 106.411 214.619 106.88 214.768C107.36 214.907 107.776 215.115 108.128 215.392C108.491 215.669 108.784 216.021 109.008 216.448C109.232 216.875 109.371 217.371 109.424 217.936H107.12ZM110.284 216.736V214.672H119.708V216.736H116.156V226H113.836V216.736H110.284ZM129.093 214.672V216.736H123.317V219.376H128.357V221.44H123.317V223.952H129.093V226H120.997V214.672H129.093ZM135.224 214.672C135.907 214.672 136.525 214.747 137.08 214.896C137.635 215.035 138.104 215.264 138.488 215.584C138.883 215.893 139.181 216.304 139.384 216.816C139.597 217.317 139.699 217.936 139.688 218.672C139.677 219.312 139.565 219.883 139.352 220.384C139.139 220.875 138.84 221.291 138.456 221.632C138.083 221.963 137.629 222.219 137.096 222.4C136.573 222.571 136.003 222.656 135.384 222.656H133.192V226H130.872V214.672H135.224ZM135.256 220.608C135.544 220.608 135.816 220.571 136.072 220.496C136.339 220.421 136.568 220.304 136.76 220.144C136.952 219.984 137.107 219.787 137.224 219.552C137.341 219.317 137.405 219.04 137.416 218.72C137.437 217.995 137.24 217.483 136.824 217.184C136.419 216.885 135.891 216.736 135.24 216.736H133.192V220.608H135.256ZM149.457 226H147.121V217.664H144.817V216.064C145.159 216.064 145.473 216.037 145.761 215.984C146.06 215.92 146.337 215.824 146.593 215.696C146.817 215.579 147.031 215.435 147.233 215.264C147.436 215.083 147.596 214.885 147.713 214.672H149.457V226Z" fill="white"/>
<rect x="39.3242" y="125" width="170.675" height="37.1329" rx="4.61756" fill="#313131"/>
<path d="M61.1895 148.925L60.362 146.679H55.1904L54.3629 148.925H52.9739L56.8601 138.478H58.7071L62.5785 148.925H61.1895ZM57.7762 139.601L55.6189 145.512H59.9335L57.7762 139.601ZM70.6599 148.925H69.463L69.4039 147.757C69.1379 148.201 68.7685 148.521 68.2957 148.718C67.8327 148.915 67.3451 149.013 66.8329 149.013C66.2418 149.004 65.7296 148.9 65.2961 148.703C64.8627 148.496 64.5081 148.216 64.2322 147.861C63.9564 147.506 63.7496 147.093 63.6116 146.62C63.4836 146.137 63.4196 145.615 63.4196 145.053C63.4196 144.492 63.4885 143.97 63.6264 143.487C63.7643 142.995 63.9761 142.571 64.2618 142.216C64.5475 141.852 64.907 141.566 65.3405 141.359C65.7739 141.153 66.2911 141.049 66.892 141.049C67.3451 141.049 67.8032 141.133 68.2662 141.3C68.7291 141.468 69.1084 141.739 69.4039 142.113V138.478H70.6599V148.925ZM66.9954 142.172C66.5718 142.172 66.2123 142.251 65.9167 142.408C65.6212 142.556 65.3799 142.758 65.1927 143.014C65.0154 143.27 64.8824 143.576 64.7937 143.93C64.7149 144.275 64.6755 144.654 64.6755 145.068C64.6755 145.482 64.7149 145.856 64.7937 146.191C64.8725 146.516 65.0055 146.807 65.1927 147.063C65.3799 147.319 65.6212 147.526 65.9167 147.684C66.2123 147.831 66.5767 147.905 67.0102 147.905C67.5126 147.905 67.9263 147.787 68.2514 147.551C68.5765 147.314 68.8375 147.019 69.0345 146.664C69.1724 146.418 69.2709 146.152 69.33 145.866C69.3891 145.571 69.4187 145.28 69.4187 144.994C69.4187 144.64 69.3842 144.315 69.3153 144.019C69.2562 143.724 69.1429 143.448 68.9754 143.192C68.7784 142.906 68.5173 142.665 68.1923 142.468C67.8672 142.271 67.4682 142.172 66.9954 142.172ZM79.5776 148.925H78.3807L78.3216 147.757C78.0556 148.201 77.6862 148.521 77.2134 148.718C76.7504 148.915 76.2628 149.013 75.7505 149.013C75.1595 149.004 74.6472 148.9 74.2138 148.703C73.7804 148.496 73.4257 148.216 73.1499 147.861C72.8741 147.506 72.6672 147.093 72.5293 146.62C72.4013 146.137 72.3372 145.615 72.3372 145.053C72.3372 144.492 72.4062 143.97 72.5441 143.487C72.682 142.995 72.8938 142.571 73.1795 142.216C73.4651 141.852 73.8247 141.566 74.2581 141.359C74.6916 141.153 75.2087 141.049 75.8096 141.049C76.2628 141.049 76.7208 141.133 77.1838 141.3C77.6468 141.468 78.0261 141.739 78.3216 142.113V138.478H79.5776V148.925ZM75.9131 142.172C75.4895 142.172 75.1299 142.251 74.8344 142.408C74.5389 142.556 74.2975 142.758 74.1104 143.014C73.9331 143.27 73.8001 143.576 73.7114 143.93C73.6326 144.275 73.5932 144.654 73.5932 145.068C73.5932 145.482 73.6326 145.856 73.7114 146.191C73.7902 146.516 73.9232 146.807 74.1104 147.063C74.2975 147.319 74.5389 147.526 74.8344 147.684C75.1299 147.831 75.4944 147.905 75.9278 147.905C76.4302 147.905 76.844 147.787 77.169 147.551C77.4941 147.314 77.7552 147.019 77.9522 146.664C78.0901 146.418 78.1886 146.152 78.2477 145.866C78.3068 145.571 78.3364 145.28 78.3364 144.994C78.3364 144.64 78.3019 144.315 78.2329 144.019C78.1738 143.724 78.0605 143.448 77.8931 143.192C77.6961 142.906 77.435 142.665 77.1099 142.468C76.7849 142.271 76.3859 142.172 75.9131 142.172ZM85.8286 138.478H92.8473V139.645H87.1141V143.162H92.271V144.344H87.1141V147.757H92.8473V148.925H85.8286V138.478ZM95.8225 142.069C96.0688 141.724 96.3692 141.468 96.7239 141.3C97.0883 141.133 97.4922 141.049 97.9355 141.049C98.4773 141.059 98.9157 141.177 99.2506 141.404C99.5855 141.63 99.8367 141.931 100.004 142.305C100.27 141.911 100.595 141.606 100.979 141.389C101.373 141.162 101.836 141.049 102.368 141.049C102.792 141.049 103.156 141.123 103.462 141.271C103.767 141.409 104.013 141.606 104.201 141.862C104.388 142.108 104.526 142.399 104.614 142.734C104.703 143.069 104.747 143.433 104.747 143.827V148.925H103.491V144.462C103.491 144.206 103.477 143.945 103.447 143.679C103.427 143.403 103.368 143.157 103.27 142.94C103.171 142.714 103.023 142.532 102.826 142.394C102.629 142.246 102.363 142.172 102.029 142.172C101.703 142.172 101.428 142.251 101.201 142.408C100.974 142.556 100.792 142.753 100.654 143C100.526 143.246 100.433 143.517 100.374 143.812C100.314 144.108 100.285 144.398 100.285 144.684V148.925H99.0289V144.448C99.0289 144.201 99.0191 143.945 98.9994 143.679C98.9797 143.403 98.9206 143.157 98.8221 142.94C98.7334 142.714 98.5955 142.532 98.4083 142.394C98.2212 142.246 97.9601 142.172 97.6252 142.172C97.2706 142.172 96.975 142.251 96.7386 142.408C96.5121 142.566 96.3249 142.768 96.1771 143.014C96.0392 143.261 95.9407 143.536 95.8816 143.842C95.8324 144.137 95.8077 144.423 95.8077 144.699V148.925H94.5518V141.138H95.7634L95.8225 142.069ZM111.786 147.935C111.618 148.161 111.426 148.344 111.209 148.482C110.993 148.619 110.766 148.728 110.53 148.807C110.303 148.885 110.072 148.94 109.835 148.969C109.609 148.999 109.382 149.013 109.156 149.013C108.791 149.013 108.446 148.969 108.121 148.88C107.796 148.792 107.501 148.649 107.235 148.452C106.979 148.255 106.772 148.009 106.614 147.713C106.466 147.418 106.392 147.083 106.392 146.708C106.392 146.265 106.471 145.896 106.629 145.6C106.796 145.295 107.018 145.049 107.294 144.861C107.57 144.674 107.885 144.546 108.239 144.477C108.604 144.398 108.988 144.359 109.392 144.359H111.682C111.682 143.699 111.539 143.177 111.254 142.793C110.968 142.399 110.485 142.192 109.806 142.172C109.392 142.172 109.028 142.241 108.712 142.379C108.397 142.517 108.18 142.743 108.062 143.059H106.718C106.786 142.704 106.924 142.404 107.131 142.157C107.338 141.901 107.584 141.694 107.87 141.537C108.156 141.369 108.466 141.246 108.801 141.167C109.136 141.088 109.471 141.049 109.806 141.049C110.387 141.049 110.875 141.148 111.269 141.345C111.672 141.532 111.998 141.783 112.244 142.098C112.49 142.404 112.662 142.778 112.761 143.221C112.86 143.664 112.909 144.162 112.909 144.714V148.925H111.86L111.786 147.935ZM110.308 145.408C110.072 145.408 109.796 145.413 109.481 145.423C109.175 145.423 108.88 145.452 108.594 145.512C108.308 145.571 108.077 145.694 107.9 145.881C107.732 146.068 107.648 146.314 107.648 146.62C107.648 146.846 107.693 147.038 107.781 147.196C107.87 147.354 107.988 147.487 108.136 147.595C108.294 147.703 108.471 147.782 108.668 147.831C108.865 147.881 109.067 147.905 109.274 147.905C110.013 147.905 110.594 147.728 111.017 147.373C111.451 147.009 111.672 146.482 111.682 145.792V145.408H110.308ZM115.579 138.286C115.815 138.286 116.017 138.365 116.184 138.522C116.352 138.67 116.436 138.867 116.436 139.113C116.436 139.36 116.352 139.562 116.184 139.719C116.017 139.877 115.815 139.956 115.579 139.956C115.332 139.956 115.13 139.877 114.973 139.719C114.815 139.562 114.736 139.36 114.736 139.113C114.736 138.867 114.815 138.67 114.973 138.522C115.13 138.365 115.332 138.286 115.579 138.286ZM114.958 148.925V141.138H116.214V148.925H114.958ZM118.303 148.925V138.478H119.559V148.925H118.303ZM132.892 148.925L132.064 146.679H126.892L126.065 148.925H124.676L128.562 138.478H130.409L134.281 148.925H132.892ZM129.478 139.601L127.321 145.512H131.636L129.478 139.601ZM142.362 148.925H141.165L141.106 147.757C140.84 148.201 140.471 148.521 139.998 148.718C139.535 148.915 139.047 149.013 138.535 149.013C137.944 149.004 137.432 148.9 136.998 148.703C136.565 148.496 136.21 148.216 135.934 147.861C135.659 147.506 135.452 147.093 135.314 146.62C135.186 146.137 135.122 145.615 135.122 145.053C135.122 144.492 135.191 143.97 135.329 143.487C135.466 142.995 135.678 142.571 135.964 142.216C136.25 141.852 136.609 141.566 137.043 141.359C137.476 141.153 137.993 141.049 138.594 141.049C139.047 141.049 139.505 141.133 139.968 141.3C140.431 141.468 140.811 141.739 141.106 142.113V138.478H142.362V148.925ZM138.698 142.172C138.274 142.172 137.914 142.251 137.619 142.408C137.323 142.556 137.082 142.758 136.895 143.014C136.717 143.27 136.585 143.576 136.496 143.93C136.417 144.275 136.378 144.654 136.378 145.068C136.378 145.482 136.417 145.856 136.496 146.191C136.575 146.516 136.708 146.807 136.895 147.063C137.082 147.319 137.323 147.526 137.619 147.684C137.914 147.831 138.279 147.905 138.712 147.905C139.215 147.905 139.628 147.787 139.953 147.551C140.279 147.314 140.54 147.019 140.737 146.664C140.875 146.418 140.973 146.152 141.032 145.866C141.091 145.571 141.121 145.28 141.121 144.994C141.121 144.64 141.086 144.315 141.017 144.019C140.958 143.724 140.845 143.448 140.678 143.192C140.481 142.906 140.219 142.665 139.894 142.468C139.569 142.271 139.17 142.172 138.698 142.172ZM151.28 148.925H150.083L150.024 147.757C149.758 148.201 149.388 148.521 148.915 148.718C148.452 148.915 147.965 149.013 147.453 149.013C146.862 149.004 146.349 148.9 145.916 148.703C145.482 148.496 145.128 148.216 144.852 147.861C144.576 147.506 144.369 147.093 144.231 146.62C144.103 146.137 144.039 145.615 144.039 145.053C144.039 144.492 144.108 143.97 144.246 143.487C144.384 142.995 144.596 142.571 144.882 142.216C145.167 141.852 145.527 141.566 145.96 141.359C146.394 141.153 146.911 141.049 147.512 141.049C147.965 141.049 148.423 141.133 148.886 141.3C149.349 141.468 149.728 141.739 150.024 142.113V138.478H151.28V148.925ZM147.615 142.172C147.192 142.172 146.832 142.251 146.537 142.408C146.241 142.556 146 142.758 145.812 143.014C145.635 143.27 145.502 143.576 145.414 143.93C145.335 144.275 145.295 144.654 145.295 145.068C145.295 145.482 145.335 145.856 145.414 146.191C145.492 146.516 145.625 146.807 145.812 147.063C146 147.319 146.241 147.526 146.537 147.684C146.832 147.831 147.197 147.905 147.63 147.905C148.132 147.905 148.546 147.787 148.871 147.551C149.196 147.314 149.457 147.019 149.654 146.664C149.792 146.418 149.891 146.152 149.95 145.866C150.009 145.571 150.038 145.28 150.038 144.994C150.038 144.64 150.004 144.315 149.935 144.019C149.876 143.724 149.763 143.448 149.595 143.192C149.398 142.906 149.137 142.665 148.812 142.468C148.487 142.271 148.088 142.172 147.615 142.172ZM153.253 148.925V141.138H154.464L154.523 142.349C154.809 141.896 155.173 141.566 155.617 141.359C156.06 141.153 156.562 141.049 157.124 141.049H157.523V142.231H157.065C156.602 142.231 156.208 142.31 155.883 142.468C155.558 142.615 155.292 142.822 155.085 143.088C154.888 143.344 154.74 143.65 154.641 144.004C154.553 144.359 154.509 144.733 154.509 145.127V148.925H153.253ZM159.596 145.497C159.625 145.842 159.694 146.162 159.803 146.457C159.921 146.743 160.078 146.994 160.275 147.211C160.472 147.427 160.714 147.6 160.999 147.728C161.295 147.846 161.635 147.905 162.019 147.905C162.206 147.905 162.398 147.89 162.595 147.861C162.802 147.822 162.994 147.762 163.172 147.684C163.349 147.595 163.506 147.482 163.644 147.344C163.782 147.206 163.886 147.038 163.955 146.841H165.24C165.152 147.216 164.999 147.541 164.782 147.817C164.575 148.092 164.324 148.319 164.029 148.496C163.743 148.674 163.423 148.807 163.068 148.895C162.713 148.974 162.354 149.013 161.989 149.013C161.369 149.013 160.827 148.915 160.364 148.718C159.911 148.521 159.532 148.25 159.226 147.905C158.921 147.551 158.694 147.132 158.547 146.649C158.399 146.157 158.325 145.62 158.325 145.039C158.325 144.457 158.404 143.926 158.561 143.443C158.729 142.95 158.965 142.527 159.271 142.172C159.576 141.817 159.95 141.542 160.394 141.345C160.837 141.148 161.364 141.049 161.975 141.049C162.595 141.049 163.132 141.172 163.585 141.418C164.038 141.665 164.403 141.99 164.679 142.394C164.955 142.788 165.147 143.216 165.255 143.679C165.373 144.142 165.422 144.571 165.403 144.965C165.403 145.053 165.398 145.142 165.388 145.231C165.388 145.319 165.383 145.408 165.373 145.497H159.596ZM164.132 144.403C164.112 143.743 163.905 143.206 163.511 142.793C163.117 142.379 162.59 142.172 161.93 142.172C161.566 142.172 161.246 142.231 160.97 142.349C160.694 142.468 160.463 142.63 160.275 142.837C160.088 143.044 159.94 143.285 159.832 143.561C159.724 143.827 159.655 144.108 159.625 144.403H164.132ZM169.869 142.172C169.691 142.172 169.509 142.187 169.322 142.216C169.145 142.236 168.967 142.285 168.79 142.364C168.623 142.433 168.475 142.541 168.347 142.689C168.229 142.827 168.165 143.014 168.155 143.251C168.155 143.586 168.278 143.837 168.524 144.004C168.78 144.172 169.11 144.295 169.514 144.374C169.682 144.413 169.864 144.453 170.061 144.492C170.258 144.521 170.45 144.556 170.637 144.595C170.834 144.625 171.016 144.659 171.184 144.699C171.361 144.738 171.509 144.778 171.627 144.817C172.573 145.113 173.046 145.748 173.046 146.723C173.036 147.196 172.932 147.58 172.735 147.876C172.548 148.161 172.307 148.388 172.011 148.555C171.726 148.723 171.396 148.841 171.021 148.91C170.657 148.979 170.292 149.013 169.928 149.013C169.573 149.013 169.214 148.979 168.849 148.91C168.485 148.841 168.15 148.723 167.844 148.555C167.549 148.378 167.293 148.152 167.076 147.876C166.869 147.59 166.736 147.235 166.677 146.812H167.948C168.027 147.048 168.15 147.235 168.317 147.373C168.485 147.511 168.662 147.62 168.849 147.698C169.046 147.777 169.228 147.831 169.396 147.861C169.573 147.89 169.77 147.905 169.987 147.905C170.145 147.905 170.327 147.895 170.534 147.876C170.741 147.856 170.938 147.812 171.125 147.743C171.312 147.664 171.469 147.551 171.598 147.403C171.726 147.255 171.79 147.048 171.79 146.782C171.79 146.487 171.691 146.265 171.494 146.117C171.307 145.97 171.046 145.861 170.711 145.792C170.475 145.743 170.228 145.699 169.972 145.659C169.726 145.61 169.475 145.561 169.219 145.512C168.972 145.452 168.731 145.388 168.495 145.319C168.258 145.241 168.036 145.137 167.83 145.009C167.554 144.842 167.332 144.615 167.165 144.329C166.997 144.044 166.913 143.694 166.913 143.28C166.933 142.847 167.032 142.492 167.209 142.216C167.386 141.931 167.613 141.699 167.889 141.522C168.184 141.345 168.499 141.221 168.834 141.153C169.169 141.084 169.524 141.049 169.898 141.049C170.696 141.049 171.332 141.221 171.804 141.566C172.09 141.763 172.312 142 172.469 142.276C172.627 142.551 172.725 142.842 172.765 143.147H171.598C171.529 142.862 171.341 142.63 171.036 142.453C170.731 142.276 170.342 142.182 169.869 142.172ZM177.387 142.172C177.209 142.172 177.027 142.187 176.84 142.216C176.663 142.236 176.485 142.285 176.308 142.364C176.141 142.433 175.993 142.541 175.865 142.689C175.747 142.827 175.682 143.014 175.673 143.251C175.673 143.586 175.796 143.837 176.042 144.004C176.298 144.172 176.628 144.295 177.032 144.374C177.2 144.413 177.382 144.453 177.579 144.492C177.776 144.521 177.968 144.556 178.155 144.595C178.352 144.625 178.534 144.659 178.702 144.699C178.879 144.738 179.027 144.778 179.145 144.817C180.091 145.113 180.564 145.748 180.564 146.723C180.554 147.196 180.45 147.58 180.253 147.876C180.066 148.161 179.825 148.388 179.529 148.555C179.244 148.723 178.914 148.841 178.539 148.91C178.175 148.979 177.81 149.013 177.446 149.013C177.091 149.013 176.732 148.979 176.367 148.91C176.003 148.841 175.668 148.723 175.362 148.555C175.067 148.378 174.811 148.152 174.594 147.876C174.387 147.59 174.254 147.235 174.195 146.812H175.466C175.545 147.048 175.668 147.235 175.835 147.373C176.003 147.511 176.18 147.62 176.367 147.698C176.564 147.777 176.746 147.831 176.914 147.861C177.091 147.89 177.288 147.905 177.505 147.905C177.663 147.905 177.845 147.895 178.052 147.876C178.258 147.856 178.455 147.812 178.643 147.743C178.83 147.664 178.987 147.551 179.115 147.403C179.244 147.255 179.308 147.048 179.308 146.782C179.308 146.487 179.209 146.265 179.012 146.117C178.825 145.97 178.564 145.861 178.229 145.792C177.993 145.743 177.746 145.699 177.49 145.659C177.244 145.61 176.993 145.561 176.737 145.512C176.49 145.452 176.249 145.388 176.012 145.319C175.776 145.241 175.554 145.137 175.348 145.009C175.072 144.842 174.85 144.615 174.683 144.329C174.515 144.044 174.431 143.694 174.431 143.28C174.451 142.847 174.55 142.492 174.727 142.216C174.904 141.931 175.131 141.699 175.407 141.522C175.702 141.345 176.017 141.221 176.352 141.153C176.687 141.084 177.042 141.049 177.416 141.049C178.214 141.049 178.85 141.221 179.322 141.566C179.608 141.763 179.83 142 179.987 142.276C180.145 142.551 180.243 142.842 180.283 143.147H179.115C179.047 142.862 178.859 142.63 178.554 142.453C178.249 142.276 177.86 142.182 177.387 142.172Z" fill="#8D8D8D"/>
<rect x="84.7547" y="45.4618" width="34.2009" height="34.0765" rx="17.0382" fill="#1F1F1F" stroke="#363636" stroke-width="0.923513"/>
<path d="M97.6513 61.0839C97.9556 60.1875 98.5428 59.4076 99.3292 58.8554C100.116 58.3032 101.061 58.0069 102.03 58.0089C103.13 58.0089 104.123 58.3888 104.904 59.0106L107.174 56.8C105.791 55.6253 104.017 54.9003 102.03 54.9003C98.9545 54.9003 96.3065 56.6088 95.0332 59.1113L97.6513 61.0839Z" fill="#EA4335"/>
<path d="M104.658 66.3059C103.949 66.7511 103.049 66.9886 102.03 66.9886C101.065 66.9905 100.123 66.6966 99.3384 66.1485C98.5537 65.6004 97.966 64.8258 97.6585 63.9344L95.0312 65.8766C95.6759 67.1471 96.6734 68.216 97.9107 68.9621C99.1479 69.7082 100.575 70.1014 102.03 70.0972C103.938 70.0972 105.76 69.4367 107.125 68.1974L104.658 66.3059H104.658Z" fill="#34A853"/>
<path d="M107.127 68.1988C108.554 66.9019 109.481 64.9718 109.481 62.4996C109.481 62.05 109.41 61.5668 109.304 61.1179H102.032V64.0542H106.218C106.011 65.0414 105.457 65.8058 104.66 66.3073L107.127 68.1988Z" fill="#4A90E2"/>
<path d="M97.6603 63.936C97.5012 63.473 97.4203 62.988 97.4209 62.4998C97.4209 62.0046 97.5022 61.529 97.6531 61.0845L95.035 59.1119C94.4994 60.1648 94.2233 61.3248 94.2286 62.4998C94.2286 63.7156 94.518 64.8618 95.033 65.8781L97.6603 63.936Z" fill="#FBBC05"/>
<rect x="39.4618" y="45.4618" width="34.2009" height="34.0765" rx="17.0382" fill="#1F1F1F" stroke="#363636" stroke-width="0.923513"/>
<path d="M65.0349 59.5444H48.0889M48.0889 62.9216H51.094C51.5517 62.9216 51.7805 62.9216 52.0018 62.9609C52.1982 62.9958 52.3898 63.0536 52.5727 63.1331C52.7787 63.2227 52.9691 63.3492 53.35 63.6022L53.8427 63.9295C54.2235 64.1825 54.4139 64.309 54.6199 64.3986C54.8028 64.4782 54.9944 64.536 55.1908 64.5709C55.4121 64.6102 55.641 64.6102 56.0987 64.6102H57.0251C57.4828 64.6102 57.7116 64.6102 57.9329 64.5709C58.1293 64.536 58.3209 64.4782 58.5038 64.3986C58.7098 64.309 58.9002 64.1825 59.2811 63.9295L59.7738 63.6022C60.1546 63.3492 60.345 63.2227 60.551 63.1331C60.7339 63.0536 60.9255 62.9958 61.1219 62.9609C61.3432 62.9216 61.5721 62.9216 62.0298 62.9216H65.0349M48.0889 58.4468L48.0889 66.5521C48.0889 67.4978 48.0889 67.9706 48.2736 68.3318C48.436 68.6496 48.6953 68.9079 49.0141 69.0698C49.3766 69.2538 49.8512 69.2538 50.8002 69.2538L62.3235 69.2538C63.2726 69.2538 63.7471 69.2538 64.1096 69.0698C64.4285 68.9079 64.6877 68.6496 64.8502 68.3318C65.0349 67.9706 65.0349 67.4978 65.0349 66.5521V58.4468C65.0349 57.5011 65.0349 57.0283 64.8502 56.667C64.6877 56.3493 64.4285 56.091 64.1096 55.9291C63.7471 55.7451 63.2726 55.7451 62.3235 55.7451L50.8002 55.7451C49.8512 55.7451 49.3766 55.7451 49.0141 55.9291C48.6953 56.091 48.436 56.3493 48.2736 56.667C48.0889 57.0283 48.0889 57.5011 48.0889 58.4468Z" stroke="white" stroke-width="1.38527" stroke-linecap="round" stroke-linejoin="round"/>
<rect x="130.046" y="45.4618" width="34.2009" height="34.0765" rx="17.0382" fill="#1F1F1F" stroke="#363636" stroke-width="0.923513"/>
<path d="M154.772 57.3462C154.211 57.6174 153.608 57.8007 152.975 57.8832C153.621 57.4611 154.117 56.7928 154.351 55.9965C153.736 56.3937 153.064 56.6736 152.364 56.824C151.793 56.1613 150.98 55.7471 150.08 55.7471C148.352 55.7471 146.951 57.274 146.951 59.1573C146.951 59.4246 146.978 59.6848 147.032 59.9345C144.431 59.7922 142.126 58.4346 140.582 56.3713C140.313 56.875 140.159 57.4609 140.159 58.0858C140.159 59.269 140.711 60.3127 141.551 60.9243C141.054 60.9074 140.568 60.7611 140.133 60.4977C140.133 60.512 140.133 60.5263 140.133 60.5406C140.133 62.193 141.212 63.5713 142.643 63.8846C142.182 64.0212 141.699 64.0412 141.23 63.9431C141.628 65.2979 142.784 66.2838 144.153 66.3114C143.082 67.2261 141.733 67.7713 140.267 67.7713C140.014 67.7713 139.765 67.7551 139.521 67.7236C140.905 68.6913 142.55 69.2558 144.317 69.2558C150.072 69.2558 153.22 64.0593 153.22 59.5528C153.22 59.4049 153.217 59.2578 153.211 59.1116C153.823 58.6289 154.352 58.0311 154.772 57.3462Z" fill="#55ACEE"/>
<rect x="175.337" y="45.4618" width="34.2009" height="34.0765" rx="17.0382" fill="#1F1F1F" stroke="#363636" stroke-width="0.923513"/>
<path fill-rule="evenodd" clip-rule="evenodd" d="M192.437 54.9022C188.227 54.9022 184.812 58.3042 184.812 62.5011C184.812 65.8584 186.997 68.7062 190.028 69.7115C190.409 69.781 190.548 69.5463 190.548 69.3448C190.548 69.1648 190.542 68.6866 190.538 68.0527C188.417 68.5117 187.969 67.0339 187.969 67.0339C187.622 66.1564 187.122 65.9227 187.122 65.9227C186.43 65.4511 187.175 65.4605 187.175 65.4605C187.94 65.5146 188.343 66.2437 188.343 66.2437C189.023 67.4047 190.128 67.0693 190.562 66.8753C190.631 66.3841 190.828 66.0492 191.046 65.8593C189.353 65.6676 187.573 65.0154 187.573 62.1037C187.573 61.2743 187.87 60.596 188.358 60.0647C188.279 59.8725 188.017 59.1 188.432 58.0537C188.432 58.0537 189.073 57.8494 190.529 58.8328C191.137 58.6644 191.79 58.5799 192.438 58.5771C193.086 58.5799 193.738 58.6644 194.347 58.8328C195.803 57.8494 196.442 58.0537 196.442 58.0537C196.859 59.1 196.597 59.8725 196.518 60.0647C197.007 60.596 197.302 61.2743 197.302 62.1037C197.302 65.0229 195.519 65.6652 193.82 65.8532C194.094 66.0879 194.338 66.5516 194.338 67.2606C194.338 68.2761 194.329 69.0957 194.329 69.3448C194.329 69.5482 194.466 69.7847 194.853 69.7105C197.881 68.7034 200.064 65.8574 200.064 62.5011C200.064 58.3042 196.649 54.9022 192.437 54.9022Z" fill="#F7F7F7"/>
<path d="M122.335 109.112C121.56 109.112 120.884 108.986 120.305 108.734C119.726 108.473 119.241 108.118 118.849 107.67C118.457 107.222 118.163 106.69 117.967 106.074C117.771 105.458 117.673 104.786 117.673 104.058C117.673 103.33 117.771 102.658 117.967 102.042C118.163 101.417 118.457 100.88 118.849 100.432C119.241 99.984 119.726 99.634 120.305 99.382C120.884 99.1207 121.56 98.99 122.335 98.99C123.1 98.99 123.772 99.1207 124.351 99.382C124.93 99.634 125.415 99.984 125.807 100.432C126.199 100.88 126.493 101.417 126.689 102.042C126.885 102.658 126.983 103.33 126.983 104.058C126.983 104.786 126.885 105.458 126.689 106.074C126.493 106.69 126.199 107.222 125.807 107.67C125.415 108.118 124.93 108.473 124.351 108.734C123.772 108.986 123.1 109.112 122.335 109.112ZM122.335 100.096C121.747 100.096 121.238 100.203 120.809 100.418C120.38 100.623 120.025 100.908 119.745 101.272C119.465 101.636 119.255 102.061 119.115 102.546C118.975 103.022 118.905 103.526 118.905 104.058C118.905 104.59 118.97 105.094 119.101 105.57C119.241 106.046 119.451 106.466 119.731 106.83C120.011 107.194 120.366 107.483 120.795 107.698C121.234 107.903 121.747 108.006 122.335 108.006C122.923 108.006 123.432 107.903 123.861 107.698C124.29 107.483 124.64 107.199 124.911 106.844C125.191 106.48 125.396 106.06 125.527 105.584C125.667 105.108 125.737 104.599 125.737 104.058C125.737 103.517 125.667 103.008 125.527 102.532C125.396 102.047 125.191 101.627 124.911 101.272C124.631 100.908 124.276 100.623 123.847 100.418C123.418 100.203 122.914 100.096 122.335 100.096ZM128.589 109V101.622H129.737L129.793 102.77C130.064 102.341 130.409 102.028 130.829 101.832C131.249 101.636 131.725 101.538 132.257 101.538H132.635V102.658H132.201C131.763 102.658 131.389 102.733 131.081 102.882C130.773 103.022 130.521 103.218 130.325 103.47C130.139 103.713 129.999 104.002 129.905 104.338C129.821 104.674 129.779 105.029 129.779 105.402V109H128.589Z" fill="#8D8D8D"/>
<rect x="-0.5" y="0.5" width="249" height="325" rx="8.73513" transform="matrix(-1 0 0 1 249 0)" stroke="#363636"/>
</svg>
