<svg width="250" height="326" viewBox="0 0 250 326" fill="none" xmlns="http://www.w3.org/2000/svg">
<rect x="-0.5" y="0.5" width="249" height="325" rx="9.5" transform="matrix(-1 0 0 1 249 0)" fill="#131313"/>
<path d="M38.8189 249.096C38.5576 249.096 38.2916 249.119 38.0209 249.166C37.7596 249.213 37.5216 249.297 37.3069 249.418C37.0922 249.53 36.9149 249.689 36.7749 249.894C36.6442 250.09 36.5789 250.342 36.5789 250.65C36.5789 251.023 36.6769 251.327 36.8729 251.56C37.0689 251.784 37.3069 251.957 37.5869 252.078C37.8109 252.171 38.0489 252.251 38.3009 252.316C38.5529 252.381 38.8096 252.442 39.0709 252.498C39.3416 252.554 39.6029 252.61 39.8549 252.666C40.1162 252.722 40.3682 252.792 40.6109 252.876C41.1802 253.072 41.6329 253.352 41.9689 253.716C42.3142 254.08 42.4869 254.561 42.4869 255.158C42.4869 255.718 42.3889 256.18 42.1929 256.544C42.0062 256.908 41.7496 257.207 41.4229 257.44C41.1056 257.673 40.7322 257.846 40.3029 257.958C39.8829 258.061 39.4349 258.112 38.9589 258.112C38.4829 258.112 38.0256 258.065 37.5869 257.972C37.1576 257.879 36.7656 257.725 36.4109 257.51C36.0562 257.295 35.7529 257.015 35.5009 256.67C35.2489 256.325 35.0716 255.905 34.9689 255.41H36.2429C36.3362 255.727 36.4809 255.989 36.6769 256.194C36.8729 256.399 37.0969 256.563 37.3489 256.684C37.6009 256.805 37.8716 256.889 38.1609 256.936C38.4596 256.983 38.7536 257.006 39.0429 257.006C39.3229 257.006 39.5936 256.978 39.8549 256.922C40.1256 256.857 40.3636 256.759 40.5689 256.628C40.7742 256.497 40.9376 256.329 41.0589 256.124C41.1802 255.919 41.2409 255.671 41.2409 255.382C41.2409 254.943 41.1242 254.617 40.8909 254.402C40.6576 254.187 40.3449 254.024 39.9529 253.912C39.6916 253.828 39.4162 253.758 39.1269 253.702C38.8376 253.646 38.5482 253.585 38.2589 253.52C37.9696 253.455 37.6849 253.38 37.4049 253.296C37.1249 253.203 36.8682 253.095 36.6349 252.974C36.2616 252.797 35.9489 252.526 35.6969 252.162C35.4449 251.789 35.3189 251.322 35.3189 250.762C35.3189 250.239 35.4216 249.801 35.6269 249.446C35.8322 249.091 36.0982 248.807 36.4249 248.592C36.7516 248.377 37.1156 248.223 37.5169 248.13C37.9276 248.037 38.3616 247.99 38.8189 247.99C39.1922 247.999 39.5282 248.032 39.8269 248.088C40.1349 248.135 40.4242 248.223 40.6949 248.354C41.1149 248.541 41.4649 248.821 41.7449 249.194C42.0249 249.567 42.1789 250.048 42.2069 250.636H41.0169C40.9796 250.347 40.8909 250.104 40.7509 249.908C40.6202 249.712 40.4569 249.553 40.2609 249.432C40.0649 249.311 39.8409 249.227 39.5889 249.18C39.3462 249.124 39.0896 249.096 38.8189 249.096ZM44.2417 258V248.102H45.4317V251.756C45.553 251.569 45.707 251.397 45.8937 251.238C46.0804 251.079 46.2764 250.949 46.4817 250.846C46.687 250.743 46.911 250.669 47.1537 250.622C47.4057 250.566 47.6484 250.538 47.8817 250.538C48.4137 250.538 48.857 250.627 49.2117 250.804C49.5757 250.972 49.865 251.21 50.0797 251.518C50.3037 251.817 50.4577 252.176 50.5417 252.596C50.635 253.007 50.6817 253.455 50.6817 253.94V258H49.4917V254.304C49.4917 253.968 49.473 253.641 49.4357 253.324C49.3984 252.997 49.3144 252.708 49.1837 252.456C49.053 252.204 48.8664 251.999 48.6237 251.84C48.381 251.672 48.0497 251.588 47.6297 251.588C47.2844 251.588 46.9624 251.677 46.6637 251.854C46.3744 252.022 46.141 252.237 45.9637 252.498C45.749 252.787 45.6044 253.109 45.5297 253.464C45.4644 253.819 45.4317 254.183 45.4317 254.556V258H44.2417ZM57.3712 257.062C57.2125 257.277 57.0305 257.449 56.8252 257.58C56.6199 257.711 56.4052 257.813 56.1812 257.888C55.9665 257.963 55.7472 258.014 55.5232 258.042C55.3085 258.07 55.0939 258.084 54.8792 258.084C54.5339 258.084 54.2072 258.042 53.8992 257.958C53.5912 257.874 53.3112 257.739 53.0592 257.552C52.8165 257.365 52.6205 257.132 52.4712 256.852C52.3312 256.572 52.2612 256.255 52.2612 255.9C52.2612 255.48 52.3359 255.13 52.4852 254.85C52.6439 254.561 52.8539 254.327 53.1152 254.15C53.3765 253.973 53.6752 253.851 54.0112 253.786C54.3565 253.711 54.7205 253.674 55.1032 253.674H57.2732C57.2732 253.049 57.1379 252.554 56.8672 252.19C56.5965 251.817 56.1392 251.621 55.4952 251.602C55.1032 251.602 54.7579 251.667 54.4592 251.798C54.1605 251.929 53.9552 252.143 53.8432 252.442H52.5692C52.6345 252.106 52.7652 251.821 52.9612 251.588C53.1572 251.345 53.3905 251.149 53.6612 251C53.9319 250.841 54.2259 250.725 54.5432 250.65C54.8605 250.575 55.1779 250.538 55.4952 250.538C56.0459 250.538 56.5079 250.631 56.8812 250.818C57.2639 250.995 57.5719 251.233 57.8052 251.532C58.0385 251.821 58.2019 252.176 58.2952 252.596C58.3885 253.016 58.4352 253.487 58.4352 254.01V258H57.4412L57.3712 257.062ZM55.9712 254.668C55.7472 254.668 55.4859 254.673 55.1872 254.682C54.8979 254.682 54.6179 254.71 54.3472 254.766C54.0765 254.822 53.8572 254.939 53.6892 255.116C53.5305 255.293 53.4512 255.527 53.4512 255.816C53.4512 256.031 53.4932 256.213 53.5772 256.362C53.6612 256.511 53.7732 256.637 53.9132 256.74C54.0625 256.843 54.2305 256.917 54.4172 256.964C54.6039 257.011 54.7952 257.034 54.9912 257.034C55.6912 257.034 56.2419 256.866 56.6432 256.53C57.0539 256.185 57.2639 255.685 57.2732 255.032V254.668H55.9712ZM60.2788 258V250.622H61.4268L61.4828 251.77C61.7535 251.341 62.0988 251.028 62.5188 250.832C62.9388 250.636 63.4148 250.538 63.9468 250.538H64.3248V251.658H63.8908C63.4522 251.658 63.0788 251.733 62.7708 251.882C62.4628 252.022 62.2108 252.218 62.0148 252.47C61.8282 252.713 61.6882 253.002 61.5948 253.338C61.5108 253.674 61.4688 254.029 61.4688 254.402V258H60.2788ZM66.2888 254.752C66.3168 255.079 66.3821 255.382 66.4848 255.662C66.5968 255.933 66.7461 256.171 66.9328 256.376C67.1194 256.581 67.3481 256.745 67.6188 256.866C67.8988 256.978 68.2208 257.034 68.5848 257.034C68.7621 257.034 68.9441 257.02 69.1308 256.992C69.3268 256.955 69.5088 256.899 69.6768 256.824C69.8448 256.74 69.9941 256.633 70.1248 256.502C70.2554 256.371 70.3534 256.213 70.4188 256.026H71.6368C71.5528 256.381 71.4081 256.689 71.2028 256.95C71.0068 257.211 70.7688 257.426 70.4888 257.594C70.2181 257.762 69.9148 257.888 69.5788 257.972C69.2428 258.047 68.9021 258.084 68.5568 258.084C67.9688 258.084 67.4554 257.991 67.0168 257.804C66.5874 257.617 66.2281 257.361 65.9388 257.034C65.6494 256.698 65.4348 256.301 65.2948 255.844C65.1548 255.377 65.0848 254.869 65.0848 254.318C65.0848 253.767 65.1594 253.263 65.3088 252.806C65.4674 252.339 65.6914 251.938 65.9808 251.602C66.2701 251.266 66.6248 251.005 67.0448 250.818C67.4648 250.631 67.9641 250.538 68.5428 250.538C69.1308 250.538 69.6394 250.655 70.0688 250.888C70.4981 251.121 70.8434 251.429 71.1048 251.812C71.3661 252.185 71.5481 252.591 71.6508 253.03C71.7628 253.469 71.8094 253.875 71.7908 254.248C71.7908 254.332 71.7861 254.416 71.7768 254.5C71.7768 254.584 71.7721 254.668 71.7628 254.752H66.2888ZM70.5868 253.716C70.5681 253.091 70.3721 252.582 69.9988 252.19C69.6254 251.798 69.1261 251.602 68.5008 251.602C68.1554 251.602 67.8521 251.658 67.5908 251.77C67.3294 251.882 67.1101 252.036 66.9328 252.232C66.7554 252.428 66.6154 252.657 66.5128 252.918C66.4101 253.17 66.3448 253.436 66.3168 253.716H70.5868ZM79.0256 250.622H80.9996V251.672H79.0256V255.494C79.0256 255.998 79.1236 256.371 79.3196 256.614C79.5156 256.847 79.8796 256.964 80.4116 256.964H80.9576V258H80.1596C79.3196 258 78.7223 257.809 78.3676 257.426C78.0129 257.043 77.8356 256.441 77.8356 255.62V251.672H76.6316V250.622H77.8356V248.424H79.0256V250.622ZM82.3452 258V248.102H83.5352V251.756C83.6566 251.569 83.8106 251.397 83.9972 251.238C84.1839 251.079 84.3799 250.949 84.5852 250.846C84.7906 250.743 85.0146 250.669 85.2572 250.622C85.5092 250.566 85.7519 250.538 85.9852 250.538C86.5172 250.538 86.9606 250.627 87.3152 250.804C87.6792 250.972 87.9686 251.21 88.1832 251.518C88.4072 251.817 88.5612 252.176 88.6452 252.596C88.7386 253.007 88.7852 253.455 88.7852 253.94V258H87.5952V254.304C87.5952 253.968 87.5766 253.641 87.5392 253.324C87.5019 252.997 87.4179 252.708 87.2872 252.456C87.1566 252.204 86.9699 251.999 86.7272 251.84C86.4846 251.672 86.1532 251.588 85.7332 251.588C85.3879 251.588 85.0659 251.677 84.7672 251.854C84.4779 252.022 84.2446 252.237 84.0672 252.498C83.8526 252.787 83.7079 253.109 83.6332 253.464C83.5679 253.819 83.5352 254.183 83.5352 254.556V258H82.3452ZM91.5407 254.752C91.5687 255.079 91.634 255.382 91.7367 255.662C91.8487 255.933 91.998 256.171 92.1847 256.376C92.3714 256.581 92.6 256.745 92.8707 256.866C93.1507 256.978 93.4727 257.034 93.8367 257.034C94.014 257.034 94.196 257.02 94.3827 256.992C94.5787 256.955 94.7607 256.899 94.9287 256.824C95.0967 256.74 95.246 256.633 95.3767 256.502C95.5074 256.371 95.6054 256.213 95.6707 256.026H96.8887C96.8047 256.381 96.66 256.689 96.4547 256.95C96.2587 257.211 96.0207 257.426 95.7407 257.594C95.47 257.762 95.1667 257.888 94.8307 257.972C94.4947 258.047 94.154 258.084 93.8087 258.084C93.2207 258.084 92.7074 257.991 92.2687 257.804C91.8394 257.617 91.48 257.361 91.1907 257.034C90.9014 256.698 90.6867 256.301 90.5467 255.844C90.4067 255.377 90.3367 254.869 90.3367 254.318C90.3367 253.767 90.4114 253.263 90.5607 252.806C90.7194 252.339 90.9434 251.938 91.2327 251.602C91.522 251.266 91.8767 251.005 92.2967 250.818C92.7167 250.631 93.216 250.538 93.7947 250.538C94.3827 250.538 94.8914 250.655 95.3207 250.888C95.75 251.121 96.0954 251.429 96.3567 251.812C96.618 252.185 96.8 252.591 96.9027 253.03C97.0147 253.469 97.0614 253.875 97.0427 254.248C97.0427 254.332 97.038 254.416 97.0287 254.5C97.0287 254.584 97.024 254.668 97.0147 254.752H91.5407ZM95.8387 253.716C95.82 253.091 95.624 252.582 95.2507 252.19C94.8774 251.798 94.378 251.602 93.7527 251.602C93.4074 251.602 93.104 251.658 92.8427 251.77C92.5814 251.882 92.362 252.036 92.1847 252.232C92.0074 252.428 91.8674 252.657 91.7647 252.918C91.662 253.17 91.5967 253.436 91.5687 253.716H95.8387ZM106.126 249.096C105.864 249.096 105.598 249.119 105.328 249.166C105.066 249.213 104.828 249.297 104.614 249.418C104.399 249.53 104.222 249.689 104.082 249.894C103.951 250.09 103.886 250.342 103.886 250.65C103.886 251.023 103.984 251.327 104.18 251.56C104.376 251.784 104.614 251.957 104.894 252.078C105.118 252.171 105.356 252.251 105.608 252.316C105.86 252.381 106.116 252.442 106.378 252.498C106.648 252.554 106.91 252.61 107.162 252.666C107.423 252.722 107.675 252.792 107.918 252.876C108.487 253.072 108.94 253.352 109.276 253.716C109.621 254.08 109.794 254.561 109.794 255.158C109.794 255.718 109.696 256.18 109.5 256.544C109.313 256.908 109.056 257.207 108.73 257.44C108.412 257.673 108.039 257.846 107.61 257.958C107.19 258.061 106.742 258.112 106.266 258.112C105.79 258.112 105.332 258.065 104.894 257.972C104.464 257.879 104.072 257.725 103.718 257.51C103.363 257.295 103.06 257.015 102.808 256.67C102.556 256.325 102.378 255.905 102.276 255.41H103.55C103.643 255.727 103.788 255.989 103.984 256.194C104.18 256.399 104.404 256.563 104.656 256.684C104.908 256.805 105.178 256.889 105.468 256.936C105.766 256.983 106.06 257.006 106.35 257.006C106.63 257.006 106.9 256.978 107.162 256.922C107.432 256.857 107.67 256.759 107.876 256.628C108.081 256.497 108.244 256.329 108.366 256.124C108.487 255.919 108.548 255.671 108.548 255.382C108.548 254.943 108.431 254.617 108.198 254.402C107.964 254.187 107.652 254.024 107.26 253.912C106.998 253.828 106.723 253.758 106.434 253.702C106.144 253.646 105.855 253.585 105.566 253.52C105.276 253.455 104.992 253.38 104.712 253.296C104.432 253.203 104.175 253.095 103.942 252.974C103.568 252.797 103.256 252.526 103.004 252.162C102.752 251.789 102.626 251.322 102.626 250.762C102.626 250.239 102.728 249.801 102.934 249.446C103.139 249.091 103.405 248.807 103.732 248.592C104.058 248.377 104.422 248.223 104.824 248.13C105.234 248.037 105.668 247.99 106.126 247.99C106.499 247.999 106.835 248.032 107.134 248.088C107.442 248.135 107.731 248.223 108.002 248.354C108.422 248.541 108.772 248.821 109.052 249.194C109.332 249.567 109.486 250.048 109.514 250.636H108.324C108.286 250.347 108.198 250.104 108.058 249.908C107.927 249.712 107.764 249.553 107.568 249.432C107.372 249.311 107.148 249.227 106.896 249.18C106.653 249.124 106.396 249.096 106.126 249.096ZM112.472 254.752C112.5 255.079 112.566 255.382 112.668 255.662C112.78 255.933 112.93 256.171 113.116 256.376C113.303 256.581 113.532 256.745 113.802 256.866C114.082 256.978 114.404 257.034 114.768 257.034C114.946 257.034 115.128 257.02 115.314 256.992C115.51 256.955 115.692 256.899 115.86 256.824C116.028 256.74 116.178 256.633 116.308 256.502C116.439 256.371 116.537 256.213 116.602 256.026H117.82C117.736 256.381 117.592 256.689 117.386 256.95C117.19 257.211 116.952 257.426 116.672 257.594C116.402 257.762 116.098 257.888 115.762 257.972C115.426 258.047 115.086 258.084 114.74 258.084C114.152 258.084 113.639 257.991 113.2 257.804C112.771 257.617 112.412 257.361 112.122 257.034C111.833 256.698 111.618 256.301 111.478 255.844C111.338 255.377 111.268 254.869 111.268 254.318C111.268 253.767 111.343 253.263 111.492 252.806C111.651 252.339 111.875 251.938 112.164 251.602C112.454 251.266 112.808 251.005 113.228 250.818C113.648 250.631 114.148 250.538 114.726 250.538C115.314 250.538 115.823 250.655 116.252 250.888C116.682 251.121 117.027 251.429 117.288 251.812C117.55 252.185 117.732 252.591 117.834 253.03C117.946 253.469 117.993 253.875 117.974 254.248C117.974 254.332 117.97 254.416 117.96 254.5C117.96 254.584 117.956 254.668 117.946 254.752H112.472ZM116.77 253.716C116.752 253.091 116.556 252.582 116.182 252.19C115.809 251.798 115.31 251.602 114.684 251.602C114.339 251.602 114.036 251.658 113.774 251.77C113.513 251.882 113.294 252.036 113.116 252.232C112.939 252.428 112.799 252.657 112.696 252.918C112.594 253.17 112.528 253.436 112.5 253.716H116.77ZM119.574 258V250.622H120.722L120.778 251.742C120.899 251.537 121.048 251.359 121.226 251.21C121.412 251.061 121.613 250.935 121.828 250.832C122.042 250.729 122.266 250.655 122.5 250.608C122.742 250.561 122.976 250.538 123.2 250.538C123.732 250.538 124.18 250.627 124.544 250.804C124.908 250.972 125.197 251.21 125.412 251.518C125.626 251.817 125.78 252.176 125.874 252.596C125.967 253.007 126.014 253.45 126.014 253.926V258H124.824V254.248C124.824 253.903 124.8 253.571 124.754 253.254C124.716 252.937 124.632 252.657 124.502 252.414C124.38 252.162 124.203 251.961 123.97 251.812C123.736 251.663 123.424 251.588 123.032 251.588C122.649 251.597 122.308 251.691 122.01 251.868C121.72 252.045 121.487 252.255 121.31 252.498C121.095 252.806 120.95 253.147 120.876 253.52C120.801 253.884 120.764 254.253 120.764 254.626V258H119.574ZM134.425 258H133.291L133.235 256.894C132.983 257.314 132.633 257.617 132.185 257.804C131.747 257.991 131.285 258.084 130.799 258.084C130.239 258.075 129.754 257.977 129.343 257.79C128.933 257.594 128.597 257.328 128.335 256.992C128.074 256.656 127.878 256.264 127.747 255.816C127.626 255.359 127.565 254.864 127.565 254.332C127.565 253.8 127.631 253.305 127.761 252.848C127.892 252.381 128.093 251.98 128.363 251.644C128.634 251.299 128.975 251.028 129.385 250.832C129.796 250.636 130.286 250.538 130.855 250.538C131.285 250.538 131.719 250.617 132.157 250.776C132.596 250.935 132.955 251.191 133.235 251.546V248.102H134.425V258ZM130.953 251.602C130.552 251.602 130.211 251.677 129.931 251.826C129.651 251.966 129.423 252.157 129.245 252.4C129.077 252.643 128.951 252.932 128.867 253.268C128.793 253.595 128.755 253.954 128.755 254.346C128.755 254.738 128.793 255.093 128.867 255.41C128.942 255.718 129.068 255.993 129.245 256.236C129.423 256.479 129.651 256.675 129.931 256.824C130.211 256.964 130.557 257.034 130.967 257.034C131.443 257.034 131.835 256.922 132.143 256.698C132.451 256.474 132.699 256.194 132.885 255.858C133.016 255.625 133.109 255.373 133.165 255.102C133.221 254.822 133.249 254.547 133.249 254.276C133.249 253.94 133.217 253.632 133.151 253.352C133.095 253.072 132.988 252.811 132.829 252.568C132.643 252.297 132.395 252.069 132.087 251.882C131.779 251.695 131.401 251.602 130.953 251.602ZM137.792 258H136.574V248.102H137.792V258ZM141.807 250.622H144.075V251.672H141.807V255.508C141.807 255.723 141.816 255.923 141.835 256.11C141.863 256.287 141.91 256.446 141.975 256.586C142.05 256.717 142.152 256.824 142.283 256.908C142.423 256.983 142.61 257.025 142.843 257.034C143.058 257.034 143.244 256.997 143.403 256.922C143.571 256.847 143.711 256.759 143.823 256.656L144.341 257.524C144.098 257.729 143.846 257.874 143.585 257.958C143.324 258.042 143.034 258.084 142.717 258.084C142.316 258.084 141.98 258.028 141.709 257.916C141.438 257.795 141.21 257.622 141.023 257.398C140.864 257.183 140.757 256.931 140.701 256.642C140.645 256.353 140.617 256.026 140.617 255.662V251.672H139.413V250.622H140.617V248.41H141.807V250.622ZM149.269 258V248.102H150.459V258H149.269ZM153.018 247.92C153.242 247.92 153.433 247.995 153.592 248.144C153.75 248.284 153.83 248.471 153.83 248.704C153.83 248.937 153.75 249.129 153.592 249.278C153.433 249.427 153.242 249.502 153.018 249.502C152.784 249.502 152.593 249.427 152.444 249.278C152.294 249.129 152.22 248.937 152.22 248.704C152.22 248.471 152.294 248.284 152.444 248.144C152.593 247.995 152.784 247.92 153.018 247.92ZM152.43 258V250.622H153.62V258H152.43ZM155.599 258V250.622H156.747L156.803 251.742C156.924 251.537 157.074 251.359 157.251 251.21C157.438 251.061 157.638 250.935 157.853 250.832C158.068 250.729 158.292 250.655 158.525 250.608C158.768 250.561 159.001 250.538 159.225 250.538C159.757 250.538 160.205 250.627 160.569 250.804C160.933 250.972 161.222 251.21 161.437 251.518C161.652 251.817 161.806 252.176 161.899 252.596C161.992 253.007 162.039 253.45 162.039 253.926V258H160.849V254.248C160.849 253.903 160.826 253.571 160.779 253.254C160.742 252.937 160.658 252.657 160.527 252.414C160.406 252.162 160.228 251.961 159.995 251.812C159.762 251.663 159.449 251.588 159.057 251.588C158.674 251.597 158.334 251.691 158.035 251.868C157.746 252.045 157.512 252.255 157.335 252.498C157.12 252.806 156.976 253.147 156.901 253.52C156.826 253.884 156.789 254.253 156.789 254.626V258H155.599ZM163.871 258V248.102H165.061V253.8H166.349L168.561 250.622H169.905L167.441 254.136L170.115 258H168.715L166.489 254.836H165.061V258H163.871ZM178.165 250.538C178.753 250.538 179.262 250.631 179.691 250.818C180.121 251.005 180.48 251.266 180.769 251.602C181.068 251.938 181.287 252.339 181.427 252.806C181.577 253.263 181.651 253.767 181.651 254.318C181.651 254.869 181.577 255.377 181.427 255.844C181.287 256.301 181.068 256.698 180.769 257.034C180.48 257.361 180.116 257.617 179.677 257.804C179.239 257.991 178.725 258.084 178.137 258.084C177.549 258.084 177.036 257.991 176.597 257.804C176.168 257.617 175.804 257.361 175.505 257.034C175.216 256.698 174.997 256.301 174.847 255.844C174.707 255.377 174.637 254.869 174.637 254.318C174.637 253.767 174.707 253.263 174.847 252.806C174.997 252.339 175.216 251.938 175.505 251.602C175.804 251.266 176.177 251.005 176.625 250.818C177.073 250.631 177.587 250.538 178.165 250.538ZM178.137 257.034C178.539 257.034 178.884 256.964 179.173 256.824C179.472 256.684 179.715 256.493 179.901 256.25C180.097 255.998 180.237 255.709 180.321 255.382C180.415 255.055 180.461 254.701 180.461 254.318C180.461 253.945 180.415 253.595 180.321 253.268C180.237 252.932 180.097 252.643 179.901 252.4C179.715 252.148 179.472 251.952 179.173 251.812C178.884 251.672 178.539 251.602 178.137 251.602C177.736 251.602 177.391 251.672 177.101 251.812C176.812 251.952 176.569 252.148 176.373 252.4C176.187 252.643 176.047 252.932 175.953 253.268C175.869 253.595 175.827 253.945 175.827 254.318C175.827 254.701 175.869 255.055 175.953 255.382C176.047 255.709 176.187 255.998 176.373 256.25C176.569 256.493 176.812 256.684 177.101 256.824C177.391 256.964 177.736 257.034 178.137 257.034ZM183.244 258V250.622H184.392L184.448 251.742C184.569 251.537 184.718 251.359 184.896 251.21C185.082 251.061 185.283 250.935 185.498 250.832C185.712 250.729 185.936 250.655 186.17 250.608C186.412 250.561 186.646 250.538 186.87 250.538C187.402 250.538 187.85 250.627 188.214 250.804C188.578 250.972 188.867 251.21 189.082 251.518C189.296 251.817 189.45 252.176 189.544 252.596C189.637 253.007 189.684 253.45 189.684 253.926V258H188.494V254.248C188.494 253.903 188.47 253.571 188.424 253.254C188.386 252.937 188.302 252.657 188.172 252.414C188.05 252.162 187.873 251.961 187.64 251.812C187.406 251.663 187.094 251.588 186.702 251.588C186.319 251.597 185.978 251.691 185.68 251.868C185.39 252.045 185.157 252.255 184.98 252.498C184.765 252.806 184.62 253.147 184.546 253.52C184.471 253.884 184.434 254.253 184.434 254.626V258H183.244ZM197.151 250.622H199.125V251.672H197.151V255.494C197.151 255.998 197.249 256.371 197.445 256.614C197.641 256.847 198.005 256.964 198.537 256.964H199.083V258H198.285C197.445 258 196.847 257.809 196.493 257.426C196.138 257.043 195.961 256.441 195.961 255.62V251.672H194.757V250.622H195.961V248.424H197.151V250.622ZM200.47 258V248.102H201.66V251.756C201.782 251.569 201.936 251.397 202.122 251.238C202.309 251.079 202.505 250.949 202.71 250.846C202.916 250.743 203.14 250.669 203.382 250.622C203.634 250.566 203.877 250.538 204.11 250.538C204.642 250.538 205.086 250.627 205.44 250.804C205.804 250.972 206.094 251.21 206.308 251.518C206.532 251.817 206.686 252.176 206.77 252.596C206.864 253.007 206.91 253.455 206.91 253.94V258H205.72V254.304C205.72 253.968 205.702 253.641 205.664 253.324C205.627 252.997 205.543 252.708 205.412 252.456C205.282 252.204 205.095 251.999 204.852 251.84C204.61 251.672 204.278 251.588 203.858 251.588C203.513 251.588 203.191 251.677 202.892 251.854C202.603 252.022 202.37 252.237 202.192 252.498C201.978 252.787 201.833 253.109 201.758 253.464C201.693 253.819 201.66 254.183 201.66 254.556V258H200.47ZM209.666 254.752C209.694 255.079 209.759 255.382 209.862 255.662C209.974 255.933 210.123 256.171 210.31 256.376C210.496 256.581 210.725 256.745 210.996 256.866C211.276 256.978 211.598 257.034 211.962 257.034C212.139 257.034 212.321 257.02 212.508 256.992C212.704 256.955 212.886 256.899 213.054 256.824C213.222 256.74 213.371 256.633 213.502 256.502C213.632 256.371 213.73 256.213 213.796 256.026H215.014C214.93 256.381 214.785 256.689 214.58 256.95C214.384 257.211 214.146 257.426 213.866 257.594C213.595 257.762 213.292 257.888 212.956 257.972C212.62 258.047 212.279 258.084 211.934 258.084C211.346 258.084 210.832 257.991 210.394 257.804C209.964 257.617 209.605 257.361 209.316 257.034C209.026 256.698 208.812 256.301 208.672 255.844C208.532 255.377 208.462 254.869 208.462 254.318C208.462 253.767 208.536 253.263 208.686 252.806C208.844 252.339 209.068 251.938 209.358 251.602C209.647 251.266 210.002 251.005 210.422 250.818C210.842 250.631 211.341 250.538 211.92 250.538C212.508 250.538 213.016 250.655 213.446 250.888C213.875 251.121 214.22 251.429 214.482 251.812C214.743 252.185 214.925 252.591 215.028 253.03C215.14 253.469 215.186 253.875 215.168 254.248C215.168 254.332 215.163 254.416 215.154 254.5C215.154 254.584 215.149 254.668 215.14 254.752H209.666ZM213.964 253.716C213.945 253.091 213.749 252.582 213.376 252.19C213.002 251.798 212.503 251.602 211.878 251.602C211.532 251.602 211.229 251.658 210.968 251.77C210.706 251.882 210.487 252.036 210.31 252.232C210.132 252.428 209.992 252.657 209.89 252.918C209.787 253.17 209.722 253.436 209.694 253.716H213.964ZM62.6851 279V271.622H63.8331L63.8891 272.77C64.1597 272.341 64.5051 272.028 64.9251 271.832C65.3451 271.636 65.8211 271.538 66.3531 271.538H66.7311V272.658H66.2971C65.8584 272.658 65.4851 272.733 65.1771 272.882C64.8691 273.022 64.6171 273.218 64.4211 273.47C64.2344 273.713 64.0944 274.002 64.0011 274.338C63.9171 274.674 63.8751 275.029 63.8751 275.402V279H62.6851ZM68.695 275.752C68.723 276.079 68.7883 276.382 68.891 276.662C69.003 276.933 69.1523 277.171 69.339 277.376C69.5257 277.581 69.7543 277.745 70.025 277.866C70.305 277.978 70.627 278.034 70.991 278.034C71.1683 278.034 71.3503 278.02 71.537 277.992C71.733 277.955 71.915 277.899 72.083 277.824C72.251 277.74 72.4003 277.633 72.531 277.502C72.6617 277.371 72.7597 277.213 72.825 277.026H74.043C73.959 277.381 73.8143 277.689 73.609 277.95C73.413 278.211 73.175 278.426 72.895 278.594C72.6243 278.762 72.321 278.888 71.985 278.972C71.649 279.047 71.3083 279.084 70.963 279.084C70.375 279.084 69.8617 278.991 69.423 278.804C68.9937 278.617 68.6343 278.361 68.345 278.034C68.0557 277.698 67.841 277.301 67.701 276.844C67.561 276.377 67.491 275.869 67.491 275.318C67.491 274.767 67.5657 274.263 67.715 273.806C67.8737 273.339 68.0977 272.938 68.387 272.602C68.6763 272.266 69.031 272.005 69.451 271.818C69.871 271.631 70.3703 271.538 70.949 271.538C71.537 271.538 72.0457 271.655 72.475 271.888C72.9043 272.121 73.2497 272.429 73.511 272.812C73.7723 273.185 73.9543 273.591 74.057 274.03C74.169 274.469 74.2157 274.875 74.197 275.248C74.197 275.332 74.1923 275.416 74.183 275.5C74.183 275.584 74.1783 275.668 74.169 275.752H68.695ZM72.993 274.716C72.9743 274.091 72.7783 273.582 72.405 273.19C72.0317 272.798 71.5323 272.602 70.907 272.602C70.5617 272.602 70.2583 272.658 69.997 272.77C69.7357 272.882 69.5163 273.036 69.339 273.232C69.1617 273.428 69.0217 273.657 68.919 273.918C68.8163 274.17 68.751 274.436 68.723 274.716H72.993ZM79.0831 279.084C78.4951 279.084 77.9865 278.991 77.5571 278.804C77.1278 278.617 76.7731 278.356 76.4931 278.02C76.2131 277.684 76.0031 277.287 75.8631 276.83C75.7231 276.373 75.6531 275.873 75.6531 275.332C75.6531 274.809 75.7278 274.319 75.8771 273.862C76.0265 273.395 76.2458 272.994 76.5351 272.658C76.8245 272.313 77.1885 272.042 77.6271 271.846C78.0658 271.641 78.5978 271.538 79.2231 271.538C79.5965 271.538 79.9278 271.58 80.2171 271.664C80.5065 271.739 80.7771 271.865 81.0291 272.042C81.2905 272.21 81.5145 272.434 81.7011 272.714C81.8878 272.994 82.0231 273.335 82.1071 273.736H80.8891C80.7491 273.325 80.5251 273.031 80.2171 272.854C79.9185 272.677 79.5638 272.593 79.1531 272.602C78.7518 272.602 78.3971 272.681 78.0891 272.84C77.7905 272.989 77.5478 273.19 77.3611 273.442C77.1838 273.694 77.0531 273.988 76.9691 274.324C76.8851 274.651 76.8431 274.987 76.8431 275.332C76.8431 275.696 76.8851 276.041 76.9691 276.368C77.0625 276.695 77.1978 276.984 77.3751 277.236C77.5618 277.479 77.7998 277.675 78.0891 277.824C78.3785 277.964 78.7238 278.034 79.1251 278.034C79.3211 278.034 79.5125 278.015 79.6991 277.978C79.8951 277.941 80.0725 277.88 80.2311 277.796C80.3991 277.703 80.5438 277.581 80.6651 277.432C80.7865 277.283 80.8751 277.101 80.9311 276.886H82.1631C82.0885 277.269 81.9531 277.6 81.7571 277.88C81.5705 278.151 81.3371 278.379 81.0571 278.566C80.7771 278.743 80.4691 278.874 80.1331 278.958C79.7971 279.042 79.4471 279.084 79.0831 279.084ZM84.3574 268.92C84.5814 268.92 84.7727 268.995 84.9314 269.144C85.0901 269.284 85.1694 269.471 85.1694 269.704C85.1694 269.937 85.0901 270.129 84.9314 270.278C84.7727 270.427 84.5814 270.502 84.3574 270.502C84.1241 270.502 83.9327 270.427 83.7834 270.278C83.6341 270.129 83.5594 269.937 83.5594 269.704C83.5594 269.471 83.6341 269.284 83.7834 269.144C83.9327 268.995 84.1241 268.92 84.3574 268.92ZM83.7694 279V271.622H84.9594V279H83.7694ZM86.939 281.66V271.622H88.073L88.129 272.728C88.381 272.345 88.7216 272.056 89.151 271.86C89.5896 271.655 90.061 271.547 90.565 271.538C91.1343 271.538 91.615 271.636 92.007 271.832C92.4083 272.019 92.7396 272.285 93.001 272.63C93.2716 272.966 93.4723 273.367 93.603 273.834C93.7336 274.291 93.799 274.786 93.799 275.318C93.799 275.859 93.7336 276.359 93.603 276.816C93.4723 277.273 93.2716 277.67 93.001 278.006C92.7303 278.342 92.3896 278.608 91.979 278.804C91.5683 278.991 91.0783 279.084 90.509 279.084C89.949 279.084 89.473 278.995 89.081 278.818C88.689 278.641 88.3716 278.393 88.129 278.076V281.66H86.939ZM90.411 278.034C90.8123 278.034 91.1483 277.964 91.419 277.824C91.699 277.675 91.923 277.479 92.091 277.236C92.2683 276.984 92.3943 276.695 92.469 276.368C92.553 276.041 92.5996 275.691 92.609 275.318C92.609 274.945 92.567 274.595 92.483 274.268C92.4083 273.932 92.2823 273.643 92.105 273.4C91.9276 273.157 91.6943 272.966 91.405 272.826C91.125 272.677 90.7843 272.602 90.383 272.602C89.907 272.602 89.4963 272.733 89.151 272.994C88.8056 273.246 88.5443 273.568 88.367 273.96C88.2643 274.175 88.1943 274.399 88.157 274.632C88.1196 274.856 88.101 275.089 88.101 275.332C88.101 275.612 88.1196 275.873 88.157 276.116C88.1943 276.349 88.2643 276.573 88.367 276.788C88.5443 277.143 88.801 277.441 89.137 277.684C89.4823 277.917 89.907 278.034 90.411 278.034ZM96.0742 268.92C96.2982 268.92 96.4895 268.995 96.6482 269.144C96.8069 269.284 96.8862 269.471 96.8862 269.704C96.8862 269.937 96.8069 270.129 96.6482 270.278C96.4895 270.427 96.2982 270.502 96.0742 270.502C95.8409 270.502 95.6495 270.427 95.5002 270.278C95.3509 270.129 95.2762 269.937 95.2762 269.704C95.2762 269.471 95.3509 269.284 95.5002 269.144C95.6495 268.995 95.8409 268.92 96.0742 268.92ZM95.4862 279V271.622H96.6762V279H95.4862ZM99.5798 275.752C99.6078 276.079 99.6731 276.382 99.7758 276.662C99.8878 276.933 100.037 277.171 100.224 277.376C100.41 277.581 100.639 277.745 100.91 277.866C101.19 277.978 101.512 278.034 101.876 278.034C102.053 278.034 102.235 278.02 102.422 277.992C102.618 277.955 102.8 277.899 102.968 277.824C103.136 277.74 103.285 277.633 103.416 277.502C103.546 277.371 103.644 277.213 103.71 277.026H104.928C104.844 277.381 104.699 277.689 104.494 277.95C104.298 278.211 104.06 278.426 103.78 278.594C103.509 278.762 103.206 278.888 102.87 278.972C102.534 279.047 102.193 279.084 101.848 279.084C101.26 279.084 100.746 278.991 100.308 278.804C99.8784 278.617 99.5191 278.361 99.2298 278.034C98.9404 277.698 98.7258 277.301 98.5858 276.844C98.4458 276.377 98.3758 275.869 98.3758 275.318C98.3758 274.767 98.4504 274.263 98.5998 273.806C98.7584 273.339 98.9824 272.938 99.2718 272.602C99.5611 272.266 99.9158 272.005 100.336 271.818C100.756 271.631 101.255 271.538 101.834 271.538C102.422 271.538 102.93 271.655 103.36 271.888C103.789 272.121 104.134 272.429 104.396 272.812C104.657 273.185 104.839 273.591 104.942 274.03C105.054 274.469 105.1 274.875 105.082 275.248C105.082 275.332 105.077 275.416 105.068 275.5C105.068 275.584 105.063 275.668 105.054 275.752H99.5798ZM103.878 274.716C103.859 274.091 103.663 273.582 103.29 273.19C102.916 272.798 102.417 272.602 101.792 272.602C101.446 272.602 101.143 272.658 100.882 272.77C100.62 272.882 100.401 273.036 100.224 273.232C100.046 273.428 99.9064 273.657 99.8038 273.918C99.7011 274.17 99.6358 274.436 99.6078 274.716H103.878ZM106.681 279V271.622H107.829L107.885 272.742C108.006 272.537 108.156 272.359 108.333 272.21C108.52 272.061 108.72 271.935 108.935 271.832C109.15 271.729 109.374 271.655 109.607 271.608C109.85 271.561 110.083 271.538 110.307 271.538C110.839 271.538 111.287 271.627 111.651 271.804C112.015 271.972 112.304 272.21 112.519 272.518C112.734 272.817 112.888 273.176 112.981 273.596C113.074 274.007 113.121 274.45 113.121 274.926V279H111.931V275.248C111.931 274.903 111.908 274.571 111.861 274.254C111.824 273.937 111.74 273.657 111.609 273.414C111.488 273.162 111.31 272.961 111.077 272.812C110.844 272.663 110.531 272.588 110.139 272.588C109.756 272.597 109.416 272.691 109.117 272.868C108.828 273.045 108.594 273.255 108.417 273.498C108.202 273.806 108.058 274.147 107.983 274.52C107.908 274.884 107.871 275.253 107.871 275.626V279H106.681ZM116.815 271.622H118.789V272.672H116.815V276.494C116.815 276.998 116.913 277.371 117.109 277.614C117.305 277.847 117.669 277.964 118.201 277.964H118.747V279H117.949C117.109 279 116.511 278.809 116.157 278.426C115.802 278.043 115.625 277.441 115.625 276.62V272.672H114.421V271.622H115.625V269.424H116.815V271.622ZM121.549 270.362C121.306 270.343 121.11 270.264 120.961 270.124C120.812 269.984 120.737 269.797 120.737 269.564C120.737 269.303 120.821 269.102 120.989 268.962C121.157 268.822 121.367 268.752 121.619 268.752C121.918 268.78 122.137 268.901 122.277 269.116C122.398 269.34 122.459 269.587 122.459 269.858C122.459 270.11 122.417 270.348 122.333 270.572C122.258 270.787 122.156 270.992 122.025 271.188C121.894 271.384 121.74 271.557 121.563 271.706C121.395 271.855 121.218 271.963 121.031 272.028L120.695 271.566C120.882 271.435 121.054 271.258 121.213 271.034C121.381 270.81 121.493 270.586 121.549 270.362ZM126.553 272.602C126.385 272.602 126.213 272.616 126.035 272.644C125.867 272.663 125.699 272.709 125.531 272.784C125.373 272.849 125.233 272.952 125.111 273.092C124.999 273.223 124.939 273.4 124.929 273.624C124.929 273.941 125.046 274.179 125.279 274.338C125.522 274.497 125.835 274.613 126.217 274.688C126.376 274.725 126.549 274.763 126.735 274.8C126.922 274.828 127.104 274.861 127.281 274.898C127.468 274.926 127.641 274.959 127.799 274.996C127.967 275.033 128.107 275.071 128.219 275.108C129.115 275.388 129.563 275.99 129.563 276.914C129.554 277.362 129.456 277.726 129.269 278.006C129.092 278.277 128.863 278.491 128.583 278.65C128.313 278.809 128 278.921 127.645 278.986C127.3 279.051 126.955 279.084 126.609 279.084C126.273 279.084 125.933 279.051 125.587 278.986C125.242 278.921 124.925 278.809 124.635 278.65C124.355 278.482 124.113 278.267 123.907 278.006C123.711 277.735 123.585 277.399 123.529 276.998H124.733C124.808 277.222 124.925 277.399 125.083 277.53C125.242 277.661 125.41 277.763 125.587 277.838C125.774 277.913 125.947 277.964 126.105 277.992C126.273 278.02 126.46 278.034 126.665 278.034C126.815 278.034 126.987 278.025 127.183 278.006C127.379 277.987 127.566 277.945 127.743 277.88C127.921 277.805 128.07 277.698 128.191 277.558C128.313 277.418 128.373 277.222 128.373 276.97C128.373 276.69 128.28 276.48 128.093 276.34C127.916 276.2 127.669 276.097 127.351 276.032C127.127 275.985 126.894 275.943 126.651 275.906C126.418 275.859 126.18 275.813 125.937 275.766C125.704 275.71 125.475 275.649 125.251 275.584C125.027 275.509 124.817 275.411 124.621 275.29C124.36 275.131 124.15 274.917 123.991 274.646C123.833 274.375 123.753 274.044 123.753 273.652C123.772 273.241 123.865 272.905 124.033 272.644C124.201 272.373 124.416 272.154 124.677 271.986C124.957 271.818 125.256 271.701 125.573 271.636C125.891 271.571 126.227 271.538 126.581 271.538C127.337 271.538 127.939 271.701 128.387 272.028C128.658 272.215 128.868 272.439 129.017 272.7C129.167 272.961 129.26 273.237 129.297 273.526H128.191C128.126 273.255 127.949 273.036 127.659 272.868C127.37 272.7 127.001 272.611 126.553 272.602ZM135.742 275.752C135.77 276.079 135.835 276.382 135.938 276.662C136.05 276.933 136.199 277.171 136.386 277.376C136.573 277.581 136.801 277.745 137.072 277.866C137.352 277.978 137.674 278.034 138.038 278.034C138.215 278.034 138.397 278.02 138.584 277.992C138.78 277.955 138.962 277.899 139.13 277.824C139.298 277.74 139.447 277.633 139.578 277.502C139.709 277.371 139.807 277.213 139.872 277.026H141.09C141.006 277.381 140.861 277.689 140.656 277.95C140.46 278.211 140.222 278.426 139.942 278.594C139.671 278.762 139.368 278.888 139.032 278.972C138.696 279.047 138.355 279.084 138.01 279.084C137.422 279.084 136.909 278.991 136.47 278.804C136.041 278.617 135.681 278.361 135.392 278.034C135.103 277.698 134.888 277.301 134.748 276.844C134.608 276.377 134.538 275.869 134.538 275.318C134.538 274.767 134.613 274.263 134.762 273.806C134.921 273.339 135.145 272.938 135.434 272.602C135.723 272.266 136.078 272.005 136.498 271.818C136.918 271.631 137.417 271.538 137.996 271.538C138.584 271.538 139.093 271.655 139.522 271.888C139.951 272.121 140.297 272.429 140.558 272.812C140.819 273.185 141.001 273.591 141.104 274.03C141.216 274.469 141.263 274.875 141.244 275.248C141.244 275.332 141.239 275.416 141.23 275.5C141.23 275.584 141.225 275.668 141.216 275.752H135.742ZM140.04 274.716C140.021 274.091 139.825 273.582 139.452 273.19C139.079 272.798 138.579 272.602 137.954 272.602C137.609 272.602 137.305 272.658 137.044 272.77C136.783 272.882 136.563 273.036 136.386 273.232C136.209 273.428 136.069 273.657 135.966 273.918C135.863 274.17 135.798 274.436 135.77 274.716H140.04ZM144.047 272.504C144.281 272.177 144.565 271.935 144.901 271.776C145.247 271.617 145.629 271.538 146.049 271.538C146.563 271.547 146.978 271.659 147.295 271.874C147.613 272.089 147.851 272.373 148.009 272.728C148.261 272.355 148.569 272.065 148.933 271.86C149.307 271.645 149.745 271.538 150.249 271.538C150.651 271.538 150.996 271.608 151.285 271.748C151.575 271.879 151.808 272.065 151.985 272.308C152.163 272.541 152.293 272.817 152.377 273.134C152.461 273.451 152.503 273.797 152.503 274.17V279H151.313V274.772C151.313 274.529 151.299 274.282 151.271 274.03C151.253 273.769 151.197 273.535 151.103 273.33C151.01 273.115 150.87 272.943 150.683 272.812C150.497 272.672 150.245 272.602 149.927 272.602C149.619 272.602 149.358 272.677 149.143 272.826C148.929 272.966 148.756 273.153 148.625 273.386C148.504 273.619 148.415 273.876 148.359 274.156C148.303 274.436 148.275 274.711 148.275 274.982V279H147.085V274.758C147.085 274.525 147.076 274.282 147.057 274.03C147.039 273.769 146.983 273.535 146.889 273.33C146.805 273.115 146.675 272.943 146.497 272.812C146.32 272.672 146.073 272.602 145.755 272.602C145.419 272.602 145.139 272.677 144.915 272.826C144.701 272.975 144.523 273.167 144.383 273.4C144.253 273.633 144.159 273.895 144.103 274.184C144.057 274.464 144.033 274.735 144.033 274.996V279H142.843V271.622H143.991L144.047 272.504ZM159.172 278.062C159.013 278.277 158.831 278.449 158.626 278.58C158.421 278.711 158.206 278.813 157.982 278.888C157.767 278.963 157.548 279.014 157.324 279.042C157.109 279.07 156.895 279.084 156.68 279.084C156.335 279.084 156.008 279.042 155.7 278.958C155.392 278.874 155.112 278.739 154.86 278.552C154.617 278.365 154.421 278.132 154.272 277.852C154.132 277.572 154.062 277.255 154.062 276.9C154.062 276.48 154.137 276.13 154.286 275.85C154.445 275.561 154.655 275.327 154.916 275.15C155.177 274.973 155.476 274.851 155.812 274.786C156.157 274.711 156.521 274.674 156.904 274.674H159.074C159.074 274.049 158.939 273.554 158.668 273.19C158.397 272.817 157.94 272.621 157.296 272.602C156.904 272.602 156.559 272.667 156.26 272.798C155.961 272.929 155.756 273.143 155.644 273.442H154.37C154.435 273.106 154.566 272.821 154.762 272.588C154.958 272.345 155.191 272.149 155.462 272C155.733 271.841 156.027 271.725 156.344 271.65C156.661 271.575 156.979 271.538 157.296 271.538C157.847 271.538 158.309 271.631 158.682 271.818C159.065 271.995 159.373 272.233 159.606 272.532C159.839 272.821 160.003 273.176 160.096 273.596C160.189 274.016 160.236 274.487 160.236 275.01V279H159.242L159.172 278.062ZM157.772 275.668C157.548 275.668 157.287 275.673 156.988 275.682C156.699 275.682 156.419 275.71 156.148 275.766C155.877 275.822 155.658 275.939 155.49 276.116C155.331 276.293 155.252 276.527 155.252 276.816C155.252 277.031 155.294 277.213 155.378 277.362C155.462 277.511 155.574 277.637 155.714 277.74C155.863 277.843 156.031 277.917 156.218 277.964C156.405 278.011 156.596 278.034 156.792 278.034C157.492 278.034 158.043 277.866 158.444 277.53C158.855 277.185 159.065 276.685 159.074 276.032V275.668H157.772ZM162.766 268.92C162.99 268.92 163.181 268.995 163.34 269.144C163.498 269.284 163.578 269.471 163.578 269.704C163.578 269.937 163.498 270.129 163.34 270.278C163.181 270.427 162.99 270.502 162.766 270.502C162.532 270.502 162.341 270.427 162.192 270.278C162.042 270.129 161.968 269.937 161.968 269.704C161.968 269.471 162.042 269.284 162.192 269.144C162.341 268.995 162.532 268.92 162.766 268.92ZM162.178 279V271.622H163.368V279H162.178ZM165.347 279V269.102H166.537V279H165.347ZM173.681 279H172.463V269.102H173.681V279ZM176.114 269.102H179.628C180.393 269.102 181.065 269.223 181.644 269.466C182.232 269.699 182.722 270.035 183.114 270.474C183.506 270.903 183.8 271.426 183.996 272.042C184.192 272.649 184.29 273.321 184.29 274.058C184.28 274.795 184.178 275.467 183.982 276.074C183.786 276.681 183.492 277.203 183.1 277.642C182.717 278.071 182.236 278.407 181.658 278.65C181.079 278.883 180.402 279 179.628 279H176.114V269.102ZM177.332 270.208V277.894H179.544C180.048 277.894 180.528 277.819 180.986 277.67C181.452 277.511 181.849 277.236 182.176 276.844C182.474 276.499 182.694 276.093 182.834 275.626C182.974 275.15 183.044 274.627 183.044 274.058C183.044 273.47 182.974 272.947 182.834 272.49C182.694 272.033 182.484 271.636 182.204 271.3C181.924 270.964 181.569 270.698 181.14 270.502C180.71 270.306 180.202 270.208 179.614 270.208H177.332ZM186.476 277.432C186.719 277.432 186.92 277.511 187.078 277.67C187.237 277.829 187.316 278.029 187.316 278.272C187.316 278.515 187.237 278.715 187.078 278.874C186.92 279.033 186.719 279.112 186.476 279.112C186.234 279.112 186.033 279.033 185.874 278.874C185.716 278.715 185.636 278.515 185.636 278.272C185.636 278.029 185.716 277.829 185.874 277.67C186.033 277.511 186.234 277.432 186.476 277.432Z" fill="#C4C4C4"/>
<path d="M107.12 217.936C107.056 217.456 106.843 217.115 106.48 216.912C106.117 216.699 105.664 216.581 105.12 216.56C104.928 216.56 104.725 216.576 104.512 216.608C104.309 216.64 104.117 216.704 103.936 216.8C103.755 216.896 103.605 217.024 103.488 217.184C103.371 217.344 103.312 217.541 103.312 217.776C103.301 218.021 103.36 218.229 103.488 218.4C103.627 218.571 103.808 218.709 104.032 218.816C104.192 218.891 104.363 218.96 104.544 219.024C104.736 219.077 104.923 219.131 105.104 219.184C105.285 219.227 105.461 219.264 105.632 219.296C105.803 219.328 105.952 219.36 106.08 219.392C106.539 219.488 106.981 219.6 107.408 219.728C107.835 219.856 108.213 220.032 108.544 220.256C108.875 220.48 109.141 220.779 109.344 221.152C109.547 221.525 109.653 222.011 109.664 222.608C109.664 223.259 109.541 223.813 109.296 224.272C109.051 224.731 108.72 225.099 108.304 225.376C107.909 225.653 107.451 225.856 106.928 225.984C106.405 226.101 105.829 226.149 105.2 226.128C104.592 226.117 104.021 226.037 103.488 225.888C102.955 225.728 102.48 225.499 102.064 225.2C101.659 224.901 101.333 224.528 101.088 224.08C100.843 223.632 100.704 223.104 100.672 222.496H103.04C103.104 222.773 103.211 223.003 103.36 223.184C103.509 223.365 103.685 223.515 103.888 223.632C104.091 223.749 104.315 223.835 104.56 223.888C104.816 223.941 105.072 223.973 105.328 223.984C105.595 223.995 105.851 223.984 106.096 223.952C106.341 223.92 106.555 223.861 106.736 223.776C106.928 223.68 107.077 223.552 107.184 223.392C107.291 223.232 107.344 223.029 107.344 222.784C107.344 222.443 107.237 222.192 107.024 222.032C106.821 221.872 106.597 221.76 106.352 221.696C106.181 221.653 106.027 221.616 105.888 221.584C105.76 221.541 105.632 221.509 105.504 221.488C105.376 221.456 105.243 221.424 105.104 221.392C104.965 221.36 104.805 221.323 104.624 221.28C104.219 221.173 103.797 221.056 103.36 220.928C102.933 220.789 102.549 220.597 102.208 220.352C101.792 220.064 101.477 219.696 101.264 219.248C101.061 218.8 100.971 218.304 100.992 217.76C101.024 217.12 101.173 216.592 101.44 216.176C101.707 215.749 102.048 215.413 102.464 215.168C102.88 214.923 103.339 214.752 103.84 214.656C104.341 214.56 104.843 214.517 105.344 214.528C105.899 214.539 106.411 214.619 106.88 214.768C107.36 214.907 107.776 215.115 108.128 215.392C108.491 215.669 108.784 216.021 109.008 216.448C109.232 216.875 109.371 217.371 109.424 217.936H107.12ZM110.284 216.736V214.672H119.708V216.736H116.156V226H113.836V216.736H110.284ZM129.093 214.672V216.736H123.317V219.376H128.357V221.44H123.317V223.952H129.093V226H120.997V214.672H129.093ZM135.224 214.672C135.907 214.672 136.525 214.747 137.08 214.896C137.635 215.035 138.104 215.264 138.488 215.584C138.883 215.893 139.181 216.304 139.384 216.816C139.597 217.317 139.699 217.936 139.688 218.672C139.677 219.312 139.565 219.883 139.352 220.384C139.139 220.875 138.84 221.291 138.456 221.632C138.083 221.963 137.629 222.219 137.096 222.4C136.573 222.571 136.003 222.656 135.384 222.656H133.192V226H130.872V214.672H135.224ZM135.256 220.608C135.544 220.608 135.816 220.571 136.072 220.496C136.339 220.421 136.568 220.304 136.76 220.144C136.952 219.984 137.107 219.787 137.224 219.552C137.341 219.317 137.405 219.04 137.416 218.72C137.437 217.995 137.24 217.483 136.824 217.184C136.419 216.885 135.891 216.736 135.24 216.736H133.192V220.608H135.256ZM145.265 217.872C145.319 217.296 145.452 216.805 145.665 216.4C145.879 215.995 146.161 215.648 146.513 215.36C146.876 215.072 147.292 214.864 147.761 214.736C148.241 214.597 148.78 214.528 149.377 214.528C149.857 214.528 150.311 214.581 150.737 214.688C151.175 214.784 151.569 214.949 151.921 215.184C152.284 215.419 152.572 215.728 152.785 216.112C153.009 216.496 153.121 216.965 153.121 217.52C153.121 217.989 153.004 218.437 152.769 218.864C152.535 219.291 152.193 219.627 151.745 219.872C152.396 220.085 152.865 220.443 153.153 220.944C153.441 221.445 153.575 222.032 153.553 222.704C153.532 223.323 153.399 223.845 153.153 224.272C152.908 224.699 152.593 225.051 152.209 225.328C151.825 225.595 151.383 225.792 150.881 225.92C150.38 226.048 149.857 226.112 149.313 226.112C148.108 226.112 147.121 225.84 146.353 225.296C145.585 224.752 145.116 223.888 144.945 222.704H147.233C147.308 222.971 147.415 223.189 147.553 223.36C147.703 223.531 147.868 223.669 148.049 223.776C148.241 223.872 148.444 223.941 148.657 223.984C148.871 224.016 149.089 224.032 149.313 224.032C149.569 224.032 149.815 224.005 150.049 223.952C150.284 223.899 150.492 223.813 150.673 223.696C150.855 223.579 150.999 223.424 151.105 223.232C151.212 223.029 151.265 222.784 151.265 222.496C151.265 222.283 151.217 222.085 151.121 221.904C151.036 221.723 150.919 221.589 150.769 221.504C150.577 221.376 150.364 221.296 150.129 221.264C149.905 221.221 149.671 221.2 149.425 221.2H148.289V219.312H149.057C149.335 219.312 149.585 219.28 149.809 219.216C150.033 219.141 150.236 219.029 150.417 218.88C150.545 218.763 150.652 218.629 150.737 218.48C150.823 218.32 150.865 218.133 150.865 217.92C150.865 217.664 150.823 217.451 150.737 217.28C150.652 217.099 150.535 216.96 150.385 216.864C150.236 216.757 150.06 216.683 149.857 216.64C149.655 216.597 149.441 216.576 149.217 216.576C148.812 216.576 148.455 216.683 148.145 216.896C147.836 217.099 147.633 217.424 147.537 217.872H145.265Z" fill="white"/>
<rect x="40" y="55" width="170" height="38" rx="5" fill="#313131"/>
<path d="M55.938 79V69.102H57.128V72.756C57.2493 72.5693 57.4033 72.3967 57.59 72.238C57.7767 72.0793 57.9727 71.9487 58.178 71.846C58.3833 71.7433 58.6073 71.6687 58.85 71.622C59.102 71.566 59.3447 71.538 59.578 71.538C60.11 71.538 60.5533 71.6267 60.908 71.804C61.272 71.972 61.5613 72.21 61.776 72.518C62 72.8167 62.154 73.176 62.238 73.596C62.3313 74.0067 62.378 74.4547 62.378 74.94V79H61.188V75.304C61.188 74.968 61.1693 74.6413 61.132 74.324C61.0947 73.9973 61.0107 73.708 60.88 73.456C60.7493 73.204 60.5627 72.9987 60.32 72.84C60.0773 72.672 59.746 72.588 59.326 72.588C58.9807 72.588 58.6587 72.6767 58.36 72.854C58.0707 73.022 57.8373 73.2367 57.66 73.498C57.4453 73.7873 57.3007 74.1093 57.226 74.464C57.1607 74.8187 57.128 75.1827 57.128 75.556V79H55.938ZM66.0715 71.622H68.3395V72.672H66.0715V76.508C66.0715 76.7227 66.0808 76.9233 66.0995 77.11C66.1275 77.2873 66.1742 77.446 66.2395 77.586C66.3142 77.7167 66.4168 77.824 66.5475 77.908C66.6875 77.9827 66.8742 78.0247 67.1075 78.034C67.3222 78.034 67.5088 77.9967 67.6675 77.922C67.8355 77.8473 67.9755 77.7587 68.0875 77.656L68.6055 78.524C68.3628 78.7293 68.1108 78.874 67.8495 78.958C67.5882 79.042 67.2988 79.084 66.9815 79.084C66.5802 79.084 66.2442 79.028 65.9735 78.916C65.7028 78.7947 65.4742 78.622 65.2875 78.398C65.1288 78.1833 65.0215 77.9313 64.9655 77.642C64.9095 77.3527 64.8815 77.026 64.8815 76.662V72.672H63.6775V71.622H64.8815V69.41H66.0715V71.622ZM71.6223 71.622H73.5963V72.672H71.6223V76.494C71.6223 76.998 71.7203 77.3713 71.9163 77.614C72.1123 77.8473 72.4763 77.964 73.0083 77.964H73.5543V79H72.7563C71.9163 79 71.3189 78.8087 70.9643 78.426C70.6096 78.0433 70.4323 77.4413 70.4323 76.62V72.672H69.2283V71.622H70.4323V69.424H71.6223V71.622ZM74.9419 81.66V71.622H76.0759L76.1319 72.728C76.3839 72.3453 76.7246 72.056 77.1539 71.86C77.5926 71.6547 78.0639 71.5473 78.5679 71.538C79.1372 71.538 79.6179 71.636 80.0099 71.832C80.4112 72.0187 80.7426 72.2847 81.0039 72.63C81.2746 72.966 81.4752 73.3673 81.6059 73.834C81.7366 74.2913 81.8019 74.786 81.8019 75.318C81.8019 75.8593 81.7366 76.3587 81.6059 76.816C81.4752 77.2733 81.2746 77.67 81.0039 78.006C80.7332 78.342 80.3926 78.608 79.9819 78.804C79.5712 78.9907 79.0812 79.084 78.5119 79.084C77.9519 79.084 77.4759 78.9953 77.0839 78.818C76.6919 78.6407 76.3746 78.3933 76.1319 78.076V81.66H74.9419ZM78.4139 78.034C78.8152 78.034 79.1512 77.964 79.4219 77.824C79.7019 77.6747 79.9259 77.4787 80.0939 77.236C80.2712 76.984 80.3972 76.6947 80.4719 76.368C80.5559 76.0413 80.6026 75.6913 80.6119 75.318C80.6119 74.9447 80.5699 74.5947 80.4859 74.268C80.4112 73.932 80.2852 73.6427 80.1079 73.4C79.9306 73.1573 79.6972 72.966 79.4079 72.826C79.1279 72.6767 78.7872 72.602 78.3859 72.602C77.9099 72.602 77.4992 72.7327 77.1539 72.994C76.8086 73.246 76.5472 73.568 76.3699 73.96C76.2672 74.1747 76.1972 74.3987 76.1599 74.632C76.1226 74.856 76.1039 75.0893 76.1039 75.332C76.1039 75.612 76.1226 75.8733 76.1599 76.116C76.1972 76.3493 76.2672 76.5733 76.3699 76.788C76.5472 77.1427 76.8039 77.4413 77.1399 77.684C77.4852 77.9173 77.9099 78.034 78.4139 78.034ZM84.2171 72.448C84.4691 72.448 84.6698 72.5273 84.8191 72.686C84.9778 72.8447 85.0571 73.0453 85.0571 73.288C85.0571 73.54 84.9731 73.7453 84.8051 73.904C84.6465 74.0533 84.4505 74.128 84.2171 74.128C83.9745 74.128 83.7738 74.0487 83.6151 73.89C83.4658 73.7313 83.3911 73.5307 83.3911 73.288C83.3911 73.0453 83.4658 72.8447 83.6151 72.686C83.7738 72.5273 83.9745 72.448 84.2171 72.448ZM84.2171 77.432C84.4691 77.432 84.6698 77.5113 84.8191 77.67C84.9778 77.8287 85.0571 78.0293 85.0571 78.272C85.0571 78.5147 84.9731 78.7153 84.8051 78.874C84.6465 79.0327 84.4505 79.112 84.2171 79.112C83.9745 79.112 83.7738 79.0327 83.6151 78.874C83.4658 78.7153 83.3911 78.5147 83.3911 78.272C83.3911 78.0293 83.4658 77.8287 83.6151 77.67C83.7738 77.5113 83.9745 77.432 84.2171 77.432ZM90.4423 67.786H91.7023L87.3763 81.352H86.1163L90.4423 67.786ZM94.1747 67.786H95.4347L91.1087 81.352H89.8487L94.1747 67.786ZM99.5446 72.602C99.3766 72.602 99.2039 72.616 99.0266 72.644C98.8586 72.6627 98.6906 72.7093 98.5226 72.784C98.3639 72.8493 98.2239 72.952 98.1026 73.092C97.9906 73.2227 97.9299 73.4 97.9206 73.624C97.9206 73.9413 98.0373 74.1793 98.2706 74.338C98.5133 74.4967 98.8259 74.6133 99.2086 74.688C99.3673 74.7253 99.5399 74.7627 99.7266 74.8C99.9133 74.828 100.095 74.8607 100.273 74.898C100.459 74.926 100.632 74.9587 100.791 74.996C100.959 75.0333 101.099 75.0707 101.211 75.108C102.107 75.388 102.555 75.99 102.555 76.914C102.545 77.362 102.447 77.726 102.261 78.006C102.083 78.2767 101.855 78.4913 101.575 78.65C101.304 78.8087 100.991 78.9207 100.637 78.986C100.291 79.0513 99.9459 79.084 99.6006 79.084C99.2646 79.084 98.9239 79.0513 98.5786 78.986C98.2333 78.9207 97.9159 78.8087 97.6266 78.65C97.3466 78.482 97.1039 78.2673 96.8986 78.006C96.7026 77.7353 96.5766 77.3993 96.5206 76.998H97.7246C97.7993 77.222 97.9159 77.3993 98.0746 77.53C98.2333 77.6607 98.4013 77.7633 98.5786 77.838C98.7653 77.9127 98.9379 77.964 99.0966 77.992C99.2646 78.02 99.4513 78.034 99.6566 78.034C99.8059 78.034 99.9786 78.0247 100.175 78.006C100.371 77.9873 100.557 77.9453 100.735 77.88C100.912 77.8053 101.061 77.698 101.183 77.558C101.304 77.418 101.365 77.222 101.365 76.97C101.365 76.69 101.271 76.48 101.085 76.34C100.907 76.2 100.66 76.0973 100.343 76.032C100.119 75.9853 99.8853 75.9433 99.6426 75.906C99.4093 75.8593 99.1713 75.8127 98.9286 75.766C98.6953 75.71 98.4666 75.6493 98.2426 75.584C98.0186 75.5093 97.8086 75.4113 97.6126 75.29C97.3513 75.1313 97.1413 74.9167 96.9826 74.646C96.8239 74.3753 96.7446 74.044 96.7446 73.652C96.7633 73.2413 96.8566 72.9053 97.0246 72.644C97.1926 72.3733 97.4073 72.154 97.6686 71.986C97.9486 71.818 98.2473 71.7013 98.5646 71.636C98.8819 71.5707 99.2179 71.538 99.5726 71.538C100.329 71.538 100.931 71.7013 101.379 72.028C101.649 72.2147 101.859 72.4387 102.009 72.7C102.158 72.9613 102.251 73.2367 102.289 73.526H101.183C101.117 73.2553 100.94 73.036 100.651 72.868C100.361 72.7 99.9926 72.6113 99.5446 72.602ZM104.96 75.752C104.988 76.0787 105.053 76.382 105.156 76.662C105.268 76.9327 105.417 77.1707 105.604 77.376C105.79 77.5813 106.019 77.7447 106.29 77.866C106.57 77.978 106.892 78.034 107.256 78.034C107.433 78.034 107.615 78.02 107.802 77.992C107.998 77.9547 108.18 77.8987 108.348 77.824C108.516 77.74 108.665 77.6327 108.796 77.502C108.926 77.3713 109.024 77.2127 109.09 77.026H110.308C110.224 77.3807 110.079 77.6887 109.874 77.95C109.678 78.2113 109.44 78.426 109.16 78.594C108.889 78.762 108.586 78.888 108.25 78.972C107.914 79.0467 107.573 79.084 107.228 79.084C106.64 79.084 106.126 78.9907 105.688 78.804C105.258 78.6173 104.899 78.3607 104.61 78.034C104.32 77.698 104.106 77.3013 103.966 76.844C103.826 76.3773 103.756 75.8687 103.756 75.318C103.756 74.7673 103.83 74.2633 103.98 73.806C104.138 73.3393 104.362 72.938 104.652 72.602C104.941 72.266 105.296 72.0047 105.716 71.818C106.136 71.6313 106.635 71.538 107.214 71.538C107.802 71.538 108.31 71.6547 108.74 71.888C109.169 72.1213 109.514 72.4293 109.776 72.812C110.037 73.1853 110.219 73.5913 110.322 74.03C110.434 74.4687 110.48 74.8747 110.462 75.248C110.462 75.332 110.457 75.416 110.448 75.5C110.448 75.584 110.443 75.668 110.434 75.752H104.96ZM109.258 74.716C109.239 74.0907 109.043 73.582 108.67 73.19C108.296 72.798 107.797 72.602 107.172 72.602C106.826 72.602 106.523 72.658 106.262 72.77C106 72.882 105.781 73.036 105.604 73.232C105.426 73.428 105.286 73.6567 105.184 73.918C105.081 74.17 105.016 74.436 104.988 74.716H109.258ZM112.061 79V71.622H113.209L113.265 72.742C113.386 72.5367 113.536 72.3593 113.713 72.21C113.9 72.0607 114.1 71.9347 114.315 71.832C114.53 71.7293 114.754 71.6547 114.987 71.608C115.23 71.5613 115.463 71.538 115.687 71.538C116.219 71.538 116.667 71.6267 117.031 71.804C117.395 71.972 117.684 72.21 117.899 72.518C118.114 72.8167 118.268 73.176 118.361 73.596C118.454 74.0067 118.501 74.45 118.501 74.926V79H117.311V75.248C117.311 74.9027 117.288 74.5713 117.241 74.254C117.204 73.9367 117.12 73.6567 116.989 73.414C116.868 73.162 116.69 72.9613 116.457 72.812C116.224 72.6627 115.911 72.588 115.519 72.588C115.136 72.5973 114.796 72.6907 114.497 72.868C114.208 73.0453 113.974 73.2553 113.797 73.498C113.582 73.806 113.438 74.1467 113.363 74.52C113.288 74.884 113.251 75.2527 113.251 75.626V79H112.061ZM126.913 79H125.779L125.723 77.894C125.471 78.314 125.121 78.6173 124.673 78.804C124.234 78.9907 123.772 79.084 123.287 79.084C122.727 79.0747 122.241 78.9767 121.831 78.79C121.42 78.594 121.084 78.328 120.823 77.992C120.561 77.656 120.365 77.264 120.235 76.816C120.113 76.3587 120.053 75.864 120.053 75.332C120.053 74.8 120.118 74.3053 120.249 73.848C120.379 73.3813 120.58 72.98 120.851 72.644C121.121 72.2987 121.462 72.028 121.873 71.832C122.283 71.636 122.773 71.538 123.343 71.538C123.772 71.538 124.206 71.6173 124.645 71.776C125.083 71.9347 125.443 72.1913 125.723 72.546V69.102H126.913V79ZM123.441 72.602C123.039 72.602 122.699 72.6767 122.419 72.826C122.139 72.966 121.91 73.1573 121.733 73.4C121.565 73.6427 121.439 73.932 121.355 74.268C121.28 74.5947 121.243 74.954 121.243 75.346C121.243 75.738 121.28 76.0927 121.355 76.41C121.429 76.718 121.555 76.9933 121.733 77.236C121.91 77.4787 122.139 77.6747 122.419 77.824C122.699 77.964 123.044 78.034 123.455 78.034C123.931 78.034 124.323 77.922 124.631 77.698C124.939 77.474 125.186 77.194 125.373 76.858C125.503 76.6247 125.597 76.3727 125.653 76.102C125.709 75.822 125.737 75.5467 125.737 75.276C125.737 74.94 125.704 74.632 125.639 74.352C125.583 74.072 125.475 73.8107 125.317 73.568C125.13 73.2973 124.883 73.0687 124.575 72.882C124.267 72.6953 123.889 72.602 123.441 72.602ZM129.468 68.92C129.692 68.92 129.883 68.9947 130.042 69.144C130.2 69.284 130.28 69.4707 130.28 69.704C130.28 69.9373 130.2 70.1287 130.042 70.278C129.883 70.4273 129.692 70.502 129.468 70.502C129.234 70.502 129.043 70.4273 128.894 70.278C128.744 70.1287 128.67 69.9373 128.67 69.704C128.67 69.4707 128.744 69.284 128.894 69.144C129.043 68.9947 129.234 68.92 129.468 68.92ZM128.88 79V71.622H130.07V79H128.88ZM133.911 71.622H135.885V72.672H133.911V76.494C133.911 76.998 134.009 77.3713 134.205 77.614C134.401 77.8473 134.765 77.964 135.297 77.964H135.843V79H135.045C134.205 79 133.608 78.8087 133.253 78.426C132.899 78.0433 132.721 77.4413 132.721 76.62V72.672H131.517V71.622H132.721V69.424H133.911V71.622ZM141.165 67.786H142.425L138.099 81.352H136.839L141.165 67.786ZM143.063 71.622H144.407L146.731 77.852L149.013 71.622H150.371L147.529 79H145.905L143.063 71.622ZM151.688 77.432C151.931 77.432 152.131 77.5113 152.29 77.67C152.449 77.8287 152.528 78.0293 152.528 78.272C152.528 78.5147 152.449 78.7153 152.29 78.874C152.131 79.0327 151.931 79.112 151.688 79.112C151.445 79.112 151.245 79.0327 151.086 78.874C150.927 78.7153 150.848 78.5147 150.848 78.272C150.848 78.0293 150.927 77.8287 151.086 77.67C151.245 77.5113 151.445 77.432 151.688 77.432ZM155.243 77.432C155.486 77.432 155.686 77.5113 155.845 77.67C156.004 77.8287 156.083 78.0293 156.083 78.272C156.083 78.5147 156.004 78.7153 155.845 78.874C155.686 79.0327 155.486 79.112 155.243 79.112C155 79.112 154.8 79.0327 154.641 78.874C154.482 78.7153 154.403 78.5147 154.403 78.272C154.403 78.0293 154.482 77.8287 154.641 77.67C154.8 77.5113 155 77.432 155.243 77.432ZM158.798 77.432C159.04 77.432 159.241 77.5113 159.4 77.67C159.558 77.8287 159.638 78.0293 159.638 78.272C159.638 78.5147 159.558 78.7153 159.4 78.874C159.241 79.0327 159.04 79.112 158.798 79.112C158.555 79.112 158.354 79.0327 158.196 78.874C158.037 78.7153 157.958 78.5147 157.958 78.272C157.958 78.0293 158.037 77.8287 158.196 77.67C158.354 77.5113 158.555 77.432 158.798 77.432Z" fill="white"/>
<path d="M186.737 76.5H189.055C189.982 76.5 190.446 76.5 190.8 76.3183C191.112 76.1585 191.365 75.9036 191.524 75.59C191.705 75.2335 191.705 74.7668 191.705 73.8334V69.1667C191.705 68.2333 191.705 67.7666 191.524 67.41C191.365 67.0964 191.112 66.8414 190.8 66.6817C190.446 66.5 189.983 66.5 189.055 66.5H184.419C183.492 66.5 183.028 66.5 182.674 66.6817C182.362 66.8414 182.109 67.0964 181.95 67.41C181.77 67.7666 181.77 68.2333 181.77 69.1667V71.5001M176.803 78.8334V74.1667C176.803 73.2333 176.803 72.7666 176.983 72.41C177.142 72.0964 177.395 71.8414 177.707 71.6817C178.061 71.5 178.525 71.5 179.452 71.5H184.088C185.015 71.5 185.479 71.5 185.833 71.6817C186.144 71.8414 186.398 72.0964 186.557 72.41C186.737 72.7666 186.737 73.2333 186.737 74.1667V78.8334C186.737 79.7668 186.737 80.2335 186.557 80.59C186.398 80.9036 186.144 81.1585 185.833 81.3183C185.479 81.5 185.015 81.5 184.088 81.5H179.452C178.525 81.5 178.061 81.5 177.707 81.3183C177.395 81.1585 177.142 80.9036 176.983 80.59C176.803 80.2335 176.803 79.7668 176.803 78.8334Z" stroke="white" stroke-width="1.4" stroke-linecap="round" stroke-linejoin="round"/>
<path d="M43.29 39.87C43.1367 39.87 42.98 39.8833 42.82 39.91C42.66 39.9367 42.5133 39.9867 42.38 40.06C42.2467 40.1267 42.1367 40.2233 42.05 40.35C41.9633 40.47 41.92 40.6233 41.92 40.81C41.92 41.09 42.0133 41.3033 42.2 41.45C42.3867 41.59 42.61 41.6967 42.87 41.77C43.0567 41.8233 43.2433 41.8733 43.43 41.92C43.6233 41.9667 43.8 42.0067 43.96 42.04C44.24 42.1 44.5033 42.1733 44.75 42.26C45.0033 42.3467 45.2233 42.4633 45.41 42.61C45.5967 42.75 45.7433 42.93 45.85 43.15C45.9633 43.3633 46.02 43.63 46.02 43.95C46.02 44.33 45.95 44.6533 45.81 44.92C45.6767 45.1867 45.4933 45.4067 45.26 45.58C45.0267 45.7533 44.7533 45.88 44.44 45.96C44.1267 46.04 43.79 46.08 43.43 46.08C43.0633 46.08 42.7133 46.0433 42.38 45.97C42.0533 45.89 41.76 45.7667 41.5 45.6C41.24 45.4267 41.0233 45.2067 40.85 44.94C40.6767 44.6733 40.5667 44.3533 40.52 43.98H41.72C41.7733 44.18 41.86 44.3467 41.98 44.48C42.1 44.6133 42.2367 44.72 42.39 44.8C42.55 44.88 42.72 44.9367 42.9 44.97C43.08 45.0033 43.2567 45.02 43.43 45.02C43.6167 45.02 43.7967 45.0067 43.97 44.98C44.1433 44.9467 44.2933 44.8933 44.42 44.82C44.5467 44.7467 44.65 44.65 44.73 44.53C44.81 44.41 44.85 44.2533 44.85 44.06C44.85 43.7933 44.78 43.6 44.64 43.48C44.5 43.3533 44.3133 43.26 44.08 43.2C43.76 43.1067 43.43 43.0267 43.09 42.96C42.7567 42.8867 42.44 42.7933 42.14 42.68C41.94 42.6067 41.7567 42.52 41.59 42.42C41.4233 42.32 41.2767 42.2 41.15 42.06C41.0233 41.92 40.9233 41.7567 40.85 41.57C40.7833 41.3767 40.75 41.1533 40.75 40.9C40.75 40.5133 40.8233 40.19 40.97 39.93C41.1167 39.6633 41.3067 39.45 41.54 39.29C41.78 39.13 42.05 39.0167 42.35 38.95C42.65 38.8767 42.9567 38.84 43.27 38.84C43.6033 38.84 43.92 38.88 44.22 38.96C44.52 39.0333 44.7867 39.15 45.02 39.31C45.2533 39.47 45.44 39.6767 45.58 39.93C45.7267 40.1833 45.8133 40.49 45.84 40.85H44.7C44.6733 40.67 44.6167 40.52 44.53 40.4C44.45 40.28 44.3467 40.1833 44.22 40.11C44.1 40.03 43.96 39.9733 43.8 39.94C43.64 39.9 43.47 39.8767 43.29 39.87ZM48.1127 43.75C48.1261 43.9433 48.1661 44.1233 48.2327 44.29C48.2994 44.4567 48.3894 44.6033 48.5027 44.73C48.6227 44.85 48.7661 44.9467 48.9327 45.02C49.1061 45.0933 49.3061 45.13 49.5327 45.13C49.7727 45.13 49.9927 45.0867 50.1927 45C50.3927 44.9133 50.5394 44.7633 50.6327 44.55H51.8027C51.7361 44.8167 51.6261 45.0467 51.4727 45.24C51.3261 45.4333 51.1494 45.5933 50.9427 45.72C50.7427 45.84 50.5194 45.93 50.2727 45.99C50.0327 46.0433 49.7761 46.07 49.5027 46.07C49.0827 46.07 48.7127 46.0067 48.3927 45.88C48.0794 45.7533 47.8161 45.57 47.6027 45.33C47.3894 45.09 47.2294 44.8067 47.1227 44.48C47.0227 44.1467 46.9727 43.7733 46.9727 43.36C46.9727 42.96 47.0294 42.5967 47.1427 42.27C47.2561 41.9367 47.4194 41.65 47.6327 41.41C47.8527 41.17 48.1161 40.9833 48.4227 40.85C48.7294 40.71 49.0794 40.64 49.4727 40.64C49.8861 40.64 50.2427 40.71 50.5427 40.85C50.8427 40.9833 51.0927 41.1667 51.2927 41.4C51.4994 41.6333 51.6527 41.9067 51.7527 42.22C51.8527 42.5333 51.9027 42.8733 51.9027 43.24C51.9027 43.4133 51.8927 43.5833 51.8727 43.75H48.1127ZM50.7927 42.89C50.7794 42.49 50.6527 42.18 50.4127 41.96C50.1727 41.74 49.8627 41.63 49.4827 41.63C49.2694 41.63 49.0827 41.6633 48.9227 41.73C48.7627 41.7967 48.6261 41.8867 48.5127 42C48.4061 42.1133 48.3194 42.2467 48.2527 42.4C48.1861 42.5533 48.1427 42.7167 48.1227 42.89H50.7927ZM52.9345 46V40.73H54.0245L54.0845 41.46C54.2778 41.1867 54.5178 40.9833 54.8045 40.85C55.0978 40.71 55.4078 40.64 55.7345 40.64C56.1078 40.64 56.4211 40.7033 56.6745 40.83C56.9345 40.9567 57.1445 41.13 57.3045 41.35C57.4711 41.57 57.5878 41.83 57.6545 42.13C57.7278 42.43 57.7645 42.7567 57.7645 43.11V46H56.6245V43.28C56.6245 43.0533 56.6078 42.8433 56.5745 42.65C56.5478 42.4567 56.4911 42.2867 56.4045 42.14C56.3178 41.9867 56.1945 41.8667 56.0345 41.78C55.8811 41.6933 55.6811 41.65 55.4345 41.65C55.2011 41.65 54.9878 41.7067 54.7945 41.82C54.6078 41.9333 54.4611 42.08 54.3545 42.26C54.2545 42.44 54.1811 42.64 54.1345 42.86C54.0945 43.08 54.0745 43.29 54.0745 43.49V46H52.9345ZM63.9596 46H62.8896L62.8296 45.27C62.6363 45.55 62.3929 45.75 62.0996 45.87C61.8063 45.99 61.4763 46.0567 61.1096 46.07C60.7029 46.0633 60.3529 45.99 60.0596 45.85C59.7663 45.7033 59.5229 45.51 59.3296 45.27C59.1363 45.0233 58.9929 44.74 58.8996 44.42C58.8129 44.1 58.7696 43.76 58.7696 43.4C58.7696 43.0067 58.8196 42.6433 58.9196 42.31C59.0263 41.9767 59.1829 41.6867 59.3896 41.44C59.5963 41.1933 59.8496 41 60.1496 40.86C60.4496 40.7133 60.7996 40.64 61.1996 40.64C61.4863 40.64 61.7763 40.6867 62.0696 40.78C62.3629 40.8733 62.6129 41.0467 62.8196 41.3V38.93H63.9596V46ZM61.3296 41.67C61.0763 41.67 60.8596 41.7133 60.6796 41.8C60.4996 41.8867 60.3496 42.0067 60.2296 42.16C60.1163 42.3133 60.0329 42.4967 59.9796 42.71C59.9263 42.9167 59.8996 43.14 59.8996 43.38C59.8996 43.62 59.9263 43.8433 59.9796 44.05C60.0329 44.2567 60.1163 44.4367 60.2296 44.59C60.3496 44.7433 60.4996 44.8667 60.6796 44.96C60.8663 45.0467 61.0896 45.09 61.3496 45.09C61.5963 45.09 61.8096 45.0433 61.9896 44.95C62.1763 44.85 62.3296 44.72 62.4496 44.56C62.5763 44.4 62.6696 44.2167 62.7296 44.01C62.7896 43.8033 62.8196 43.59 62.8196 43.37C62.8196 43.1367 62.7896 42.9167 62.7296 42.71C62.6763 42.5033 62.5896 42.3267 62.4696 42.18C62.3496 42.0267 62.1963 41.9067 62.0096 41.82C61.8229 41.7267 61.5963 41.6767 61.3296 41.67ZM66.5601 46H65.4001V38.93H66.5601V46ZM69.5828 40.73H71.1628V41.72H69.5828V44.04C69.5828 44.1733 69.5895 44.3 69.6028 44.42C69.6228 44.54 69.6561 44.65 69.7028 44.75C69.7561 44.8433 69.8295 44.92 69.9228 44.98C70.0161 45.04 70.1428 45.07 70.3028 45.07C70.5828 45.07 70.8228 44.9867 71.0228 44.82L71.4028 45.67C71.2295 45.8033 71.0295 45.9033 70.8028 45.97C70.5761 46.03 70.3528 46.06 70.1328 46.06C69.5595 46.06 69.1361 45.9167 68.8628 45.63C68.5895 45.3367 68.4528 44.88 68.4528 44.26V41.72H67.6228V40.73H68.4528V39.23H69.5828V40.73ZM75.0192 38.93H76.1692V44.97H79.8492V46H75.0192V38.93ZM81.4653 38.54C81.672 38.54 81.842 38.6033 81.9753 38.73C82.1153 38.8567 82.1853 39.03 82.1853 39.25C82.1853 39.4633 82.1153 39.6333 81.9753 39.76C81.842 39.8867 81.672 39.95 81.4653 39.95C81.2453 39.95 81.0686 39.8867 80.9353 39.76C80.802 39.6333 80.7353 39.4633 80.7353 39.25C80.7353 39.03 80.802 38.8567 80.9353 38.73C81.0686 38.6033 81.2453 38.54 81.4653 38.54ZM80.8853 46V40.73H82.0253V46H80.8853ZM83.3446 46V40.73H84.4346L84.4946 41.46C84.6879 41.1867 84.9279 40.9833 85.2146 40.85C85.5079 40.71 85.8179 40.64 86.1446 40.64C86.5179 40.64 86.8313 40.7033 87.0846 40.83C87.3446 40.9567 87.5546 41.13 87.7146 41.35C87.8813 41.57 87.9979 41.83 88.0646 42.13C88.1379 42.43 88.1746 42.7567 88.1746 43.11V46H87.0346V43.28C87.0346 43.0533 87.0179 42.8433 86.9846 42.65C86.9579 42.4567 86.9013 42.2867 86.8146 42.14C86.7279 41.9867 86.6046 41.8667 86.4446 41.78C86.2913 41.6933 86.0913 41.65 85.8446 41.65C85.6113 41.65 85.3979 41.7067 85.2046 41.82C85.0179 41.9333 84.8713 42.08 84.7646 42.26C84.6646 42.44 84.5913 42.64 84.5446 42.86C84.5046 43.08 84.4846 43.29 84.4846 43.49V46H83.3446ZM89.3798 46V38.93H90.5098V42.88H91.3298L92.6898 40.73H93.9698L92.3098 43.24L94.1098 46H92.7898L91.3998 43.87H90.5098V46H89.3798Z" fill="white"/>
<rect x="40" y="113" width="170" height="38" rx="5" fill="white"/>
<path d="M93.34 129.952C93.292 129.592 93.132 129.336 92.86 129.184C92.588 129.024 92.248 128.936 91.84 128.92C91.696 128.92 91.544 128.932 91.384 128.956C91.232 128.98 91.088 129.028 90.952 129.1C90.816 129.172 90.704 129.268 90.616 129.388C90.528 129.508 90.484 129.656 90.484 129.832C90.476 130.016 90.52 130.172 90.616 130.3C90.72 130.428 90.856 130.532 91.024 130.612C91.144 130.668 91.272 130.72 91.408 130.768C91.552 130.808 91.692 130.848 91.828 130.888C91.964 130.92 92.096 130.948 92.224 130.972C92.352 130.996 92.464 131.02 92.56 131.044C92.904 131.116 93.236 131.2 93.556 131.296C93.876 131.392 94.16 131.524 94.408 131.692C94.656 131.86 94.856 132.084 95.008 132.364C95.16 132.644 95.24 133.008 95.248 133.456C95.248 133.944 95.156 134.36 94.972 134.704C94.788 135.048 94.54 135.324 94.228 135.532C93.932 135.74 93.588 135.892 93.196 135.988C92.804 136.076 92.372 136.112 91.9 136.096C91.444 136.088 91.016 136.028 90.616 135.916C90.216 135.796 89.86 135.624 89.548 135.4C89.244 135.176 89 134.896 88.816 134.56C88.632 134.224 88.528 133.828 88.504 133.372H90.28C90.328 133.58 90.408 133.752 90.52 133.888C90.632 134.024 90.764 134.136 90.916 134.224C91.068 134.312 91.236 134.376 91.42 134.416C91.612 134.456 91.804 134.48 91.996 134.488C92.196 134.496 92.388 134.488 92.572 134.464C92.756 134.44 92.916 134.396 93.052 134.332C93.196 134.26 93.308 134.164 93.388 134.044C93.468 133.924 93.508 133.772 93.508 133.588C93.508 133.332 93.428 133.144 93.268 133.024C93.116 132.904 92.948 132.82 92.764 132.772C92.636 132.74 92.52 132.712 92.416 132.688C92.32 132.656 92.224 132.632 92.128 132.616C92.032 132.592 91.932 132.568 91.828 132.544C91.724 132.52 91.604 132.492 91.468 132.46C91.164 132.38 90.848 132.292 90.52 132.196C90.2 132.092 89.912 131.948 89.656 131.764C89.344 131.548 89.108 131.272 88.948 130.936C88.796 130.6 88.728 130.228 88.744 129.82C88.768 129.34 88.88 128.944 89.08 128.632C89.28 128.312 89.536 128.06 89.848 127.876C90.16 127.692 90.504 127.564 90.88 127.492C91.256 127.42 91.632 127.388 92.008 127.396C92.424 127.404 92.808 127.464 93.16 127.576C93.52 127.68 93.832 127.836 94.096 128.044C94.368 128.252 94.588 128.516 94.756 128.836C94.924 129.156 95.028 129.528 95.068 129.952H93.34ZM102.73 127.504V129.052H98.3978V131.032H102.178V132.58H98.3978V134.464H102.73V136H96.6578V127.504H102.73ZM105.732 127.504L109.764 133.192V127.504H111.468V136H109.8L105.768 130.336V136H104.064V127.504H105.732ZM113.263 136V127.504H116.395C116.803 127.504 117.203 127.54 117.595 127.612C117.987 127.676 118.363 127.804 118.723 127.996C119.363 128.324 119.843 128.808 120.163 129.448C120.491 130.088 120.655 130.86 120.655 131.764C120.655 133.132 120.299 134.18 119.587 134.908C118.883 135.636 117.847 136 116.479 136H113.263ZM116.491 134.464C116.603 134.464 116.723 134.456 116.851 134.44C116.979 134.424 117.107 134.404 117.235 134.38C117.363 134.348 117.483 134.312 117.595 134.272C117.707 134.232 117.803 134.188 117.883 134.14C118.211 133.916 118.455 133.6 118.615 133.192C118.783 132.776 118.867 132.3 118.867 131.764C118.867 131.34 118.819 130.956 118.723 130.612C118.627 130.268 118.479 129.976 118.279 129.736C118.055 129.472 117.767 129.292 117.415 129.196C117.071 129.1 116.731 129.052 116.395 129.052H115.003V134.464H116.491ZM131.3 127.504V129.052H126.968V131.032H130.748V132.58H126.968V134.464H131.3V136H125.228V127.504H131.3ZM134.518 127.504L137.062 131.5L139.594 127.504H141.442V136H139.714V130.144L137.422 133.804H136.642L134.35 130.144V136H132.634V127.504H134.518ZM144.848 134.38L144.236 136H142.34L145.628 127.504H147.596L150.836 136H148.928L148.34 134.38H144.848ZM145.352 132.844H147.824L146.6 129.34L145.352 132.844ZM153.476 136H151.736V127.504H153.476V136ZM157.003 134.464H161.167V136H155.275V127.504H157.003V134.464Z" fill="black"/>
<rect x="-0.5" y="0.5" width="249" height="325" rx="9.5" transform="matrix(-1 0 0 1 249 0)" stroke="#363636"/>
</svg>
