<svg width="32" height="33" viewBox="0 0 32 33" fill="none" xmlns="http://www.w3.org/2000/svg">
<path d="M25.333 15.1673H17.333V7.16732C17.333 6.8137 17.1925 6.47456 16.9425 6.22451C16.6924 5.97446 16.3533 5.83398 15.9997 5.83398C15.6461 5.83398 15.3069 5.97446 15.0569 6.22451C14.8068 6.47456 14.6663 6.8137 14.6663 7.16732V15.1673H6.66634C6.31272 15.1673 5.97358 15.3078 5.72353 15.5578C5.47348 15.8079 5.33301 16.147 5.33301 16.5007C5.33301 16.8543 5.47348 17.1934 5.72353 17.4435C5.97358 17.6935 6.31272 17.834 6.66634 17.834H14.6663V25.834C14.6663 26.1876 14.8068 26.5267 15.0569 26.7768C15.3069 27.0268 15.6461 27.1673 15.9997 27.1673C16.3533 27.1673 16.6924 27.0268 16.9425 26.7768C17.1925 26.5267 17.333 26.1876 17.333 25.834V17.834H25.333C25.6866 17.834 26.0258 17.6935 26.2758 17.4435C26.5259 17.1934 26.6663 16.8543 26.6663 16.5007C26.6663 16.147 26.5259 15.8079 26.2758 15.5578C26.0258 15.3078 25.6866 15.1673 25.333 15.1673Z" fill="white"/>
</svg>
