<svg width="140" height="17" viewBox="0 0 140 17" fill="none" xmlns="http://www.w3.org/2000/svg">
<path d="M0.84 10.36H7.392C7.504 10.696 7.832 10.984 8.376 11.224C8.92 11.448 9.648 11.624 10.56 11.752C11.488 11.864 12.56 11.92 13.776 11.92C14.976 11.92 15.92 11.888 16.608 11.824C17.312 11.744 17.808 11.616 18.096 11.44C18.384 11.248 18.528 10.992 18.528 10.672C18.528 10.368 18.296 10.136 17.832 9.976C17.368 9.8 16.544 9.68 15.36 9.616C14.176 9.552 12.512 9.52 10.368 9.52C8.768 9.52 7.384 9.448 6.216 9.304C5.064 9.144 4.112 8.904 3.36 8.584C2.624 8.248 2.08 7.832 1.728 7.336C1.376 6.824 1.2 6.216 1.2 5.512C1.2 4.296 1.608 3.296 2.424 2.512C3.256 1.712 4.504 1.12 6.168 0.735999C7.848 0.335999 9.944 0.136 12.456 0.136C16.136 0.136 18.944 0.671999 20.88 1.744C22.832 2.8 23.808 4.328 23.808 6.328H17.592C17.512 5.8 17.016 5.4 16.104 5.128C15.192 4.84 13.896 4.696 12.216 4.696C10.552 4.696 9.312 4.792 8.496 4.984C7.696 5.176 7.296 5.504 7.296 5.968C7.296 6.208 7.408 6.4 7.632 6.544C7.856 6.688 8.24 6.808 8.784 6.904C9.344 6.984 10.128 7.04 11.136 7.072C12.144 7.104 13.424 7.12 14.976 7.12C16.688 7.12 18.144 7.208 19.344 7.384C20.544 7.544 21.512 7.792 22.248 8.128C23 8.464 23.544 8.896 23.88 9.424C24.216 9.936 24.384 10.544 24.384 11.248C24.384 12.464 24 13.456 23.232 14.224C22.464 14.992 21.248 15.56 19.584 15.928C17.92 16.296 15.744 16.48 13.056 16.48C11.536 16.48 10.136 16.392 8.856 16.216C7.592 16.04 6.464 15.784 5.472 15.448C4.48 15.096 3.64 14.672 2.952 14.176C2.264 13.664 1.736 13.096 1.368 12.472C1.016 11.832 0.84 11.128 0.84 10.36ZM33.0159 9.52V11.44H51.2559V16H27.0159V0.639999H51.2079V5.2H33.0159V7.12H47.8959V9.52H33.0159ZM78.4395 11.296L76.2075 12.568V0.639999H82.2075V16H76.2075L58.1355 5.536L60.3675 4.24V16H54.3675V0.639999H60.3675L78.4395 11.296ZM102.843 0.639999C105.003 0.639999 106.787 0.847999 108.195 1.264C109.603 1.68 110.707 2.248 111.507 2.968C112.307 3.688 112.867 4.512 113.187 5.44C113.523 6.352 113.691 7.312 113.691 8.32C113.691 9.328 113.507 10.296 113.139 11.224C112.771 12.136 112.163 12.952 111.315 13.672C110.483 14.392 109.371 14.96 107.979 15.376C106.603 15.792 104.891 16 102.843 16H85.5628V0.639999H102.843ZM91.5628 11.2H102.603C103.499 11.2 104.259 11.144 104.883 11.032C105.507 10.904 106.003 10.72 106.371 10.48C106.755 10.24 107.027 9.944 107.187 9.592C107.363 9.224 107.451 8.8 107.451 8.32C107.451 7.84 107.363 7.424 107.187 7.072C107.027 6.704 106.755 6.4 106.371 6.16C106.003 5.92 105.507 5.744 104.883 5.632C104.259 5.504 103.499 5.44 102.603 5.44H91.5628V11.2ZM117.429 0.472H120.621V16H117.429V0.472ZM123.386 0.472H139.754V3.136H123.386V0.472ZM129.986 2.8H133.178V16H129.986V2.8Z" fill="white"/>
</svg>
