<svg width="131" height="130" viewBox="0 0 131 130" fill="none" xmlns="http://www.w3.org/2000/svg">
<ellipse cx="65.3921" cy="64.6667" rx="64.7254" ry="64.6667" fill="url(#paint0_linear_8035_2081)"/>
<path d="M59.7776 70.2219L73.7776 56.2219M88.0989 47.678L76.2815 86.0846C75.2221 89.5276 74.6926 91.249 73.7791 91.8198C72.9868 92.3148 72.0048 92.3961 71.1419 92.0381C70.147 91.6252 69.3404 90.0143 67.7294 86.7923L60.2445 71.8224C59.9888 71.3111 59.8609 71.0554 59.6901 70.8339C59.5386 70.6373 59.363 70.4609 59.1665 70.3094C58.9449 70.1386 58.6886 70.0108 58.1773 69.7552L43.2074 62.2702C39.9854 60.6592 38.3742 59.854 37.9614 58.859C37.6033 57.9961 37.685 57.0131 38.18 56.2208C38.7508 55.3072 40.4725 54.7777 43.9155 53.7183L82.322 41.9009C85.0288 41.0681 86.3818 40.6516 87.2961 40.9872C88.0924 41.2796 88.7207 41.9072 89.013 42.7036C89.3487 43.6178 88.9317 44.9712 88.0989 47.678Z" stroke="white" stroke-width="4.66667" stroke-linecap="round" stroke-linejoin="round"/>
<defs>
<linearGradient id="paint0_linear_8035_2081" x1="-11.2982" y1="-13.1332" x2="131.048" y2="160.108" gradientUnits="userSpaceOnUse">
<stop stop-color="#363636"/>
<stop offset="1" stop-color="#363636" stop-opacity="0.35"/>
</linearGradient>
</defs>
</svg>
