<svg width="22" height="16" viewBox="0 0 22 16" fill="none" xmlns="http://www.w3.org/2000/svg">
<path d="M18.5877 1.33998C17.1673 0.713994 15.6485 0.259029 14.0608 0C13.8657 0.332086 13.6378 0.778743 13.4808 1.13408C11.7929 0.894977 10.1205 0.894977 8.46367 1.13408C8.30664 0.778743 8.07361 0.332086 7.87692 0C6.28738 0.259029 4.76686 0.715651 3.34646 1.3433C0.481501 5.42137 -0.295142 9.39811 0.0931812 13.3184C1.99338 14.6551 3.83489 15.467 5.64532 15.9983C6.09235 15.4189 6.49104 14.8029 6.83447 14.1536C6.18035 13.9195 5.55389 13.6306 4.96188 13.2951C5.11894 13.1856 5.27252 13.071 5.42098 12.9531C9.03155 14.5438 12.9544 14.5438 16.5218 12.9531C16.672 13.071 16.8256 13.1856 16.9809 13.2951C16.3872 13.6322 15.759 13.9211 15.1049 14.1553C15.4483 14.8029 15.8453 15.4205 16.294 16C18.1061 15.4687 19.9494 14.6567 21.8496 13.3184C22.3053 8.77377 21.0712 4.83354 18.5877 1.33998ZM7.32635 10.9075C6.24246 10.9075 5.35366 9.95434 5.35366 8.79371C5.35366 7.63309 6.22349 6.67834 7.32635 6.67834C8.42921 6.67834 9.31801 7.63137 9.29898 8.79371C9.30075 9.95434 8.42921 10.9075 7.32635 10.9075ZM14.6165 10.9075C13.5326 10.9075 12.6437 9.95434 12.6437 8.79371C12.6437 7.63309 13.5136 6.67834 14.6165 6.67834C15.7193 6.67834 16.6081 7.63137 16.5892 8.79371C16.5892 9.95434 15.7193 10.9075 14.6165 10.9075Z" fill="white"/>
</svg>
