<svg width="21" height="16" viewBox="0 0 21 16" fill="none" xmlns="http://www.w3.org/2000/svg">
<path d="M20.0174 0.987413C20.013 1.23076 19.9785 1.47264 19.9146 1.70749C19.8537 2.00098 19.7904 2.29403 19.7274 2.58753C19.6638 2.88765 19.6003 3.18777 19.5367 3.4879C19.4759 3.7778 19.4144 4.06798 19.3525 4.35841C19.3066 4.57758 19.2603 4.79687 19.2136 5.01632C19.136 5.38054 19.0582 5.74467 18.9803 6.10863C18.933 6.33124 18.8887 6.55422 18.8414 6.77683C18.7639 7.14121 18.6848 7.50476 18.6072 7.86913C18.5453 8.15931 18.4842 8.44953 18.4236 8.73971C18.3172 9.24627 18.2108 9.7528 18.1044 10.2594C18.0215 10.6611 17.9324 11.0627 17.8474 11.464C17.7387 11.9772 17.6313 12.4909 17.5223 13.0036C17.4162 13.5036 17.3097 14.0031 17.1995 14.5022C17.1505 14.8234 17.0687 15.1387 16.9553 15.4432C16.9092 15.5763 16.8303 15.6957 16.7262 15.7905C16.6221 15.8854 16.496 15.9527 16.3592 15.9863C16.1463 16.0205 15.928 15.9904 15.7324 15.8996C15.4859 15.7815 15.2556 15.6324 15.0468 15.456C14.6596 15.1774 14.2793 14.8906 13.8959 14.6075C13.2879 14.1581 12.68 13.7089 12.072 13.2598C11.7818 13.0447 11.4867 12.8316 11.1974 12.6136C11.1298 12.563 11.0896 12.5721 11.0316 12.6289C10.5977 13.0517 10.1623 13.4726 9.72542 13.8916C9.42886 14.1771 9.1311 14.4617 8.83238 14.7455C8.67 14.8985 8.46153 14.9936 8.23951 15.0158C8.15121 15.0266 8.10321 15.0079 8.11523 14.9014C8.14507 14.5888 8.17583 14.2758 8.18951 13.962C8.20029 13.6992 8.22637 13.4381 8.24295 13.1744C8.27611 12.6509 8.32876 12.1281 8.3557 11.6041C8.37021 11.3247 8.40876 11.0466 8.40793 10.7663C8.40391 10.7034 8.41469 10.6404 8.43927 10.5823C8.4639 10.5243 8.50158 10.4727 8.54962 10.4318C9.24232 9.81581 9.92548 9.1882 10.6124 8.56639C11.0352 8.18336 11.4586 7.80103 11.8825 7.4194L14.0596 5.45113C14.4833 5.06864 14.907 4.68648 15.3304 4.30452C15.7173 3.95523 16.1053 3.60617 16.4947 3.2574C16.542 3.21189 16.5867 3.16358 16.6282 3.11273C16.6503 3.09279 16.6656 3.06654 16.6722 3.03754C16.6788 3.00853 16.6764 2.97818 16.6651 2.95065C16.6502 2.92306 16.6276 2.90047 16.5999 2.88573C16.5723 2.87098 16.5408 2.86475 16.5096 2.86776C16.3292 2.87201 16.1541 2.92973 16.0064 3.03359C15.5649 3.30926 15.1264 3.58949 14.6857 3.86682C13.7461 4.45906 12.8052 5.05086 11.8631 5.64228L7.58955 8.33134C7.07279 8.65688 6.55611 8.98317 6.0393 9.31011C6.01696 9.32582 5.99105 9.33594 5.96398 9.33963C5.93695 9.34328 5.90955 9.34046 5.88385 9.33125C5.50165 9.21145 5.11899 9.09497 4.73678 8.97599C4.2725 8.83115 3.8084 8.68553 3.34439 8.53907C2.72466 8.34424 2.10451 8.15102 1.48727 7.95121C1.34593 7.9025 1.21559 7.82615 1.1041 7.72653C1.05312 7.68417 1.01229 7.63102 0.984477 7.57083C0.956662 7.51068 0.942633 7.44502 0.943388 7.37874C0.944143 7.31245 0.959753 7.2472 0.98893 7.18768C1.01811 7.12815 1.06006 7.07592 1.112 7.03471C1.29899 6.85418 1.52305 6.71651 1.76862 6.63137C2.62782 6.2975 3.48751 5.96504 4.34754 5.63399C5.22469 5.29543 6.10148 4.95729 6.97807 4.61957C8.00061 4.22634 9.02332 3.83378 10.0458 3.4419C10.5615 3.24334 11.0759 3.04189 11.5916 2.84332C12.371 2.54361 13.152 2.24637 13.9313 1.94583C14.5229 1.71783 15.1123 1.48527 15.7034 1.25728C16.2237 1.05664 16.7464 0.860581 17.267 0.660773C17.6783 0.502834 18.0873 0.338652 18.4993 0.182373C18.7205 0.0772248 18.9598 0.0153392 19.2041 0C19.387 0.00292581 19.5635 0.0680937 19.7043 0.184751C19.8451 0.30141 19.9421 0.462578 19.9789 0.641696C20.0065 0.754815 20.0194 0.870998 20.0174 0.987413Z" fill="white"/>
</svg>
