<svg width="19" height="16" viewBox="0 0 19 16" fill="none" xmlns="http://www.w3.org/2000/svg">
<path d="M9.30581 4.98227C9.10708 3.29925 9.46462 1.91877 10.732 0.885625C11.3626 0.341757 12.1602 0.0299726 12.9925 0.00205254C13.8248 -0.0258676 14.6416 0.231753 15.3073 0.732135C15.5574 0.964253 15.8754 1.11013 16.2145 1.14837C16.5536 1.18661 16.8961 1.1152 17.1916 0.944619C17.5337 0.785811 17.889 0.654949 18.2381 0.511223L18.3956 0.641197L16.9118 2.53049L18.8804 2.10464C18.3561 2.64982 17.98 3.10052 17.5403 3.47758C17.3847 3.59993 17.2592 3.75639 17.1736 3.9349C17.088 4.11341 17.0445 4.30921 17.0466 4.50717C16.8248 9.12948 14.8756 12.7674 10.6587 14.8666C7.29937 16.5394 3.86815 16.2918 0.544701 14.576C0.51498 14.5605 0.511866 14.4939 0.464844 14.3635C2.36604 14.3677 4.21157 13.7219 5.69535 12.5332C3.98792 12.2311 2.70813 11.5191 2.1208 9.87162L3.55895 9.73854C1.85242 8.93518 0.792221 7.77074 0.631194 5.82023L2.18379 6.16535C0.731004 4.60122 0.210218 2.93638 1.13024 0.839038C3.31187 3.30856 5.92824 4.7933 9.30581 4.98227Z" fill="white"/>
</svg>
