<svg width="23" height="16" viewBox="0 0 23 16" fill="none" xmlns="http://www.w3.org/2000/svg">
<path d="M8.94563 11.3767V4.6234L14.8127 8.00014L8.94563 11.3767ZM21.9962 2.49844C21.7381 1.515 20.9774 0.740518 20.0116 0.477679C18.2611 0 11.2414 0 11.2414 0C11.2414 0 4.22183 0 2.47131 0.477679C1.50554 0.740518 0.744867 1.515 0.486684 2.49844C0.0175781 4.28091 0.0175781 8.00005 0.0175781 8.00005C0.0175781 8.00005 0.0175781 11.719 0.486684 13.5016C0.744867 14.4851 1.50544 15.2595 2.47131 15.5225C4.22183 16 11.2414 16 11.2414 16C11.2414 16 18.2611 16 20.0116 15.5225C20.9774 15.2595 21.7381 14.4851 21.9962 13.5016C22.4654 11.719 22.4654 7.99995 22.4654 7.99995C22.4654 7.99995 22.4654 4.28091 21.9962 2.49844Z" fill="white"/>
</svg>
