<svg width="24" height="24" viewBox="0 0 24 24" fill="none" xmlns="http://www.w3.org/2000/svg">
<path d="M19.2008 5.00659C17.7707 4.3493 16.2415 3.87159 14.643 3.59961C14.4466 3.9483 14.2172 4.41729 14.0591 4.79039C12.3597 4.53934 10.6759 4.53934 9.00778 4.79039C8.84968 4.41729 8.61506 3.9483 8.41702 3.59961C6.81664 3.87159 5.28578 4.35104 3.85571 5.01007C0.971233 9.29202 0.189298 13.4676 0.580266 17.5839C2.4934 18.9874 4.34746 19.84 6.17023 20.3979C6.62028 19.7894 7.02168 19.1426 7.36747 18.4609C6.70891 18.215 6.07815 17.9117 5.48213 17.5595C5.64026 17.4445 5.79491 17.3242 5.94435 17.2004C9.57951 18.8706 13.5291 18.8706 17.1208 17.2004C17.272 17.3242 17.4266 17.4445 17.583 17.5595C16.9853 17.9134 16.3528 18.2168 15.6942 18.4626C16.04 19.1426 16.4396 19.7912 16.8914 20.3996C18.7159 19.8417 20.5717 18.9892 22.4849 17.5839C22.9436 12.8121 21.7012 8.67483 19.2008 5.00659ZM7.86269 15.0524C6.77146 15.0524 5.87658 14.0517 5.87658 12.833C5.87658 11.6143 6.75234 10.6118 7.86269 10.6118C8.97305 10.6118 9.8679 11.6126 9.84879 12.833C9.85057 14.0517 8.97305 15.0524 7.86269 15.0524ZM15.2025 15.0524C14.1112 15.0524 13.2163 14.0517 13.2163 12.833C13.2163 11.6143 14.0921 10.6118 15.2025 10.6118C16.3128 10.6118 17.2077 11.6126 17.1886 12.833C17.1886 14.0517 16.3128 15.0524 15.2025 15.0524Z" fill="#F7F7F7"/>
</svg>
