<svg width="24" height="24" viewBox="0 0 24 24" fill="none" xmlns="http://www.w3.org/2000/svg">
<path d="M22.5656 3.59814C22.5605 3.89381 22.5205 4.1877 22.4465 4.47304C22.3759 4.82963 22.3026 5.18569 22.2297 5.54228C22.156 5.90693 22.0824 6.27158 22.0088 6.63624C21.9384 6.98846 21.8672 7.34102 21.7955 7.69392C21.7424 7.96019 21.6888 8.22664 21.6347 8.49325C21.5447 8.9358 21.4546 9.37819 21.3644 9.82041C21.3096 10.0909 21.2583 10.3618 21.2035 10.6323C21.1137 11.075 21.0221 11.5167 20.9323 11.9594C20.8606 12.312 20.7897 12.6646 20.7197 13.0172C20.5964 13.6327 20.4732 14.2481 20.3499 14.8636C20.2539 15.3516 20.1506 15.8397 20.0522 16.3272C19.9264 16.9508 19.802 17.5748 19.6757 18.1979C19.5528 18.8053 19.4295 19.4122 19.3018 20.0186C19.2451 20.4089 19.1504 20.7919 19.019 21.1619C18.9656 21.3236 18.8742 21.4687 18.7536 21.584C18.633 21.6992 18.4871 21.7809 18.3286 21.8217C18.082 21.8634 17.8291 21.8267 17.6026 21.7165C17.3171 21.5729 17.0504 21.3918 16.8085 21.1775C16.3601 20.839 15.9196 20.4905 15.4755 20.1465C14.7713 19.6005 14.0672 19.0547 13.363 18.5091C13.0269 18.2477 12.6851 17.9888 12.35 17.7239C12.2717 17.6625 12.2252 17.6735 12.158 17.7425C11.6554 18.2563 11.1512 18.7677 10.6451 19.2767C10.3017 19.6236 9.9568 19.9694 9.61078 20.3142C9.42273 20.5002 9.18125 20.6156 8.92411 20.6426C8.82185 20.6557 8.76624 20.633 8.78017 20.5036C8.81474 20.1238 8.85036 19.7436 8.86621 19.3623C8.87869 19.043 8.90889 18.7257 8.9281 18.4054C8.96651 17.7693 9.02747 17.1341 9.05868 16.4975C9.07549 16.158 9.12013 15.82 9.11917 15.4796C9.11451 15.4031 9.127 15.3265 9.1555 15.2559C9.18401 15.1854 9.22765 15.1228 9.28327 15.0731C10.0856 14.3247 10.8769 13.5621 11.6724 12.8066C12.1622 12.3412 12.6525 11.8767 13.1435 11.413L15.6652 9.02157C16.1559 8.55686 16.6466 8.09248 17.137 7.62844C17.5851 7.20402 18.0344 6.77993 18.4855 6.35618C18.5403 6.30088 18.592 6.24218 18.6402 6.18041C18.6657 6.15617 18.6834 6.12428 18.6911 6.08904C18.6987 6.0538 18.6959 6.01693 18.6828 5.98348C18.6656 5.94996 18.6394 5.92251 18.6074 5.9046C18.5753 5.88668 18.5389 5.8791 18.5028 5.88277C18.2938 5.88793 18.091 5.95806 17.92 6.08425C17.4086 6.41918 16.9007 6.75967 16.3903 7.09662C15.302 7.81618 14.2122 8.53523 13.121 9.25379L8.17133 12.521C7.57277 12.9166 6.97433 13.313 6.37577 13.7102C6.34991 13.7293 6.31989 13.7416 6.28856 13.7461C6.25722 13.7505 6.2255 13.7471 6.19572 13.7359C5.75304 13.5904 5.30984 13.4488 4.86716 13.3042C4.32941 13.1283 3.79188 12.9514 3.25445 12.7734C2.53666 12.5367 1.81839 12.3019 1.10348 12.0592C0.939785 12 0.788818 11.9072 0.659688 11.7862C0.60064 11.7347 0.553352 11.6701 0.521135 11.597C0.488919 11.5239 0.47267 11.4442 0.473544 11.3636C0.474418 11.2831 0.492498 11.2038 0.526293 11.1315C0.560088 11.0591 0.608681 10.9957 0.668831 10.9456C0.885415 10.7263 1.14493 10.559 1.42935 10.4555C2.4245 10.0499 3.42022 9.64597 4.41633 9.24371C5.43229 8.83238 6.44778 8.42155 7.46309 8.01123C8.64741 7.53342 9.83192 7.05648 11.0162 6.58035C11.6135 6.33909 12.2094 6.09433 12.8066 5.85307C13.7093 5.48892 14.6139 5.12778 15.5165 4.76262C16.2017 4.48561 16.8844 4.20304 17.569 3.92603C18.1716 3.68226 18.777 3.44404 19.3801 3.20127C19.8564 3.00938 20.3301 2.8099 20.8073 2.62002C21.0635 2.49227 21.3406 2.41707 21.6236 2.39844C21.8354 2.40199 22.0398 2.48117 22.2029 2.62291C22.3661 2.76465 22.4783 2.96047 22.5211 3.1781C22.553 3.31554 22.5679 3.4567 22.5656 3.59814Z" fill="#F7F7F7"/>
</svg>
