<svg width="24" height="24" viewBox="0 0 24 24" fill="none" xmlns="http://www.w3.org/2000/svg">
<path d="M11.0666 8.2903C10.8282 6.22019 11.2572 4.52219 12.7776 3.25143C13.5341 2.58247 14.491 2.19898 15.4895 2.16463C16.4879 2.13029 17.4678 2.44717 18.2663 3.06263C18.5664 3.34814 18.9479 3.52757 19.3547 3.5746C19.7615 3.62164 20.1723 3.53381 20.5269 3.32399C20.9372 3.12866 21.3635 2.96769 21.7823 2.79091L21.9713 2.95078L20.1912 5.27461L22.5529 4.75081C21.9239 5.42139 21.4726 5.97575 20.9452 6.43953C20.7585 6.59002 20.608 6.78247 20.5053 7.00204C20.4026 7.22161 20.3505 7.46243 20.3529 7.70593C20.0868 13.3914 17.7485 17.8661 12.6897 20.448C8.65966 22.5055 4.54336 22.2011 0.556373 20.0906C0.520718 20.0715 0.516981 19.9896 0.460571 19.8292C2.74135 19.8344 4.95534 19.0401 6.73535 17.578C4.68704 17.2064 3.15173 16.3307 2.44715 14.3042L4.17243 14.1405C2.12519 13.1524 0.85331 11.7201 0.660133 9.32098L2.52271 9.74548C0.779871 7.8216 0.155108 5.77386 1.25882 3.19413C3.87601 6.23164 7.01474 8.05786 11.0666 8.2903Z" fill="#F7F7F7"/>
</svg>
