<svg width="34" height="24" viewBox="0 0 34 24" fill="none" xmlns="http://www.w3.org/2000/svg">
<path d="M32.3509 3.74727C31.9731 2.27455 30.8553 1.11273 29.4332 0.714546C26.8618 2.60093e-07 16.5448 0 16.5448 0C16.5448 0 6.23307 2.60093e-07 3.65644 0.714546C2.23956 1.10727 1.1218 2.26909 0.738719 3.74727C0.0512695 6.42 0.0512695 12 0.0512695 12C0.0512695 12 0.0512695 17.58 0.738719 20.2527C1.11655 21.7255 2.23432 22.8873 3.65644 23.2855C6.23307 24 16.5448 24 16.5448 24C16.5448 24 26.8618 24 29.4332 23.2855C30.8501 22.8927 31.9678 21.7309 32.3509 20.2527C33.0383 17.58 33.0383 12 33.0383 12C33.0383 12 33.0383 6.42 32.3509 3.74727Z" fill="#F7F7F7"/>
<path d="M13.2491 17.1427L21.8186 11.9991L13.2491 6.85547V17.1427Z" fill="#101010"/>
</svg>
